SplineFontDB: 3.2
FontName: ATM655-Regular
FullName: ATM655-Regular
FamilyName: ATM 655
Weight: Book
Version: 1.001
ItalicAngle: -11
UnderlinePosition: -271
UnderlineWidth: 102
Ascent: 1600
Descent: 400
InvalidEm: 0
sfntRevision: 0x00010042
LayerCount: 2
Layer: 0 1 "Back" 1
Layer: 1 1 "Fore" 0
XUID: [1021 192 2086997156 7971]
StyleMap: 0x0040
FSType: 8
OS2Version: 3
OS2_WeightWidthSlopeOnly: 0
OS2_UseTypoMetrics: 0
CreationTime: 1537445717
ModificationTime: 1545721581
PfmFamily: 17
TTFWeight: 400
TTFWidth: 5
LineGap: 0
VLineGap: 0
Panose: 2 0 5 5 0 0 0 2 0 2
OS2TypoAscent: 2000
OS2TypoAOffset: 0
OS2TypoDescent: -1320
OS2TypoDOffset: 0
OS2TypoLinegap: 0
OS2WinAscent: 2000
OS2WinAOffset: 0
OS2WinDescent: 744
OS2WinDOffset: 0
HheadAscent: 2000
HheadAOffset: 0
HheadDescent: -1320
HheadDOffset: 0
OS2SubXSize: 1400
OS2SubYSize: 1300
OS2SubXOff: 0
OS2SubYOff: 0
OS2SupXSize: 1400
OS2SupYSize: 1300
OS2SupXOff: 0
OS2SupYOff: 0
OS2StrikeYSize: 100
OS2StrikeYPos: 518
OS2CapHeight: 1586
OS2XHeight: -200
OS2Vendor: '    '
OS2CodePages: 00000001.00000000
OS2UnicodeRanges: 00100003.00000000.00000000.00000000
Lookup: 4 0 0 "'akhn' Akhand in Tamil2 lookup 0" { "'akhn' Akhand in Tamil2 lookup 0 subtable"  } ['akhn' ('tml2' <'dflt' > ) ]
Lookup: 4 0 0 "'akhn' Akhand in Tamil lookup 1" { "'akhn' Akhand in Tamil lookup 1 subtable"  } ['akhn' ('taml' <'dflt' > ) ]
Lookup: 4 0 0 "'half' Half Forms in Tamil lookup 2" { "'half' Half Forms in Tamil lookup 2 subtable"  } ['half' ('taml' <'dflt' > ) ]
Lookup: 4 0 0 "'haln' Halant Forms in Tamil2 lookup 3" { "'haln' Halant Forms in Tamil2 lookup 3 subtable"  } ['haln' ('tml2' <'dflt' > ) ]
Lookup: 4 0 0 "'haln' Halant Forms in Tamil lookup 4" { "'haln' Halant Forms in Tamil lookup 4 subtable"  } ['haln' ('taml' <'dflt' > ) ]
Lookup: 4 0 0 "'abvs' Above Base Substitutions lookup 5" { "'abvs' Above Base Substitutions lookup 5 subtable"  } ['abvs' ('taml' <'dflt' > 'tml2' <'dflt' > ) ]

StartChar: exclam
Encoding: 33 33 4
Width: 532
GlyphClass: 2
Flags: W
LayerCount: 2
Fore
SplineSet
496 932 m 2,0,-1
 360 310 l 2,1,2
 346 248 346 248 280 248 c 0,3,4
 190 248 190 248 206 330 c 2,5,-1
 322 942 l 2,6,7
 334 1006 334 1006 414 1006 c 0,8,9
 498 1006 498 1006 498 950 c 0,10,11
 498 942 498 942 496 932 c 2,0,-1
432 12 m 256,12,13
 432 -60 432 -60 381 -110 c 128,-1,14
 330 -160 330 -160 258 -160 c 256,15,16
 186 -160 186 -160 135 -110 c 128,-1,17
 84 -60 84 -60 84 12 c 256,18,19
 84 84 84 84 135 135 c 128,-1,20
 186 186 186 186 258 186 c 256,21,22
 330 186 330 186 381 135 c 128,-1,23
 432 84 432 84 432 12 c 256,12,13
EndSplineSet
EndChar

StartChar: quotedbl
Encoding: 34 34 5
Width: 606
GlyphClass: 2
Flags: W
LayerCount: 2
Fore
SplineSet
109 647 m 1,0,-1
 63 912 l 1,1,-1
 63 1140 l 1,2,-1
 257 1140 l 1,3,-1
 257 912 l 1,4,-1
 214 647 l 1,5,-1
 109 647 l 1,0,-1
423 647 m 1,6,-1
 378 912 l 1,7,-1
 378 1140 l 1,8,-1
 572 1140 l 1,9,-1
 572 912 l 1,10,-1
 527 647 l 1,11,-1
 423 647 l 1,6,-1
EndSplineSet
EndChar

StartChar: numbersign
Encoding: 35 35 6
Width: 1203
GlyphClass: 2
Flags: W
LayerCount: 2
Fore
SplineSet
179 22 m 1,0,-1
 264 356 l 1,1,-1
 103 356 l 1,2,-1
 103 473 l 1,3,-1
 288 473 l 1,4,-1
 358 761 l 1,5,-1
 103 761 l 1,6,-1
 103 876 l 1,7,-1
 386 876 l 1,8,-1
 471 1218 l 1,9,-1
 609 1218 l 1,10,-1
 526 876 l 1,11,-1
 817 876 l 1,12,-1
 903 1218 l 1,13,-1
 1041 1218 l 1,14,-1
 962 876 l 1,15,-1
 1124 876 l 1,16,-1
 1124 761 l 1,17,-1
 932 761 l 1,18,-1
 861 473 l 1,19,-1
 1124 473 l 1,20,-1
 1124 356 l 1,21,-1
 832 356 l 1,22,-1
 755 22 l 1,23,-1
 611 22 l 1,24,-1
 688 356 l 1,25,-1
 401 356 l 1,26,-1
 322 22 l 1,27,-1
 179 22 l 1,0,-1
435 473 m 1,28,-1
 724 473 l 1,29,-1
 792 761 l 1,30,-1
 501 761 l 1,31,-1
 435 473 l 1,28,-1
EndSplineSet
EndChar

StartChar: dollar
Encoding: 36 36 7
Width: 908
GlyphClass: 2
Flags: W
LayerCount: 2
Fore
SplineSet
766 302 m 0,0,1
 744 187 744 187 654 120 c 0,2,3
 572 60 572 60 456 60 c 1,4,-1
 456 -52 l 1,5,-1
 383 -52 l 1,6,-1
 383 60 l 1,7,8
 372 60 372 60 357 60 c 0,9,10
 336 65 336 65 330 71 c 2,11,-1
 264 92 l 2,12,13
 242 95 242 95 229.5 102.5 c 128,-1,14
 217 110 217 110 188 131 c 2,15,-1
 146 156 l 1,16,-1
 180 232 l 1,17,-1
 217 204 l 2,18,19
 259 169 259 169 284 156 c 2,20,-1
 336 137 l 1,21,-1
 383 134 l 1,22,-1
 383 518 l 1,23,24
 230 560 230 560 169 630 c 0,25,26
 99 710 99 710 99 838 c 2,27,-1
 99 872 l 1,28,-1
 104 912 l 2,29,30
 119 1045 119 1045 217 1126 c 0,31,32
 299 1192 299 1192 383 1192 c 1,33,-1
 383 1289 l 1,34,-1
 456 1289 l 1,35,-1
 456 1197 l 1,36,-1
 510 1191 l 2,37,38
 531 1191 531 1191 541.5 1190 c 128,-1,39
 552 1189 552 1189 578 1176 c 1,40,41
 688 1140 688 1140 688 1126 c 1,42,-1
 659 1037 l 1,43,-1
 646 1048 l 2,44,45
 615 1079 615 1079 563 1101 c 0,46,47
 537 1112 537 1112 517.5 1116.5 c 128,-1,48
 498 1121 498 1121 491 1121 c 0,49,50
 466 1121 466 1121 456 1126 c 1,51,-1
 456 739 l 1,52,53
 561 717 561 717 615 686 c 0,54,55
 773 594 773 594 773 404 c 2,56,-1
 772 355 l 2,57,58
 772 330 772 330 766 302 c 0,0,1
383 770 m 1,59,-1
 383 1126 l 1,60,61
 330 1121 330 1121 281 1080 c 0,62,63
 219 1030 219 1030 219 964 c 0,64,65
 219 872 219 872 283 819 c 0,66,67
 297 807 297 807 322.5 796 c 128,-1,68
 348 785 348 785 383 770 c 1,59,-1
653 317 m 0,69,70
 653 404 653 404 573 448 c 1,71,-1
 456 493 l 1,72,-1
 456 134 l 1,73,74
 547 134 547 134 600 185 c 128,-1,75
 653 236 653 236 653 317 c 0,69,70
EndSplineSet
EndChar

StartChar: percent
Encoding: 37 37 8
Width: 1140
GlyphClass: 2
Flags: W
LayerCount: 2
Fore
SplineSet
496 696 m 0,0,1
 496 616 496 616 443 568 c 128,-1,2
 390 520 390 520 316 520 c 0,3,4
 248 520 248 520 199 567 c 128,-1,5
 150 614 150 614 150 678 c 0,6,7
 150 764 150 764 212 862 c 0,8,9
 278 968 278 968 348 968 c 0,10,11
 414 968 414 968 455 885 c 128,-1,12
 496 802 496 802 496 696 c 0,0,1
1058 842 m 0,13,14
 1058 830 1058 830 1028 800 c 2,15,-1
 256 44 l 2,16,17
 212 0 212 0 162 0 c 0,18,19
 84 0 84 0 84 80 c 0,20,21
 84 112 84 112 108 136 c 2,22,-1
 908 910 l 2,23,24
 936 938 936 938 974 938 c 0,25,26
 1004 938 1004 938 1031 911 c 128,-1,27
 1058 884 1058 884 1058 842 c 0,13,14
982 210 m 0,28,29
 982 96 982 96 920 38 c 0,30,31
 864 -12 864 -12 778 -12 c 0,32,33
 712 -12 712 -12 669 38 c 128,-1,34
 626 88 626 88 626 154 c 0,35,36
 626 240 626 240 695 347 c 128,-1,37
 764 454 764 454 834 454 c 0,38,39
 894 454 894 454 942 362 c 0,40,41
 982 282 982 282 982 210 c 0,28,29
356 720 m 0,42,43
 356 788 356 788 330 830 c 1,44,45
 290 790 290 790 290 716 c 0,46,47
 290 648 290 648 324 648 c 0,48,49
 356 648 356 648 356 720 c 0,42,43
850 184 m 0,50,51
 850 248 850 248 814 306 c 1,52,53
 800 292 800 292 780 250 c 128,-1,54
 760 208 760 208 760 184 c 0,55,56
 760 124 760 124 808 124 c 0,57,58
 850 124 850 124 850 184 c 0,50,51
EndSplineSet
EndChar

StartChar: ampersand
Encoding: 38 38 9
Width: 1084
GlyphClass: 2
Flags: W
LayerCount: 2
Fore
SplineSet
1000 442 m 0,0,1
 1000 386 1000 386 956 306 c 0,2,3
 950 294 950 294 872 176 c 1,4,5
 930 108 930 108 930 68 c 0,6,7
 930 -6 930 -6 846 -6 c 0,8,9
 776 -6 776 -6 738 78 c 1,10,11
 582 0 582 0 450 0 c 0,12,13
 302 0 302 0 196 82 c 0,14,15
 84 168 84 168 84 298 c 0,16,17
 84 512 84 512 362 626 c 1,18,19
 304 714 304 714 304 800 c 0,20,21
 304 914 304 914 380 982 c 128,-1,22
 456 1050 456 1050 570 1050 c 0,23,24
 682 1050 682 1050 744 984 c 0,25,26
 800 924 800 924 800 826 c 0,27,28
 800 680 800 680 586 562 c 1,29,-1
 764 324 l 1,30,31
 808 366 808 366 842 462 c 0,32,33
 866 532 866 532 904 532 c 0,34,35
 1000 532 1000 532 1000 442 c 0,0,1
644 818 m 0,36,37
 644 892 644 892 560 892 c 0,38,39
 480 892 480 892 480 810 c 0,40,41
 480 734 480 734 524 704 c 1,42,43
 644 734 644 734 644 818 c 0,36,37
644 218 m 1,44,-1
 454 496 l 1,45,46
 268 444 268 444 268 306 c 0,47,48
 268 238 268 238 322 195 c 128,-1,49
 376 152 376 152 454 152 c 0,50,51
 572 152 572 152 644 218 c 1,44,-1
EndSplineSet
EndChar

StartChar: quotesingle
Encoding: 39 39 10
Width: 368
GlyphClass: 2
Flags: W
LayerCount: 2
Fore
SplineSet
137 647 m 1,0,-1
 91 912 l 1,1,-1
 91 1140 l 1,2,-1
 285 1140 l 1,3,-1
 285 912 l 1,4,-1
 242 647 l 1,5,-1
 137 647 l 1,0,-1
EndSplineSet
EndChar

StartChar: parenleft
Encoding: 40 40 11
Width: 624
GlyphClass: 2
Flags: W
LayerCount: 2
Fore
SplineSet
782 1060 m 0,0,1
 782 1018 782 1018 751 983 c 128,-1,2
 720 948 720 948 678 948 c 0,3,4
 510 948 510 948 374 731 c 128,-1,5
 238 514 238 514 238 254 c 0,6,7
 238 20 238 20 384 -70 c 1,8,9
 436 -96 436 -96 488 -120 c 1,10,11
 536 -150 536 -150 536 -216 c 0,12,13
 536 -288 536 -288 436 -288 c 0,14,15
 316 -288 316 -288 206 -160 c 0,16,17
 70 -2 70 -2 70 256 c 0,18,19
 70 578 70 578 254 844 c 0,20,21
 444 1118 444 1118 692 1118 c 0,22,23
 782 1118 782 1118 782 1060 c 0,0,1
EndSplineSet
EndChar

StartChar: parenright
Encoding: 41 41 12
Width: 628
GlyphClass: 2
Flags: W
LayerCount: 2
Fore
SplineSet
548 492 m 0,0,1
 548 316 548 316 428 62 c 0,2,3
 262 -288 262 -288 -84 -288 c 0,4,5
 -166 -288 -166 -288 -166 -210 c 0,6,7
 -166 -116 -166 -116 -64 -116 c 128,-1,8
 38 -116 38 -116 104 -72 c 0,9,10
 214 2 214 2 286 142 c 0,11,12
 372 312 372 312 372 538 c 0,13,14
 372 706 372 706 296 820 c 0,15,16
 238 910 238 910 178 920 c 0,17,18
 88 936 88 936 88 1018 c 0,19,20
 88 1122 88 1122 162 1122 c 0,21,22
 260 1122 260 1122 360 1024 c 0,23,24
 548 838 548 838 548 492 c 0,0,1
EndSplineSet
EndChar

StartChar: asterisk
Encoding: 42 42 13
Width: 705
GlyphClass: 2
Flags: W
LayerCount: 2
Fore
SplineSet
646 1169 m 1,0,-1
 414 1121 l 1,1,-1
 592 981 l 1,2,-1
 451 875 l 1,3,-1
 346 1073 l 1,4,-1
 267 873 l 1,5,-1
 114 954 l 1,6,-1
 280 1125 l 1,7,-1
 48 1154 l 1,8,-1
 99 1307 l 1,9,-1
 300 1207 l 1,10,-1
 261 1434 l 1,11,-1
 432 1434 l 1,12,-1
 390 1212 l 1,13,-1
 594 1317 l 1,14,-1
 646 1169 l 1,0,-1
EndSplineSet
EndChar

StartChar: plus
Encoding: 43 43 14
Width: 1066
GlyphClass: 2
Flags: W
LayerCount: 2
Fore
SplineSet
982 432 m 0,0,1
 982 348 982 348 862 340 c 2,2,-1
 600 324 l 1,3,-1
 602 42 l 2,4,5
 602 -26 602 -26 524 -26 c 0,6,7
 480 -26 480 -26 452 9 c 128,-1,8
 424 44 424 44 424 82 c 2,9,-1
 428 298 l 1,10,-1
 188 266 l 2,11,12
 162 262 162 262 123 286 c 128,-1,13
 84 310 84 310 84 340 c 0,14,15
 84 424 84 424 152 432 c 2,16,-1
 440 466 l 1,17,-1
 444 738 l 2,18,19
 446 810 446 810 542 810 c 0,20,21
 628 810 628 810 628 720 c 0,22,23
 628 702 628 702 622 619 c 128,-1,24
 616 536 616 536 616 486 c 1,25,-1
 898 516 l 2,26,27
 930 520 930 520 956 493 c 128,-1,28
 982 466 982 466 982 432 c 0,0,1
EndSplineSet
EndChar

StartChar: comma
Encoding: 44 44 15
Width: 534
GlyphClass: 2
Flags: W
LayerCount: 2
Fore
SplineSet
420 162 m 0,0,1
 420 44 420 44 331 -61 c 128,-1,2
 242 -166 242 -166 166 -166 c 0,3,4
 100 -166 100 -166 100 -96 c 0,5,6
 100 -64 100 -64 140 -42 c 0,7,8
 202 -8 202 -8 210 0 c 1,9,10
 150 12 150 12 110 58 c 128,-1,11
 70 104 70 104 70 166 c 0,12,13
 70 238 70 238 121 289 c 128,-1,14
 172 340 172 340 244 340 c 256,15,16
 316 340 316 340 368 287 c 128,-1,17
 420 234 420 234 420 162 c 0,0,1
EndSplineSet
EndChar

StartChar: hyphen
Encoding: 45 45 16
Width: 1090
GlyphClass: 2
Flags: W
LayerCount: 2
Fore
SplineSet
1006 544 m 0,0,1
 1006 504 1006 504 985 488 c 128,-1,2
 964 472 964 472 912 468 c 2,3,-1
 178 416 l 2,4,5
 84 410 84 410 84 484 c 0,6,7
 84 518 84 518 106 547 c 128,-1,8
 128 576 128 576 162 578 c 2,9,-1
 894 630 l 2,10,11
 940 634 940 634 973 607 c 128,-1,12
 1006 580 1006 580 1006 544 c 0,0,1
EndSplineSet
EndChar

StartChar: period
Encoding: 46 46 17
Width: 532
GlyphClass: 2
Flags: W
LayerCount: 2
Fore
SplineSet
418 172 m 256,0,1
 418 100 418 100 367 50 c 128,-1,2
 316 0 316 0 244 0 c 256,3,4
 172 0 172 0 121 50 c 128,-1,5
 70 100 70 100 70 172 c 256,6,7
 70 244 70 244 121 295 c 128,-1,8
 172 346 172 346 244 346 c 256,9,10
 316 346 316 346 367 295 c 128,-1,11
 418 244 418 244 418 172 c 256,0,1
EndSplineSet
EndChar

StartChar: slash
Encoding: 47 47 18
Width: 692
GlyphClass: 2
Flags: W
LayerCount: 2
Fore
SplineSet
830 1044 m 0,0,1
 830 1032 830 1032 800 1002 c 1,2,-1
 188 -154 l 1,3,4
 144 -198 144 -198 94 -198 c 0,5,6
 16 -198 16 -198 16 -118 c 0,7,8
 16 -86 16 -86 40 -62 c 1,9,-1
 680 1112 l 1,10,11
 708 1140 708 1140 746 1140 c 0,12,13
 776 1140 776 1140 803 1113 c 128,-1,14
 830 1086 830 1086 830 1044 c 0,0,1
EndSplineSet
EndChar

StartChar: zero
Encoding: 48 48 19
Width: 1001
GlyphClass: 2
Flags: W
LayerCount: 2
Fore
SplineSet
935 654 m 0,0,1
 935 407 935 407 728.5 182.5 c 128,-1,2
 522 -42 522 -42 304 -42 c 0,3,4
 179 -42 179 -42 116 51 c 0,5,6
 66 123 66 123 66 226 c 0,7,8
 66 431 66 431 243 674 c 0,9,10
 437 940 437 940 650 940 c 0,11,12
 935 940 935 940 935 654 c 0,0,1
764 644 m 0,13,14
 764 697 764 697 729.5 737 c 128,-1,15
 695 777 695 777 650 777 c 0,16,17
 477 777 477 777 351 559 c 0,18,19
 249 380 249 380 249 241 c 0,20,21
 249 118 249 118 359 118 c 0,22,23
 486 118 486 118 629 313 c 0,24,25
 764 502 764 502 764 644 c 0,13,14
EndSplineSet
EndChar

StartChar: one
Encoding: 49 49 20
Width: 469
GlyphClass: 2
Flags: W
LayerCount: 2
Fore
SplineSet
389 23 m 2,0,1
 389 -57 389 -57 310 -57 c 0,2,3
 230 -57 230 -57 230 27 c 2,4,-1
 230 663 l 1,5,6
 180 629 180 629 141 629 c 0,7,8
 66 629 66 629 66 703 c 0,9,10
 66 756 66 756 146 815 c 0,11,12
 236 880 236 880 255 940 c 1,13,14
 281 959 281 959 315 959 c 0,15,16
 361 959 361 959 375 939.5 c 128,-1,17
 389 920 389 920 389 861 c 2,18,-1
 389 23 l 2,0,1
EndSplineSet
EndChar

StartChar: two
Encoding: 50 50 21
Width: 880
GlyphClass: 2
Flags: W
LayerCount: 2
Fore
SplineSet
813 741 m 0,0,1
 813 602 813 602 671 465 c 0,2,3
 593 391 593 391 403 270 c 0,4,5
 260 177 260 177 260 144 c 0,6,7
 260 91 260 91 350 91 c 0,8,9
 426 91 426 91 563.5 121.5 c 128,-1,10
 701 152 701 152 728 152 c 0,11,12
 792 152 792 152 792 68 c 0,13,14
 792 17 792 17 737 -8 c 0,15,16
 697 -25 697 -25 598 -36 c 0,17,18
 407 -57 407 -57 291 -57 c 0,19,20
 188 -57 188 -57 127 -9.5 c 128,-1,21
 66 38 66 38 66 123 c 0,22,23
 66 224 66 224 215 338 c 1,24,25
 350 429 350 429 486 521 c 0,26,27
 635 623 635 623 635 701 c 0,28,29
 635 802 635 802 513 802 c 0,30,31
 427 802 427 802 336 728 c 128,-1,32
 245 654 245 654 245 587 c 0,33,34
 245 576 245 576 251.5 558 c 128,-1,35
 258 540 258 540 258 526 c 0,36,37
 258 486 258 486 231.5 461.5 c 128,-1,38
 205 437 205 437 171 437 c 0,39,40
 125 437 125 437 99 477 c 0,41,42
 76 511 76 511 76 562 c 0,43,44
 76 722 76 722 220.5 841.5 c 128,-1,45
 365 961 365 961 553 961 c 0,46,47
 674 961 674 961 747 897 c 0,48,49
 813 834 813 834 813 741 c 0,0,1
EndSplineSet
EndChar

StartChar: three
Encoding: 51 51 22
Width: 927
GlyphClass: 2
Flags: W
LayerCount: 2
Fore
SplineSet
861 365 m 0,0,1
 861 190 861 190 701 80 c 0,2,3
 553 -23 553 -23 355 -23 c 0,4,5
 220 -23 220 -23 143 52 c 128,-1,6
 66 127 66 127 66 245 c 0,7,8
 66 294 66 294 99.5 334 c 128,-1,9
 133 374 133 374 180 374 c 0,10,11
 209 374 209 374 234.5 353 c 128,-1,12
 260 332 260 332 260 310 c 0,13,14
 260 300 260 300 252.5 278 c 128,-1,15
 245 256 245 256 245 245 c 0,16,17
 245 120 245 120 403 120 c 0,18,19
 507 120 507 120 597.5 185.5 c 128,-1,20
 688 251 688 251 688 332 c 0,21,22
 688 429 688 429 579 429 c 0,23,24
 564 429 564 429 535.5 420.5 c 128,-1,25
 507 412 507 412 490 412 c 0,26,27
 464 412 464 412 439 433 c 128,-1,28
 414 454 414 454 414 479 c 0,29,30
 414 534 414 534 452 559 c 0,31,32
 458 564 458 564 534 597 c 0,33,34
 657 650 657 650 657 726 c 0,35,36
 657 819 657 819 528 819 c 0,37,38
 452 819 452 819 382.5 779 c 128,-1,39
 313 739 313 739 313 692 c 0,40,41
 313 682 313 682 315 665 c 0,42,43
 315 646 315 646 315 636 c 0,44,45
 315 591 315 591 296 575.5 c 128,-1,46
 277 560 277 560 226 560 c 0,47,48
 125 560 125 560 125 671 c 0,49,50
 125 771 125 771 236 861 c 0,51,52
 361 959 361 959 549 959 c 0,53,54
 673 959 673 959 748 898.5 c 128,-1,55
 823 838 823 838 823 750 c 0,56,57
 823 642 823 642 718 551 c 1,58,59
 777 532 777 532 819 479.5 c 128,-1,60
 861 427 861 427 861 365 c 0,0,1
EndSplineSet
EndChar

StartChar: four
Encoding: 52 52 23
Width: 878
GlyphClass: 2
Flags: W
LayerCount: 2
Fore
SplineSet
811 427 m 0,0,1
 811 357 811 357 764 340 c 2,2,-1
 559 270 l 1,3,-1
 559 17 l 2,4,5
 559 -15 559 -15 535 -37 c 128,-1,6
 511 -59 511 -59 481 -59 c 0,7,8
 389 -59 389 -59 389 8 c 2,9,-1
 389 217 l 1,10,11
 256 156 256 156 179 156 c 0,12,13
 66 156 66 156 66 285 c 2,14,-1
 66 882 l 2,15,16
 66 916 66 916 93 936 c 128,-1,17
 120 956 120 956 154 956 c 0,18,19
 203 956 203 956 217.5 936 c 128,-1,20
 232 916 232 916 232 866 c 2,21,-1
 232 334 l 1,22,-1
 389 388 l 1,23,-1
 389 661 l 2,24,25
 389 756 389 756 465 756 c 0,26,27
 503 756 503 756 531 731.5 c 128,-1,28
 559 707 559 707 559 671 c 2,29,-1
 559 439 l 1,30,-1
 728 494 l 2,31,32
 735 496 735 496 745 496 c 0,33,34
 771 496 771 496 791 477 c 128,-1,35
 811 458 811 458 811 427 c 0,0,1
EndSplineSet
EndChar

StartChar: five
Encoding: 53 53 24
Width: 838
GlyphClass: 2
Flags: W
LayerCount: 2
Fore
SplineSet
771 479 m 0,0,1
 771 283 771 283 424 38 c 0,2,3
 283 -61 283 -61 137 -137 c 0,4,5
 0 -207 0 -207 -44 -207 c 0,6,7
 -72 -207 -72 -207 -96 -187 c 128,-1,8
 -120 -167 -120 -167 -120 -133 c 0,9,10
 -120 -76 -120 -76 28 -6 c 0,11,12
 256 101 256 101 319 144 c 0,13,14
 610 346 610 346 610 460 c 0,15,16
 610 583 610 583 462 583 c 0,17,18
 380 583 380 583 313 540 c 0,19,20
 283 519 283 519 220 458 c 0,21,22
 177 414 177 414 150 414 c 0,23,24
 66 414 66 414 66 488 c 2,25,-1
 66 807 l 2,26,27
 66 935 66 935 199 935 c 2,28,-1
 674 935 l 2,29,30
 760 935 760 935 760 866 c 0,31,32
 760 796 760 796 674 796 c 2,33,-1
 249 796 l 1,34,-1
 249 667 l 1,35,36
 334 728 334 728 471 728 c 0,37,38
 771 728 771 728 771 479 c 0,0,1
EndSplineSet
EndChar

StartChar: six
Encoding: 54 54 25
Width: 948
GlyphClass: 2
Flags: W
LayerCount: 2
Fore
SplineSet
931 813 m 0,0,1
 931 720 931 720 832 720 c 0,2,3
 809 720 809 720 771 760 c 128,-1,4
 733 800 733 800 684 800 c 0,5,6
 534 800 534 800 381 609 c 128,-1,7
 228 418 228 418 228 232 c 0,8,9
 228 97 228 97 327 97 c 0,10,11
 437 97 437 97 585 234 c 0,12,13
 724 361 724 361 724 431 c 0,14,15
 724 509 724 509 663 509 c 0,16,17
 606 509 606 509 551 456 c 0,18,19
 530 433 530 433 473 355 c 0,20,21
 435 302 435 302 414 302 c 0,22,23
 365 302 365 302 348 313 c 0,24,25
 325 329 325 329 325 372 c 0,26,27
 325 462 325 462 438 554 c 128,-1,28
 551 646 551 646 665 646 c 0,29,30
 882 646 882 646 882 465 c 0,31,32
 882 274 882 274 684 112 c 0,33,34
 496 -40 496 -40 302 -40 c 0,35,36
 205 -40 205 -40 139 21 c 0,37,38
 66 89 66 89 66 207 c 0,39,40
 66 460 66 460 276 704 c 128,-1,41
 486 948 486 948 705 948 c 0,42,43
 802 948 802 948 866.5 909 c 128,-1,44
 931 870 931 870 931 813 c 0,0,1
EndSplineSet
EndChar

StartChar: seven
Encoding: 55 55 26
Width: 891
GlyphClass: 2
Flags: W
LayerCount: 2
Fore
SplineSet
825 828 m 0,0,1
 825 756 825 756 696.5 542.5 c 128,-1,2
 568 329 568 329 424 152 c 0,3,4
 241 -70 241 -70 163 -70 c 0,5,6
 133 -70 133 -70 111 -49.5 c 128,-1,7
 89 -29 89 -29 89 -2 c 0,8,9
 89 44 89 44 170 119 c 128,-1,10
 251 194 251 194 332 272 c 1,11,12
 462 408 462 408 547 545 c 0,13,14
 640 693 640 693 642 783 c 1,15,-1
 268 783 l 1,16,17
 245 730 245 730 165 730 c 0,18,19
 123 730 123 730 94.5 757.5 c 128,-1,20
 66 785 66 785 66 826 c 0,21,22
 66 931 66 931 186 931 c 2,23,-1
 690 931 l 2,24,25
 825 931 825 931 825 828 c 0,0,1
EndSplineSet
EndChar

StartChar: eight
Encoding: 56 56 27
Width: 950
GlyphClass: 2
Flags: W
LayerCount: 2
Fore
SplineSet
855 234 m 0,0,1
 855 120 855 120 728.5 32.5 c 128,-1,2
 602 -55 602 -55 433 -55 c 0,3,4
 306 -55 306 -55 205 2 c 0,5,6
 95 66 95 66 95 167 c 0,7,8
 95 283 95 283 179 370 c 0,9,10
 245 439 245 439 384 505 c 1,11,12
 294 570 294 570 275 589 c 0,13,14
 230 638 230 638 230 703 c 0,15,16
 230 819 230 819 329 893 c 0,17,18
 422 961 422 961 560 961 c 0,19,20
 838 961 838 961 838 754 c 0,21,22
 838 673 838 673 790 614 c 0,23,24
 766 583 766 583 684 521 c 1,25,26
 855 397 855 397 855 234 c 0,0,1
680 743 m 0,27,28
 680 828 680 828 557 828 c 0,29,30
 500 828 500 828 454 798 c 128,-1,31
 408 768 408 768 408 714 c 0,32,33
 408 671 408 671 458 636 c 0,34,35
 477 621 477 621 545 591 c 1,36,37
 680 667 680 667 680 743 c 0,27,28
686 258 m 0,38,39
 686 319 686 319 640 361 c 0,40,41
 606 389 606 389 526 422 c 1,42,43
 429 388 429 388 355 329 c 0,44,45
 268 260 268 260 268 198 c 0,46,47
 268 84 268 84 452 84 c 0,48,49
 545 84 545 84 612 129 c 0,50,51
 686 179 686 179 686 258 c 0,38,39
EndSplineSet
EndChar

StartChar: nine
Encoding: 57 57 28
Width: 891
GlyphClass: 2
Flags: W
LayerCount: 2
Fore
SplineSet
863 657 m 0,0,1
 863 439 863 439 450 53 c 0,2,3
 236 -148 236 -148 177 -148 c 0,4,5
 146 -148 146 -148 119.5 -126.5 c 128,-1,6
 93 -105 93 -105 93 -76 c 0,7,8
 93 -27 93 -27 166 29 c 128,-1,9
 239 85 239 85 315 142 c 1,10,11
 458 266 458 266 570 410 c 0,12,13
 693 570 693 570 693 648 c 0,14,15
 693 807 693 807 540 807 c 0,16,17
 405 807 405 807 310 739 c 0,18,19
 207 665 207 665 207 553 c 0,20,21
 207 517 207 517 228 487.5 c 128,-1,22
 249 458 249 458 281 458 c 0,23,24
 298 458 298 458 329.5 466.5 c 128,-1,25
 361 475 361 475 376 475 c 0,26,27
 448 475 448 475 448 393 c 0,28,29
 448 357 448 357 402.5 325.5 c 128,-1,30
 357 294 357 294 310 294 c 0,31,32
 196 294 196 294 118 355 c 0,33,34
 28 426 28 426 28 553 c 0,35,36
 28 714 28 714 178.5 833 c 128,-1,37
 329 952 329 952 540 952 c 0,38,39
 680 952 680 952 764 885 c 0,40,41
 863 807 863 807 863 657 c 0,0,1
EndSplineSet
EndChar

StartChar: colon
Encoding: 58 58 29
Width: 488
GlyphClass: 2
Flags: W
LayerCount: 2
Fore
SplineSet
418 674 m 256,0,1
 418 602 418 602 367 552 c 128,-1,2
 316 502 316 502 244 502 c 256,3,4
 172 502 172 502 121 552 c 128,-1,5
 70 602 70 602 70 674 c 256,6,7
 70 746 70 746 121 797 c 128,-1,8
 172 848 172 848 244 848 c 256,9,10
 316 848 316 848 367 797 c 128,-1,11
 418 746 418 746 418 674 c 256,0,1
418 162 m 256,12,13
 418 90 418 90 367 40 c 128,-1,14
 316 -10 316 -10 244 -10 c 256,15,16
 172 -10 172 -10 121 40 c 128,-1,17
 70 90 70 90 70 162 c 256,18,19
 70 234 70 234 121 285 c 128,-1,20
 172 336 172 336 244 336 c 256,21,22
 316 336 316 336 367 285 c 128,-1,23
 418 234 418 234 418 162 c 256,12,13
EndSplineSet
EndChar

StartChar: semicolon
Encoding: 59 59 30
Width: 488
GlyphClass: 2
Flags: W
LayerCount: 2
Fore
SplineSet
418 674 m 256,0,1
 418 602 418 602 367 552 c 128,-1,2
 316 502 316 502 244 502 c 256,3,4
 172 502 172 502 121 552 c 128,-1,5
 70 602 70 602 70 674 c 256,6,7
 70 746 70 746 121 797 c 128,-1,8
 172 848 172 848 244 848 c 256,9,10
 316 848 316 848 367 797 c 128,-1,11
 418 746 418 746 418 674 c 256,0,1
420 90 m 0,12,13
 420 -28 420 -28 331 -133 c 128,-1,14
 242 -238 242 -238 166 -238 c 0,15,16
 100 -238 100 -238 100 -168 c 0,17,18
 100 -136 100 -136 140 -114 c 0,19,20
 202 -80 202 -80 210 -72 c 1,21,22
 150 -60 150 -60 110 -14 c 128,-1,23
 70 32 70 32 70 94 c 0,24,25
 70 166 70 166 121 217 c 128,-1,26
 172 268 172 268 244 268 c 256,27,28
 316 268 316 268 368 215 c 128,-1,29
 420 162 420 162 420 90 c 0,12,13
EndSplineSet
EndChar

StartChar: less
Encoding: 60 60 31
Width: 1240
GlyphClass: 2
Flags: W
LayerCount: 2
Fore
SplineSet
993 0 m 1,0,-1
 4 471 l 1,1,-1
 4 589 l 1,2,-1
 993 1070 l 1,3,-1
 993 859 l 1,4,-1
 261 531 l 1,5,-1
 993 202 l 1,6,-1
 993 0 l 1,0,-1
EndSplineSet
EndChar

StartChar: equal
Encoding: 61 61 32
Width: 988
GlyphClass: 2
Flags: W
LayerCount: 2
Fore
SplineSet
906 628 m 0,0,1
 906 588 906 588 885 572 c 128,-1,2
 864 556 864 556 812 552 c 2,3,-1
 178 500 l 2,4,5
 84 492 84 492 84 568 c 0,6,7
 84 602 84 602 106 631 c 128,-1,8
 128 660 128 660 162 662 c 2,9,-1
 794 714 l 2,10,11
 840 718 840 718 873 692 c 128,-1,12
 906 666 906 666 906 628 c 0,0,1
906 310 m 0,13,14
 906 270 906 270 885 254 c 128,-1,15
 864 238 864 238 812 234 c 2,16,-1
 178 182 l 2,17,18
 84 174 84 174 84 250 c 0,19,20
 84 284 84 284 106 313 c 128,-1,21
 128 342 128 342 162 344 c 2,22,-1
 794 396 l 2,23,24
 840 400 840 400 873 374 c 128,-1,25
 906 348 906 348 906 310 c 0,13,14
EndSplineSet
EndChar

StartChar: greater
Encoding: 62 62 33
Width: 1306
GlyphClass: 2
Flags: W
LayerCount: 2
Fore
SplineSet
242 202 m 1,0,-1
 974 531 l 1,1,-1
 242 859 l 1,2,-1
 242 1070 l 1,3,-1
 1231 589 l 1,4,-1
 1231 471 l 1,5,-1
 242 0 l 1,6,-1
 242 202 l 1,0,-1
EndSplineSet
EndChar

StartChar: question
Encoding: 63 63 34
Width: 886
GlyphClass: 2
Flags: W
LayerCount: 2
Fore
SplineSet
806 730 m 0,0,1
 806 644 806 644 746 586 c 1,2,3
 682 536 682 536 616 488 c 0,4,5
 572 454 572 454 529 416 c 128,-1,6
 486 378 486 378 486 314 c 0,7,8
 486 272 486 272 456 244 c 128,-1,9
 426 216 426 216 382 216 c 0,10,11
 340 216 340 216 313 248 c 128,-1,12
 286 280 286 280 286 326 c 0,13,14
 286 416 286 416 376 478 c 1,15,16
 460 526 460 526 544 576 c 1,17,18
 634 640 634 640 634 744 c 0,19,20
 634 870 634 870 500 870 c 0,21,22
 418 870 418 870 348 818 c 0,23,24
 274 760 274 760 274 686 c 0,25,26
 274 650 274 650 289 632 c 128,-1,27
 304 614 304 614 304 606 c 0,28,29
 304 532 304 532 216 532 c 0,30,31
 84 532 84 532 84 640 c 0,32,33
 84 770 84 770 202 896 c 0,34,35
 328 1030 328 1030 484 1030 c 0,36,37
 806 1030 806 1030 806 730 c 0,0,1
564 6 m 256,38,39
 564 -68 564 -68 513 -119 c 128,-1,40
 462 -170 462 -170 388 -170 c 256,41,42
 314 -170 314 -170 263 -119 c 128,-1,43
 212 -68 212 -68 212 6 c 256,44,45
 212 80 212 80 263 131 c 128,-1,46
 314 182 314 182 388 182 c 256,47,48
 462 182 462 182 513 131 c 128,-1,49
 564 80 564 80 564 6 c 256,38,39
EndSplineSet
EndChar

StartChar: at
Encoding: 64 64 35
Width: 1619
GlyphClass: 2
Flags: W
LayerCount: 2
Fore
SplineSet
877 71 m 0,0,1
 870 83 870 83 867 104 c 1,2,3
 849 87 849 87 827.5 71 c 128,-1,4
 806 55 806 55 783 41 c 0,5,6
 711 -2 711 -2 640 -2 c 0,7,8
 564 -2 564 -2 495 41 c 128,-1,9
 426 84 426 84 381 178 c 0,10,11
 336 269 336 269 336 371 c 0,12,13
 336 493 336 493 401 626 c 0,14,15
 467 758 467 758 568 824 c 0,16,17
 668 890 668 890 764 890 c 0,18,19
 843 890 843 890 903 851 c 0,20,21
 929 837 929 837 950.5 818.5 c 128,-1,22
 972 800 972 800 991 774 c 1,23,24
 996 798 996 798 1002 821.5 c 128,-1,25
 1008 845 1008 845 1013 865 c 1,26,-1
 1190 865 l 1,27,-1
 1073 320 l 1,28,-1
 1050 195 l 2,29,30
 1051 190 1051 190 1054 185.5 c 128,-1,31
 1057 181 1057 181 1062 176 c 2,32,-1
 1060 178 l 2,33,34
 1072 168 1072 168 1085 168 c 0,35,36
 1122 168 1122 168 1181 210 c 0,37,38
 1263 267 1263 267 1316 371 c 0,39,40
 1370 474 1370 474 1370 583 c 0,41,42
 1370 702 1370 702 1304 813 c 0,43,44
 1272 869 1272 869 1223.5 913 c 128,-1,45
 1175 957 1175 957 1112 991 c 0,46,47
 1048 1021 1048 1021 977.5 1040.5 c 128,-1,48
 907 1060 907 1060 829 1060 c 0,49,50
 648 1060 648 1060 503 976 c 0,51,52
 429 934 429 934 372.5 874 c 128,-1,53
 316 814 316 814 274 733 c 0,54,55
 191 570 191 570 191 402 c 0,56,57
 191 311 191 311 211 230.5 c 128,-1,58
 231 150 231 150 271 83.5 c 128,-1,59
 311 17 311 17 369 -34 c 128,-1,60
 427 -85 427 -85 504 -118 c 0,61,62
 582 -152 582 -152 668 -168 c 128,-1,63
 754 -184 754 -184 849 -184 c 0,64,65
 1050 -184 1050 -184 1181 -119 c 0,66,67
 1315 -54 1315 -54 1393 54 c 1,68,-1
 1574 54 l 1,69,70
 1519 -65 1519 -65 1421 -148 c 0,71,72
 1374 -188 1374 -188 1310.5 -223.5 c 128,-1,73
 1247 -259 1247 -259 1181 -285 c 0,74,75
 1152 -295 1152 -295 1113 -305.5 c 128,-1,76
 1074 -316 1074 -316 1031 -324 c 0,77,78
 993 -331 993 -331 951 -334.5 c 128,-1,79
 909 -338 909 -338 852 -338 c 0,80,81
 716 -338 716 -338 599 -312 c 128,-1,82
 482 -286 482 -286 387 -235.5 c 128,-1,83
 292 -185 292 -185 220.5 -110.5 c 128,-1,84
 149 -36 149 -36 104 61 c 0,85,86
 37 219 37 219 37 388 c 0,87,88
 37 488 37 488 57.5 580 c 128,-1,89
 78 672 78 672 117 760 c 0,90,91
 217 973 217 973 394 1091 c 0,92,93
 575 1210 575 1210 835 1210 c 0,94,95
 935 1210 935 1210 1022 1190.5 c 128,-1,96
 1109 1171 1109 1171 1191 1129 c 0,97,98
 1272 1090 1272 1090 1335.5 1029 c 128,-1,99
 1399 968 1399 968 1448 883 c 0,100,101
 1523 740 1523 740 1523 581 c 0,102,103
 1523 464 1523 464 1480.5 359 c 128,-1,104
 1438 254 1438 254 1358 163 c 0,105,106
 1285 85 1285 85 1202.5 41.5 c 128,-1,107
 1120 -2 1120 -2 1033 -2 c 2,108,-1
 1012 -2 l 1,109,-1
 977 0 l 2,110,111
 954 4 954 4 933 18 c 1,112,-1
 934 18 l 1,113,114
 917 27 917 27 903.5 40.5 c 128,-1,115
 890 54 890 54 877 71 c 0,0,1
521 360 m 0,116,117
 521 261 521 261 566 207 c 0,118,119
 610 154 610 154 667 154 c 0,120,121
 707 154 707 154 753.5 178.5 c 128,-1,122
 800 203 800 203 839 251 c 0,123,124
 859 274 859 274 876.5 305.5 c 128,-1,125
 894 337 894 337 907 376 c 0,126,127
 936 455 936 455 936 530 c 0,128,129
 936 627 936 627 889 682 c 0,130,131
 844 735 844 735 774 735 c 0,132,133
 751 735 751 735 730 729.5 c 128,-1,134
 709 724 709 724 690 711 c 0,135,136
 646 687 646 687 611 636 c 128,-1,137
 576 585 576 585 545 500 c 1,138,-1
 545 501 l 1,139,140
 521 427 521 427 521 360 c 0,116,117
EndSplineSet
EndChar

StartChar: bracketleft
Encoding: 91 91 36
Width: 426
GlyphClass: 2
Flags: W
LayerCount: 2
Fore
SplineSet
89 1496 m 1,0,-1
 404 1496 l 1,1,-1
 404 1328 l 1,2,-1
 252 1328 l 1,3,-1
 252 -81 l 1,4,-1
 404 -81 l 1,5,-1
 404 -259 l 1,6,-1
 89 -259 l 1,7,-1
 89 1496 l 1,0,-1
EndSplineSet
EndChar

StartChar: backslash
Encoding: 92 92 37
Width: 865
GlyphClass: 2
Flags: W
LayerCount: 2
Fore
SplineSet
184 1239 m 1,0,-1
 838 -119 l 1,1,-1
 674 -119 l 1,2,-1
 16 1239 l 1,3,-1
 184 1239 l 1,0,-1
EndSplineSet
EndChar

StartChar: bracketright
Encoding: 93 93 38
Width: 428
GlyphClass: 2
Flags: W
LayerCount: 2
Fore
SplineSet
331 -259 m 1,0,-1
 16 -259 l 1,1,-1
 16 -81 l 1,2,-1
 169 -81 l 1,3,-1
 169 1328 l 1,4,-1
 16 1328 l 1,5,-1
 16 1496 l 1,6,-1
 331 1496 l 1,7,-1
 331 -259 l 1,0,-1
EndSplineSet
EndChar

StartChar: asciicircum
Encoding: 94 94 39
Width: 719
GlyphClass: 2
Flags: W
LayerCount: 2
Fore
SplineSet
180 450 m 1,0,-1
 43 450 l 1,1,-1
 306 1234 l 1,2,-1
 414 1234 l 1,3,-1
 674 450 l 1,4,-1
 540 450 l 1,5,-1
 358 1032 l 1,6,-1
 180 450 l 1,0,-1
EndSplineSet
EndChar

StartChar: underscore
Encoding: 95 95 40
Width: 1192
GlyphClass: 2
Flags: W
LayerCount: 2
Fore
SplineSet
108 -333 m 1,0,-1
 108 -226 l 1,1,-1
 1083 -226 l 1,2,-1
 1083 -333 l 1,3,-1
 108 -333 l 1,0,-1
EndSplineSet
EndChar

StartChar: braceleft
Encoding: 123 123 41
Width: 623
GlyphClass: 2
Flags: W
LayerCount: 2
Fore
SplineSet
124 705 m 1,0,1
 178 705 178 705 213.5 737.5 c 128,-1,2
 249 770 249 770 260 823 c 1,3,-1
 260 820 l 1,4,-1
 265 921 l 2,5,6
 267 948 267 948 269 977.5 c 128,-1,7
 271 1007 271 1007 273 1034 c 0,8,9
 273 1111 273 1111 274 1164.5 c 128,-1,10
 275 1218 275 1218 277 1247 c 0,11,12
 279 1277 279 1277 284.5 1305.5 c 128,-1,13
 290 1334 290 1334 299 1358 c 0,14,15
 318 1407 318 1407 345 1437.5 c 128,-1,16
 372 1468 372 1468 420 1485 c 0,17,18
 460 1500 460 1500 518 1500 c 2,19,-1
 578 1500 l 1,20,-1
 578 1319 l 1,21,-1
 533 1319 l 2,22,23
 473 1319 473 1319 451 1287 c 1,24,-1
 452 1288 l 1,25,26
 432 1259 432 1259 432 1151 c 2,27,-1
 432 960 l 1,28,-1
 429 892 l 2,29,30
 429 867 429 867 423 851 c 0,31,32
 417 804 417 804 404.5 764.5 c 128,-1,33
 392 725 392 725 376 698 c 0,34,35
 363 678 363 678 342 655.5 c 128,-1,36
 321 633 321 633 297 613 c 1,37,38
 363 567 363 567 394 494 c 0,39,40
 412 449 412 449 422 376 c 128,-1,41
 432 303 432 303 432 203 c 2,42,-1
 434 -5 l 2,43,44
 437 -58 437 -58 454 -78 c 1,45,-1
 482 -93 l 1,46,47
 501 -97 501 -97 533 -97 c 2,48,-1
 578 -97 l 1,49,-1
 578 -275 l 1,50,-1
 518 -275 l 2,51,52
 442 -275 442 -275 409 -261 c 0,53,54
 363 -237 363 -237 324 -189 c 1,55,56
 298 -148 298 -148 281 -64 c 0,57,58
 277 -29 277 -29 275 31.5 c 128,-1,59
 273 92 273 92 273 177 c 0,60,61
 273 258 273 258 270 313.5 c 128,-1,62
 267 369 267 369 260 399 c 0,63,64
 248 454 248 454 220 485 c 1,65,66
 200 499 200 499 176.5 507 c 128,-1,67
 153 515 153 515 124 515 c 1,68,-1
 124 705 l 1,0,1
EndSplineSet
EndChar

StartChar: bar
Encoding: 124 124 42
Width: 313
GlyphClass: 2
Flags: W
LayerCount: 2
Fore
SplineSet
70 -259 m 1,0,-1
 70 1586 l 1,1,-1
 242 1586 l 1,2,-1
 239 -259 l 1,3,-1
 70 -259 l 1,0,-1
EndSplineSet
EndChar

StartChar: braceright
Encoding: 125 125 43
Width: 547
GlyphClass: 2
Flags: W
LayerCount: 2
Fore
SplineSet
489 517 m 1,0,1
 458 517 458 517 435 510 c 128,-1,2
 412 503 412 503 395 489 c 0,3,4
 379 472 379 472 368 451 c 128,-1,5
 357 430 357 430 351 401 c 0,6,7
 339 341 339 341 339 179 c 0,8,9
 339 11 339 11 330 -59 c 0,10,11
 316 -146 316 -146 289 -187 c 0,12,13
 270 -210 270 -210 248.5 -228.5 c 128,-1,14
 227 -247 227 -247 203 -259 c 0,15,16
 170 -273 170 -273 94 -273 c 2,17,-1
 33 -273 l 1,18,-1
 33 -95 l 1,19,-1
 79 -95 l 2,20,21
 96 -95 96 -95 108 -93.5 c 128,-1,22
 120 -92 120 -92 131 -90 c 2,23,-1
 158 -76 l 1,24,25
 176 -55 176 -55 179 -2 c 0,26,27
 179 49 179 49 180 101 c 128,-1,28
 181 153 181 153 181 205 c 0,29,30
 181 306 181 306 190 378.5 c 128,-1,31
 199 451 199 451 218 496 c 0,32,33
 252 572 252 572 315 615 c 1,34,35
 290 635 290 635 269 657.5 c 128,-1,36
 248 680 248 680 235 700 c 0,37,38
 219 726 219 726 207.5 767 c 128,-1,39
 196 808 196 808 188 853 c 0,40,41
 185 861 185 861 184.5 870.5 c 128,-1,42
 184 880 184 880 184 894 c 2,43,-1
 181 962 l 1,44,-1
 181 1153 l 2,45,46
 181 1261 181 1261 161 1290 c 1,47,-1
 162 1289 l 1,48,49
 140 1321 140 1321 79 1321 c 2,50,-1
 33 1321 l 1,51,-1
 33 1502 l 1,52,-1
 94 1502 l 2,53,54
 153 1502 153 1502 191 1487 c 0,55,56
 237 1470 237 1470 265.5 1439 c 128,-1,57
 294 1408 294 1408 311 1360 c 0,58,59
 321 1336 321 1336 326.5 1307.5 c 128,-1,60
 332 1279 332 1279 334 1249 c 0,61,62
 336 1220 336 1220 337.5 1166 c 128,-1,63
 339 1112 339 1112 339 1037 c 1,64,-1
 348 923 l 1,65,-1
 352 825 l 1,66,67
 364 773 364 773 399 740 c 128,-1,68
 434 707 434 707 489 707 c 1,69,-1
 489 517 l 1,0,1
EndSplineSet
EndChar

StartChar: asciitilde
Encoding: 126 126 44
Width: 1161
GlyphClass: 2
Flags: W
LayerCount: 2
Fore
SplineSet
1045 747 m 1,0,-1
 1086 747 l 1,1,2
 1082 571 1082 571 1014 469.5 c 128,-1,3
 946 368 946 368 850 368 c 0,4,5
 807 368 807 368 757.5 389 c 128,-1,6
 708 410 708 410 503 535 c 0,7,8
 356 620 356 620 294 620 c 0,9,10
 229 620 229 620 183.5 562 c 128,-1,11
 138 504 138 504 118 371 c 1,12,-1
 75 371 l 1,13,14
 83 557 83 557 148.5 654.5 c 128,-1,15
 214 752 214 752 302 752 c 0,16,17
 342 752 342 752 387 732 c 0,18,19
 484 691 484 691 642.5 592.5 c 128,-1,20
 801 494 801 494 867 494 c 0,21,22
 936 494 936 494 985 559.5 c 128,-1,23
 1034 625 1034 625 1045 747 c 1,0,-1
EndSplineSet
EndChar

StartChar: cent
Encoding: 162 162 45
Width: 721
GlyphClass: 2
Flags: W
LayerCount: 2
Fore
SplineSet
598 156 m 1,0,1
 537 71 537 71 467 31 c 128,-1,2
 397 -9 397 -9 304 -17 c 1,3,-1
 228 -265 l 1,4,-1
 187 -265 l 1,5,-1
 262 -17 l 1,6,7
 177 -8 177 -8 128.5 47 c 128,-1,8
 80 102 80 102 80 188 c 0,9,10
 80 345 80 345 191.5 478.5 c 128,-1,11
 303 612 303 612 457 638 c 1,12,-1
 541 917 l 1,13,-1
 580 917 l 1,14,-1
 499 638 l 1,15,16
 580 638 580 638 616.5 607 c 128,-1,17
 653 576 653 576 653 523 c 0,18,19
 653 482 653 482 631.5 455.5 c 128,-1,20
 610 429 610 429 580 429 c 0,21,22
 557 429 557 429 544 442 c 128,-1,23
 531 455 531 455 531 476 c 0,24,25
 531 491 531 491 536 502 c 128,-1,26
 541 513 541 513 560.5 534.5 c 128,-1,27
 580 556 580 556 580 570 c 0,28,29
 580 578 580 578 575 585 c 0,30,31
 565 596 565 596 549.5 601 c 128,-1,32
 534 606 534 606 489 606 c 1,33,-1
 322 49 l 1,34,-1
 352 47 l 1,35,36
 470 47 470 47 580 173 c 1,37,-1
 598 156 l 1,0,1
284 57 m 1,38,-1
 445 598 l 1,39,40
 383 570 383 570 342 533 c 0,41,42
 274 467 274 467 237 380.5 c 128,-1,43
 200 294 200 294 200 205 c 0,44,45
 200 146 200 146 224 108 c 0,46,47
 243 81 243 81 284 57 c 1,38,-1
EndSplineSet
EndChar

StartChar: multiply
Encoding: 215 215 46
Width: 975
GlyphClass: 2
Flags: W
LayerCount: 2
Fore
SplineSet
267 230 m 1,0,-1
 515 479 l 1,1,-1
 267 728 l 1,2,-1
 308 768 l 1,3,-1
 556 520 l 1,4,-1
 805 768 l 1,5,-1
 844 728 l 1,6,-1
 595 480 l 1,7,-1
 845 230 l 1,8,-1
 805 190 l 1,9,-1
 555 439 l 1,10,-1
 307 190 l 1,11,-1
 267 230 l 1,0,-1
EndSplineSet
EndChar

StartChar: divide
Encoding: 247 247 47
Width: 1090
GlyphClass: 2
Flags: W
LayerCount: 2
Fore
SplineSet
714 724 m 256,0,1
 714 652 714 652 663 601 c 128,-1,2
 612 550 612 550 540 550 c 256,3,4
 468 550 468 550 417 601 c 128,-1,5
 366 652 366 652 366 724 c 256,6,7
 366 796 366 796 417 847 c 128,-1,8
 468 898 468 898 540 898 c 256,9,10
 612 898 612 898 663 847 c 128,-1,11
 714 796 714 796 714 724 c 256,0,1
1006 424 m 0,12,13
 1006 384 1006 384 985 368 c 128,-1,14
 964 352 964 352 912 348 c 2,15,-1
 178 296 l 2,16,17
 84 290 84 290 84 364 c 0,18,19
 84 398 84 398 106 427 c 128,-1,20
 128 456 128 456 162 458 c 2,21,-1
 894 510 l 2,22,23
 940 514 940 514 973 487 c 128,-1,24
 1006 460 1006 460 1006 424 c 0,12,13
728 96 m 256,25,26
 728 24 728 24 677 -27 c 128,-1,27
 626 -78 626 -78 554 -78 c 256,28,29
 482 -78 482 -78 431 -27 c 128,-1,30
 380 24 380 24 380 96 c 256,31,32
 380 168 380 168 431 219 c 128,-1,33
 482 270 482 270 554 270 c 256,34,35
 626 270 626 270 677 219 c 128,-1,36
 728 168 728 168 728 96 c 256,25,26
EndSplineSet
EndChar

StartChar: tm_visarga
Encoding: 2947 2947 48
Width: 1106
GlyphClass: 2
Flags: W
LayerCount: 2
Fore
SplineSet
902 936 m 0,0,1
 902 576 902 576 652 576 c 0,2,3
 558 576 558 576 491 636 c 128,-1,4
 424 696 424 696 424 780 c 0,5,6
 424 898 424 898 552 1038 c 0,7,8
 672 1172 672 1172 758 1172 c 0,9,10
 902 1172 902 1172 902 936 c 0,0,1
1076 286 m 0,11,12
 1076 138 1076 138 1004 60 c 0,13,14
 938 -10 938 -10 836 -10 c 0,15,16
 740 -10 740 -10 673 48 c 128,-1,17
 606 106 606 106 606 198 c 0,18,19
 606 312 606 312 715 448 c 128,-1,20
 824 584 824 584 928 584 c 0,21,22
 1076 584 1076 584 1076 286 c 0,11,12
512 320 m 0,23,24
 512 -10 512 -10 254 -10 c 0,25,26
 158 -10 158 -10 94 51 c 128,-1,27
 30 112 30 112 30 198 c 0,28,29
 30 304 30 304 155 450 c 128,-1,30
 280 596 280 596 370 596 c 0,31,32
 444 596 444 596 482 500 c 0,33,34
 512 426 512 426 512 320 c 0,23,24
736 910 m 0,35,36
 736 938 736 938 732 986 c 1,37,38
 702 974 702 974 652 908 c 0,39,40
 596 834 596 834 596 790 c 0,41,42
 596 736 596 736 642 736 c 0,43,44
 736 736 736 736 736 910 c 0,35,36
910 294 m 0,45,46
 910 380 910 380 898 408 c 1,47,48
 872 390 872 390 830 332 c 0,49,50
 778 260 778 260 778 218 c 0,51,52
 778 152 778 152 826 152 c 0,53,54
 864 152 864 152 887 193 c 128,-1,55
 910 234 910 234 910 294 c 0,45,46
344 328 m 0,56,57
 344 404 344 404 340 418 c 1,58,59
 310 406 310 406 260 340 c 0,60,61
 204 266 204 266 204 210 c 0,62,63
 204 146 204 146 260 146 c 0,64,65
 344 146 344 146 344 328 c 0,56,57
EndSplineSet
EndChar

StartChar: tm_a
Encoding: 2949 2949 49
Width: 1622
GlyphClass: 2
Flags: W
LayerCount: 2
Fore
SplineSet
1552 4 m 2,0,1
 1552 -90 1552 -90 1468 -90 c 256,2,3
 1384 -90 1384 -90 1384 -16 c 2,4,-1
 1384 442 l 1,5,6
 1316 464 1316 464 1264 442 c 1,7,8
 1180 216 1180 216 964 34 c 0,9,10
 698 -196 698 -196 376 -196 c 0,11,12
 226 -196 226 -196 128 -113 c 128,-1,13
 30 -30 30 -30 30 114 c 0,14,15
 30 276 30 276 162 395 c 128,-1,16
 294 514 294 514 542 564 c 1,17,18
 578 796 578 796 734 920 c 0,19,20
 862 1024 862 1024 1020 1024 c 0,21,22
 1150 1024 1150 1024 1228 938 c 128,-1,23
 1306 852 1306 852 1306 696 c 0,24,25
 1306 660 1306 660 1302 622 c 1,26,27
 1336 628 1336 628 1384 616 c 1,28,-1
 1384 894 l 2,29,30
 1384 982 1384 982 1458 982 c 0,31,32
 1500 982 1500 982 1526 959 c 128,-1,33
 1552 936 1552 936 1552 904 c 2,34,-1
 1552 4 l 2,0,1
1108 616 m 1,35,36
 1114 652 1114 652 1114 684 c 0,37,38
 1114 850 1114 850 986 850 c 0,39,40
 878 850 878 850 798 736 c 0,41,42
 726 636 726 636 726 536 c 0,43,44
 726 484 726 484 756 484 c 0,45,46
 790 484 790 484 808 548 c 128,-1,47
 826 612 826 612 844 676 c 1,48,49
 872 742 872 742 926 742 c 0,50,51
 1006 742 1006 742 1006 662 c 0,52,53
 1006 642 1006 642 1002 614 c 1,54,55
 1060 624 1060 624 1108 616 c 1,35,36
1056 428 m 1,56,57
 994 438 994 438 924 426 c 1,58,59
 822 290 822 290 690 290 c 0,60,61
 598 290 598 290 552 376 c 1,62,63
 426 356 426 356 336 296 c 0,64,65
 224 220 224 220 224 114 c 0,66,67
 224 54 224 54 275 10 c 128,-1,68
 326 -34 326 -34 398 -34 c 0,69,70
 586 -34 586 -34 790 126 c 0,71,72
 964 262 964 262 1056 428 c 1,56,57
EndSplineSet
EndChar

StartChar: tm_aa
Encoding: 2950 2950 50
Width: 1964
GlyphClass: 2
Flags: W
LayerCount: 2
Fore
SplineSet
1954 302 m 0,0,1
 1954 64 1954 64 1744 -186 c 0,2,3
 1520 -452 1520 -452 1264 -452 c 0,4,5
 1140 -452 1140 -452 1068 -378 c 0,6,7
 1004 -310 1004 -310 1004 -202 c 0,8,9
 1004 -48 1004 -48 1072 48 c 0,10,11
 1134 138 1134 138 1222 138 c 0,12,13
 1244 138 1244 138 1262 116 c 128,-1,14
 1280 94 1280 94 1280 70 c 0,15,16
 1280 26 1280 26 1227 -38 c 128,-1,17
 1174 -102 1174 -102 1174 -168 c 0,18,19
 1174 -304 1174 -304 1286 -304 c 0,20,21
 1346 -304 1346 -304 1446 -248 c 0,22,23
 1558 -186 1558 -186 1635 -100 c 128,-1,24
 1712 -14 1712 -14 1762 93 c 128,-1,25
 1812 200 1812 200 1812 276 c 0,26,27
 1812 322 1812 322 1770 322 c 0,28,29
 1708 322 1708 322 1646 239 c 128,-1,30
 1584 156 1584 156 1550 34 c 1,31,-1
 1550 -40 l 2,32,33
 1550 -86 1550 -86 1529 -118 c 128,-1,34
 1508 -150 1508 -150 1472 -150 c 0,35,36
 1388 -150 1388 -150 1388 -90 c 2,37,-1
 1388 442 l 1,38,39
 1358 446 1358 446 1326 446 c 256,40,41
 1294 446 1294 446 1268 442 c 1,42,43
 1210 244 1210 244 982 46 c 0,44,45
 702 -196 702 -196 382 -196 c 0,46,47
 230 -196 230 -196 134 -116 c 0,48,49
 30 -32 30 -32 30 112 c 0,50,51
 30 302 30 302 186 424 c 0,52,53
 322 532 322 532 552 572 c 1,54,55
 570 780 570 780 712 904 c 0,56,57
 844 1018 844 1018 1028 1018 c 0,58,59
 1156 1018 1156 1018 1232 942 c 0,60,61
 1316 862 1316 862 1316 714 c 0,62,63
 1316 668 1316 668 1306 614 c 1,64,65
 1340 618 1340 618 1388 608 c 1,66,-1
 1388 890 l 2,67,68
 1388 974 1388 974 1474 974 c 0,69,70
 1550 974 1550 974 1550 898 c 2,71,-1
 1550 328 l 1,72,73
 1642 490 1642 490 1806 490 c 0,74,75
 1954 490 1954 490 1954 302 c 0,0,1
1112 610 m 1,76,77
 1118 648 1118 648 1118 682 c 0,78,79
 1118 844 1118 844 986 844 c 0,80,81
 878 844 878 844 798 736 c 0,82,83
 726 638 726 638 726 540 c 0,84,85
 726 480 726 480 756 480 c 0,86,87
 790 480 790 480 809 544 c 128,-1,88
 828 608 828 608 844 670 c 1,89,90
 872 736 872 736 928 736 c 0,91,92
 970 736 970 736 982 728 c 0,93,94
 1006 712 1006 712 1006 658 c 0,95,96
 1006 638 1006 638 1004 614 c 1,97,98
 1048 618 1048 618 1112 610 c 1,76,77
1060 430 m 1,99,100
 1000 432 1000 432 928 430 c 1,101,102
 844 296 844 296 704 296 c 0,103,104
 604 296 604 296 558 384 c 1,105,106
 432 364 432 364 336 302 c 0,107,108
 220 224 220 224 220 118 c 0,109,110
 220 56 220 56 271 9 c 128,-1,111
 322 -38 322 -38 402 -38 c 0,112,113
 588 -38 588 -38 792 124 c 0,114,115
 966 262 966 262 1060 430 c 1,99,100
EndSplineSet
EndChar

StartChar: tm_i
Encoding: 2951 2951 51
Width: 1582
GlyphClass: 2
Flags: W
LayerCount: 2
Fore
SplineSet
1552 764 m 0,0,1
 1552 678 1552 678 1478 678 c 0,2,3
 1386 678 1386 678 1386 770 c 0,4,5
 1386 894 1386 894 1263 976 c 128,-1,6
 1140 1058 1140 1058 970 1058 c 0,7,8
 704 1058 704 1058 560 894 c 0,9,10
 432 746 432 746 424 506 c 1,11,12
 484 518 484 518 516 526 c 1,13,14
 548 730 548 730 682 844 c 0,15,16
 802 946 802 946 962 946 c 0,17,18
 1090 946 1090 946 1164 860 c 0,19,20
 1232 780 1232 780 1232 652 c 0,21,22
 1232 612 1232 612 1226 572 c 1,23,24
 1364 550 1364 550 1452 462 c 128,-1,25
 1540 374 1540 374 1540 240 c 0,26,27
 1540 42 1540 42 1364 -82 c 0,28,29
 1210 -190 1210 -190 1012 -190 c 0,30,31
 920 -190 920 -190 812 -164 c 0,32,33
 740 -144 740 -144 668 -124 c 1,34,35
 518 -190 518 -190 388 -190 c 0,36,37
 234 -190 234 -190 132 -109 c 128,-1,38
 30 -28 30 -28 30 104 c 0,39,40
 30 322 30 322 264 444 c 1,41,42
 248 784 248 784 448 1003 c 128,-1,43
 648 1222 648 1222 982 1222 c 0,44,45
 1258 1222 1258 1222 1418 1066 c 0,46,47
 1552 934 1552 934 1552 764 c 0,0,1
1048 578 m 1,48,49
 1052 608 1052 608 1052 634 c 0,50,51
 1052 780 1052 780 928 780 c 0,52,53
 822 780 822 780 746 668 c 0,54,55
 682 576 682 576 682 498 c 0,56,57
 682 450 682 450 682 456 c 1,58,59
 684 434 684 434 706 434 c 0,60,61
 744 434 744 434 760 496 c 128,-1,62
 776 558 776 558 792 618 c 1,63,64
 818 682 818 682 874 682 c 0,65,66
 942 682 942 682 942 620 c 0,67,68
 942 602 942 602 938 578 c 1,69,-1
 1048 578 l 1,48,49
1352 226 m 0,70,71
 1352 296 1352 296 1306 346 c 128,-1,72
 1260 396 1260 396 1184 402 c 1,73,74
 1118 174 1118 174 866 -6 c 1,75,76
 926 -30 926 -30 1000 -30 c 0,77,78
 1136 -30 1136 -30 1240 40 c 0,79,80
 1352 116 1352 116 1352 226 c 0,70,71
992 392 m 1,81,-1
 866 392 l 1,82,83
 844 352 844 352 786 310 c 0,84,85
 722 264 722 264 672 264 c 0,86,87
 568 264 568 264 522 350 c 1,88,-1
 470 350 l 1,89,90
 484 256 484 256 556 166 c 0,91,92
 616 92 616 92 678 60 c 1,93,94
 874 180 874 180 992 392 c 1,81,-1
518 -10 m 1,95,96
 338 110 338 110 308 268 c 1,97,98
 206 196 206 196 206 118 c 0,99,100
 206 52 206 52 250 8 c 128,-1,101
 294 -36 294 -36 368 -36 c 0,102,103
 440 -36 440 -36 518 -10 c 1,95,96
EndSplineSet
EndChar

StartChar: tm_ii
Encoding: 2952 2952 52
Width: 1238
GlyphClass: 2
Flags: W
LayerCount: 2
Fore
SplineSet
1208 282 m 0,0,1
 1208 186 1208 186 1139 118 c 128,-1,2
 1070 50 1070 50 970 50 c 0,3,4
 906 50 906 50 842 82 c 1,5,-1
 1064 516 l 1,6,7
 1208 450 1208 450 1208 282 c 0,0,1
1196 684 m 0,8,9
 1196 608 1196 608 1114 608 c 2,10,-1
 990 608 l 1,11,-1
 712 36 l 2,12,13
 684 -22 684 -22 606 -22 c 0,14,15
 534 -22 534 -22 534 54 c 0,16,17
 534 74 534 74 542 92 c 2,18,-1
 786 608 l 1,19,-1
 414 608 l 2,20,21
 204 608 204 608 204 410 c 0,22,23
 204 326 204 326 233 258 c 128,-1,24
 262 190 262 190 262 164 c 0,25,26
 262 78 262 78 168 78 c 0,27,28
 122 78 122 78 78 158 c 0,29,30
 30 248 30 248 30 384 c 0,31,32
 30 768 30 768 434 768 c 2,33,-1
 1100 768 l 2,34,35
 1196 768 1196 768 1196 684 c 0,8,9
648 528 m 1,36,-1
 422 92 l 1,37,38
 346 140 346 140 318 188 c 128,-1,39
 290 236 290 236 290 310 c 0,40,41
 290 412 290 412 356 482 c 128,-1,42
 422 552 422 552 526 552 c 0,43,44
 584 552 584 552 648 528 c 1,36,-1
EndSplineSet
EndChar

StartChar: tm_u
Encoding: 2953 2953 53
Width: 1230
GlyphClass: 2
Flags: W
LayerCount: 2
Fore
SplineSet
1216 98 m 0,0,1
 1216 60 1216 60 1187 30 c 128,-1,2
 1158 0 1158 0 1114 0 c 2,3,-1
 328 0 l 2,4,5
 212 0 212 0 130 38 c 0,6,7
 30 86 30 86 30 178 c 0,8,9
 30 286 30 286 140 400 c 0,10,11
 184 446 184 446 370 592 c 0,12,13
 634 800 634 800 634 942 c 0,14,15
 634 1054 634 1054 512 1054 c 0,16,17
 406 1054 406 1054 316 972 c 128,-1,18
 226 890 226 890 226 810 c 0,19,20
 226 768 226 768 254 768 c 0,21,22
 294 768 294 768 320 828 c 0,23,24
 340 884 340 884 360 942 c 1,25,26
 388 1002 388 1002 442 1002 c 0,27,28
 472 1002 472 1002 496 976 c 128,-1,29
 520 950 520 950 520 920 c 0,30,31
 520 802 520 802 418 698 c 0,32,33
 322 602 322 602 232 602 c 0,34,35
 152 602 152 602 101 652 c 128,-1,36
 50 702 50 702 50 790 c 0,37,38
 50 964 50 964 206 1096 c 0,39,40
 356 1222 356 1222 542 1222 c 0,41,42
 670 1222 670 1222 742 1159 c 128,-1,43
 814 1096 814 1096 814 990 c 0,44,45
 814 762 814 762 542 528 c 0,46,47
 326 342 326 342 324 340 c 0,48,49
 230 252 230 252 230 218 c 0,50,51
 230 202 230 202 264 190 c 0,52,53
 292 178 292 178 326 178 c 2,54,-1
 1136 178 l 2,55,56
 1216 178 1216 178 1216 98 c 0,0,1
EndSplineSet
EndChar

StartChar: tm_uu
Encoding: 2954 2954 54
Width: 1860
GlyphClass: 2
Flags: W
LayerCount: 2
Fore
SplineSet
1608 306 m 2,0,1
 1610 282 1610 282 1589 265 c 128,-1,2
 1568 248 1568 248 1536 248 c 0,3,4
 1472 248 1472 248 1468 288 c 2,5,-1
 1434 646 l 2,6,7
 1430 684 1430 684 1426 684 c 0,8,9
 1420 684 1420 684 1408 646 c 2,10,-1
 1320 376 l 2,11,12
 1306 330 1306 330 1270 330 c 0,13,14
 1204 330 1204 330 1190 390 c 2,15,-1
 1130 664 l 2,16,17
 1126 692 1126 692 1114 692 c 0,18,19
 1078 692 1078 692 991 581 c 128,-1,20
 904 470 904 470 904 416 c 0,21,22
 904 378 904 378 926 378 c 0,23,24
 942 378 942 378 967 472 c 128,-1,25
 992 566 992 566 1040 566 c 0,26,27
 1100 566 1100 566 1100 488 c 0,28,29
 1100 406 1100 406 1048 338 c 0,30,31
 986 254 986 254 886 254 c 0,32,33
 752 254 752 254 752 368 c 0,34,35
 752 502 752 502 899 676 c 128,-1,36
 1046 850 1046 850 1148 850 c 0,37,38
 1218 850 1218 850 1236 774 c 2,39,-1
 1270 630 l 1,40,-1
 1336 784 l 2,41,42
 1364 850 1364 850 1450 850 c 0,43,44
 1490 850 1490 850 1522 820 c 128,-1,45
 1554 790 1554 790 1560 742 c 2,46,-1
 1608 306 l 2,0,1
1846 96 m 0,47,48
 1846 58 1846 58 1812 29 c 128,-1,49
 1778 0 1778 0 1720 0 c 2,50,-1
 314 0 l 2,51,52
 30 0 30 0 30 174 c 0,53,54
 30 290 30 290 142 406 c 0,55,56
 192 460 192 460 378 604 c 0,57,58
 636 806 636 806 636 946 c 0,59,60
 636 1054 636 1054 510 1054 c 0,61,62
 406 1054 406 1054 312 968 c 0,63,64
 226 888 226 888 226 814 c 0,65,66
 226 768 226 768 254 768 c 0,67,68
 298 768 298 768 338 885 c 128,-1,69
 378 1002 378 1002 442 1002 c 0,70,71
 474 1002 474 1002 496 977 c 128,-1,72
 518 952 518 952 518 920 c 0,73,74
 518 790 518 790 416 692 c 0,75,76
 322 604 322 604 228 604 c 0,77,78
 158 604 158 604 110 644 c 0,79,80
 50 696 50 696 50 796 c 0,81,82
 50 964 50 964 202 1093 c 128,-1,83
 354 1222 354 1222 534 1222 c 0,84,85
 814 1222 814 1222 814 984 c 0,86,87
 814 760 814 760 552 538 c 0,88,89
 230 266 230 266 230 224 c 0,90,91
 230 180 230 180 306 180 c 2,92,-1
 1736 180 l 2,93,94
 1794 180 1794 180 1816 166 c 0,95,96
 1846 148 1846 148 1846 96 c 0,47,48
EndSplineSet
EndChar

StartChar: tm_e
Encoding: 2958 2958 55
Width: 1248
GlyphClass: 2
Flags: W
LayerCount: 2
Fore
SplineSet
1256 682 m 0,0,1
 1256 654 1256 654 1232 628 c 128,-1,2
 1208 602 1208 602 1180 602 c 2,3,-1
 1036 602 l 1,4,-1
 748 42 l 2,5,6
 720 -12 720 -12 642 -12 c 0,7,8
 608 -12 608 -12 587 12 c 128,-1,9
 566 36 566 36 566 68 c 0,10,11
 566 86 566 86 574 100 c 2,12,-1
 842 606 l 1,13,14
 700 614 700 614 544 538 c 0,15,16
 414 472 414 472 319 375 c 128,-1,17
 224 278 224 278 224 218 c 0,18,19
 224 180 224 180 254 180 c 0,20,21
 312 180 312 180 345 285 c 128,-1,22
 378 390 378 390 444 390 c 0,23,24
 480 390 480 390 501 362 c 128,-1,25
 522 334 522 334 522 300 c 0,26,27
 522 198 522 198 428 102 c 0,28,29
 328 0 328 0 208 0 c 0,30,31
 30 0 30 0 30 164 c 0,32,33
 30 294 30 294 150 448 c 0,34,35
 262 586 262 586 404 664 c 0,36,37
 496 714 496 714 630 744 c 0,38,39
 744 768 744 768 832 768 c 2,40,-1
 1164 768 l 2,41,42
 1256 768 1256 768 1256 682 c 0,0,1
EndSplineSet
EndChar

StartChar: tm_ee
Encoding: 2959 2959 56
Width: 1248
GlyphClass: 2
Flags: W
LayerCount: 2
Fore
SplineSet
1262 688 m 0,0,1
 1262 666 1262 666 1240 639 c 128,-1,2
 1218 612 1218 612 1190 608 c 2,3,-1
 1136 602 l 2,4,5
 1088 596 1088 596 1024 498 c 2,6,-1
 604 -142 l 2,7,8
 526 -262 526 -262 368 -364 c 0,9,10
 200 -474 200 -474 64 -474 c 0,11,12
 16 -474 16 -474 -16 -450 c 0,13,14
 -54 -424 -54 -424 -54 -378 c 0,15,16
 -54 -286 -54 -286 58 -286 c 0,17,18
 142 -286 142 -286 261 -220 c 128,-1,19
 380 -154 380 -154 470 -50 c 0,20,21
 554 46 554 46 910 612 c 1,22,23
 708 630 708 630 486 506 c 0,24,25
 390 452 390 452 307 361 c 128,-1,26
 224 270 224 270 224 218 c 0,27,28
 224 180 224 180 260 180 c 0,29,30
 292 180 292 180 308 200 c 0,31,32
 316 212 316 212 334 257 c 128,-1,33
 352 302 352 302 368 348 c 1,34,35
 390 388 390 388 442 388 c 0,36,37
 522 388 522 388 522 306 c 0,38,39
 522 186 522 186 433 93 c 128,-1,40
 344 0 344 0 224 0 c 0,41,42
 118 0 118 0 74 41 c 128,-1,43
 30 82 30 82 30 182 c 0,44,45
 30 340 30 340 182 496 c 0,46,47
 322 640 322 640 504 698 c 0,48,49
 722 768 722 768 866 768 c 2,50,-1
 1180 768 l 2,51,52
 1262 768 1262 768 1262 688 c 0,0,1
EndSplineSet
EndChar

StartChar: tm_ai
Encoding: 2960 2960 57
Width: 1164
GlyphClass: 2
Flags: W
LayerCount: 2
Fore
SplineSet
1134 594 m 0,0,1
 1134 316 1134 316 700 116 c 1,2,3
 502 32 502 32 302 -54 c 1,4,5
 112 -146 112 -146 112 -244 c 0,6,7
 112 -324 112 -324 176 -324 c 0,8,9
 264 -324 264 -324 536 -74 c 1,10,11
 560 -24 560 -24 572 -10 c 0,12,13
 596 16 596 16 638 16 c 0,14,15
 720 16 720 16 720 -94 c 2,16,-1
 720 -276 l 1,17,-1
 966 138 l 2,18,19
 982 164 982 164 1018 164 c 0,20,21
 1052 164 1052 164 1082 140 c 128,-1,22
 1112 116 1112 116 1112 82 c 0,23,24
 1112 62 1112 62 1100 40 c 2,25,-1
 780 -502 l 2,26,27
 736 -578 736 -578 676 -578 c 0,28,29
 574 -578 574 -578 570 -492 c 2,30,-1
 558 -268 l 1,31,32
 480 -358 480 -358 364 -426 c 128,-1,33
 248 -494 248 -494 172 -494 c 0,34,35
 50 -494 50 -494 -16 -422 c 0,36,37
 -78 -356 -78 -356 -78 -250 c 0,38,39
 -78 -92 -78 -92 110 22 c 0,40,41
 164 56 164 56 504 202 c 0,42,43
 946 392 946 392 946 564 c 0,44,45
 946 612 946 612 904 612 c 256,46,47
 862 612 862 612 803 567 c 128,-1,48
 744 522 744 522 708 466 c 1,49,50
 684 414 684 414 658 362 c 0,51,52
 628 304 628 304 576 304 c 0,53,54
 510 304 510 304 486 366 c 2,55,-1
 390 620 l 1,56,-1
 230 386 l 2,57,58
 218 368 218 368 220 344 c 256,59,60
 222 320 222 320 236 320 c 0,61,62
 258 320 258 320 286 395 c 128,-1,63
 314 470 314 470 374 470 c 0,64,65
 400 470 400 470 418 445 c 128,-1,66
 436 420 436 420 436 390 c 0,67,68
 436 306 436 306 358 226 c 128,-1,69
 280 146 280 146 198 146 c 0,70,71
 32 146 32 146 32 316 c 0,72,73
 32 400 32 400 90 480 c 2,74,-1
 246 696 l 2,75,76
 270 730 270 730 316 760 c 128,-1,77
 362 790 362 790 402 790 c 0,78,79
 496 790 496 790 524 724 c 2,80,-1
 596 558 l 1,81,82
 750 790 750 790 954 790 c 0,83,84
 1134 790 1134 790 1134 594 c 0,0,1
EndSplineSet
EndChar

StartChar: tm_o
Encoding: 2962 2962 58
Width: 1116
GlyphClass: 2
Flags: W
LayerCount: 2
Fore
SplineSet
1086 650 m 0,0,1
 1086 516 1086 516 988 401 c 128,-1,2
 890 286 890 286 768 286 c 0,3,4
 736 286 736 286 704 296 c 1,5,6
 720 202 720 202 858 152 c 0,7,8
 900 138 900 138 944 122 c 1,9,10
 982 102 982 102 982 58 c 0,11,12
 982 -24 982 -24 890 -24 c 0,13,14
 842 -24 842 -24 806 6 c 1,15,16
 654 -250 654 -250 428 -250 c 0,17,18
 304 -250 304 -250 218 -171 c 128,-1,19
 132 -92 132 -92 132 28 c 0,20,21
 132 226 132 226 256 226 c 0,22,23
 320 226 320 226 320 142 c 0,24,25
 320 130 320 130 317 87 c 128,-1,26
 314 44 314 44 314 24 c 0,27,28
 314 -30 314 -30 355 -69 c 128,-1,29
 396 -108 396 -108 454 -108 c 0,30,31
 532 -108 532 -108 590 -24 c 0,32,33
 624 32 624 32 658 90 c 1,34,35
 516 190 516 190 516 432 c 0,36,37
 516 582 516 582 544 640 c 128,-1,38
 572 698 572 698 632 698 c 0,39,40
 658 698 658 698 681 673 c 128,-1,41
 704 648 704 648 704 624 c 0,42,43
 704 616 704 616 698 580 c 128,-1,44
 692 544 692 544 692 520 c 0,45,46
 692 440 692 440 764 440 c 0,47,48
 838 440 838 440 878 514 c 0,49,50
 910 576 910 576 910 670 c 0,51,52
 910 782 910 782 832 838 c 0,53,54
 766 884 766 884 660 884 c 0,55,56
 482 884 482 884 340 766 c 128,-1,57
 198 648 198 648 198 494 c 0,58,59
 198 450 198 450 236 450 c 0,60,61
 280 450 280 450 291 514 c 128,-1,62
 302 578 302 578 312 642 c 1,63,64
 332 708 332 708 392 708 c 0,65,66
 432 708 432 708 454 666 c 128,-1,67
 476 624 476 624 476 570 c 0,68,69
 476 474 476 474 402 378 c 0,70,71
 318 270 318 270 210 270 c 0,72,73
 126 270 126 270 78 329 c 128,-1,74
 30 388 30 388 30 494 c 0,75,76
 30 694 30 694 212 858 c 0,77,78
 404 1032 404 1032 670 1032 c 0,79,80
 846 1032 846 1032 960 938 c 0,81,82
 1086 832 1086 832 1086 650 c 0,0,1
EndSplineSet
EndChar

StartChar: tm_oo
Encoding: 2963 2963 59
Width: 1114
GlyphClass: 2
Flags: W
LayerCount: 2
Fore
SplineSet
1084 628 m 0,0,1
 1084 494 1084 494 998 388 c 128,-1,2
 912 282 912 282 788 282 c 0,3,4
 742 282 742 282 696 298 c 1,5,6
 706 192 706 192 850 138 c 0,7,8
 894 122 894 122 938 108 c 1,9,10
 980 86 980 86 980 40 c 0,11,12
 980 -44 980 -44 886 -44 c 0,13,14
 840 -44 840 -44 804 -22 c 1,15,16
 714 -150 714 -150 630 -206 c 0,17,18
 534 -270 534 -270 412 -270 c 0,19,20
 104 -270 104 -270 104 -10 c 0,21,22
 104 78 104 78 170 146 c 128,-1,23
 236 214 236 214 332 214 c 0,24,25
 526 214 526 214 526 38 c 0,26,27
 526 -58 526 -58 438 -58 c 0,28,29
 374 -58 374 -58 374 -10 c 0,30,31
 374 60 374 60 334 60 c 0,32,33
 276 60 276 60 276 -16 c 0,34,35
 276 -58 276 -58 311 -89 c 128,-1,36
 346 -120 346 -120 406 -120 c 0,37,38
 490 -120 490 -120 570 -40 c 0,39,40
 638 28 638 28 644 82 c 1,41,42
 514 180 514 180 514 412 c 0,43,44
 514 556 514 556 537 615 c 128,-1,45
 560 674 560 674 624 674 c 0,46,47
 650 674 650 674 672 650 c 128,-1,48
 694 626 694 626 694 602 c 0,49,50
 694 596 694 596 690 566 c 128,-1,51
 686 536 686 536 686 516 c 0,52,53
 686 474 686 474 710 450 c 128,-1,54
 734 426 734 426 764 426 c 0,55,56
 836 426 836 426 874 508 c 0,57,58
 906 570 906 570 906 648 c 0,59,60
 906 746 906 746 827 804 c 128,-1,61
 748 862 748 862 644 862 c 0,62,63
 470 862 470 862 334 745 c 128,-1,64
 198 628 198 628 198 474 c 0,65,66
 198 422 198 422 236 422 c 0,67,68
 280 422 280 422 290 488 c 128,-1,69
 300 554 300 554 310 618 c 1,70,71
 330 686 330 686 390 686 c 0,72,73
 468 686 468 686 468 548 c 0,74,75
 468 438 468 438 394 348 c 0,76,77
 316 252 316 252 206 252 c 0,78,79
 30 252 30 252 30 470 c 256,80,81
 30 688 30 688 221 849 c 128,-1,82
 412 1010 412 1010 658 1010 c 0,83,84
 834 1010 834 1010 952 914 c 0,85,86
 1084 808 1084 808 1084 628 c 0,0,1
EndSplineSet
EndChar

StartChar: tm_au
Encoding: 2964 2964 60
Width: 2148
GlyphClass: 2
Flags: W
LayerCount: 2
Fore
SplineSet
2166 -180 m 2,0,1
 2172 -216 2172 -216 2143 -245 c 128,-1,2
 2114 -274 2114 -274 2076 -274 c 0,3,4
 2000 -274 2000 -274 1988 -204 c 2,5,-1
 1858 586 l 1,6,-1
 1744 156 l 2,7,8
 1728 96 1728 96 1676 96 c 0,9,10
 1606 96 1606 96 1590 152 c 2,11,-1
 1470 558 l 1,12,13
 1410 532 1410 532 1316 386 c 128,-1,14
 1222 240 1222 240 1222 174 c 0,15,16
 1222 130 1222 130 1256 130 c 0,17,18
 1278 130 1278 130 1298 240 c 0,19,20
 1324 378 1324 378 1388 378 c 0,21,22
 1470 378 1470 378 1470 268 c 0,23,24
 1470 144 1470 144 1395 52 c 128,-1,25
 1320 -40 1320 -40 1214 -40 c 0,26,27
 1140 -40 1140 -40 1094 -2 c 0,28,29
 1038 40 1038 40 1038 122 c 0,30,31
 1038 284 1038 284 1200 516 c 0,32,33
 1368 758 1368 758 1508 758 c 0,34,35
 1584 758 1584 758 1602 696 c 2,36,-1
 1664 492 l 1,37,-1
 1734 694 l 2,38,39
 1766 784 1766 784 1874 784 c 0,40,41
 1996 784 1996 784 2026 612 c 2,42,-1
 2166 -180 l 2,0,1
1086 630 m 0,43,44
 1086 496 1086 496 988 381 c 128,-1,45
 890 266 890 266 768 266 c 0,46,47
 736 266 736 266 704 276 c 1,48,49
 720 182 720 182 858 132 c 0,50,51
 900 118 900 118 944 102 c 1,52,53
 982 82 982 82 982 38 c 0,54,55
 982 -44 982 -44 890 -44 c 0,56,57
 842 -44 842 -44 806 -14 c 1,58,59
 654 -270 654 -270 428 -270 c 0,60,61
 304 -270 304 -270 218 -191 c 128,-1,62
 132 -112 132 -112 132 8 c 0,63,64
 132 206 132 206 256 206 c 0,65,66
 320 206 320 206 320 122 c 0,67,68
 320 110 320 110 317 67 c 128,-1,69
 314 24 314 24 314 4 c 0,70,71
 314 -50 314 -50 355 -89 c 128,-1,72
 396 -128 396 -128 454 -128 c 0,73,74
 532 -128 532 -128 590 -44 c 0,75,76
 624 12 624 12 658 70 c 1,77,78
 516 170 516 170 516 412 c 0,79,80
 516 562 516 562 544 620 c 128,-1,81
 572 678 572 678 632 678 c 0,82,83
 658 678 658 678 681 653 c 128,-1,84
 704 628 704 628 704 604 c 0,85,86
 704 596 704 596 698 560 c 128,-1,87
 692 524 692 524 692 500 c 0,88,89
 692 420 692 420 764 420 c 0,90,91
 838 420 838 420 878 494 c 0,92,93
 910 556 910 556 910 650 c 0,94,95
 910 762 910 762 832 818 c 0,96,97
 766 864 766 864 660 864 c 0,98,99
 482 864 482 864 340 746 c 128,-1,100
 198 628 198 628 198 474 c 0,101,102
 198 430 198 430 236 430 c 0,103,104
 280 430 280 430 291 494 c 128,-1,105
 302 558 302 558 312 622 c 1,106,107
 332 688 332 688 392 688 c 0,108,109
 432 688 432 688 454 646 c 128,-1,110
 476 604 476 604 476 550 c 0,111,112
 476 454 476 454 402 358 c 0,113,114
 318 250 318 250 210 250 c 0,115,116
 126 250 126 250 78 309 c 128,-1,117
 30 368 30 368 30 474 c 0,118,119
 30 674 30 674 212 838 c 0,120,121
 404 1012 404 1012 670 1012 c 0,122,123
 846 1012 846 1012 960 918 c 0,124,125
 1086 812 1086 812 1086 630 c 0,43,44
EndSplineSet
EndChar

StartChar: tm_ka
Encoding: 2965 2965 61
Width: 1186
GlyphClass: 2
Flags: W
LayerCount: 2
Fore
SplineSet
1156 360 m 0,0,1
 1156 206 1156 206 938 64 c 0,2,3
 740 -66 740 -66 582 -66 c 0,4,5
 464 -66 464 -66 464 6 c 0,6,7
 464 48 464 48 514 86 c 1,8,9
 622 70 622 70 786 155 c 128,-1,10
 950 240 950 240 950 310 c 0,11,12
 950 352 950 352 900 378 c 0,13,14
 858 398 858 398 802 398 c 0,15,16
 752 398 752 398 728 376 c 1,17,18
 426 -32 426 -32 190 -32 c 0,19,20
 124 -32 124 -32 77 11 c 128,-1,21
 30 54 30 54 30 108 c 0,22,23
 30 258 30 258 178 372 c 0,24,25
 346 500 346 500 662 534 c 1,26,-1
 760 630 l 1,27,-1
 574 630 l 1,28,29
 580 602 580 602 543 562 c 128,-1,30
 506 522 506 522 472 522 c 0,31,32
 364 522 364 522 364 628 c 0,33,34
 364 680 364 680 416 724 c 128,-1,35
 468 768 468 768 524 768 c 2,36,-1
 992 768 l 2,37,38
 1078 768 1078 768 1078 706 c 0,39,40
 1078 638 1078 638 988 604 c 0,41,42
 892 570 892 570 886 532 c 1,43,44
 986 542 986 542 1066 498 c 0,45,46
 1156 448 1156 448 1156 360 c 0,0,1
524 364 m 1,47,48
 392 338 392 338 299 275 c 128,-1,49
 206 212 206 212 206 162 c 0,50,51
 206 130 206 130 240 130 c 0,52,53
 270 130 270 130 370 210 c 128,-1,54
 470 290 470 290 524 364 c 1,47,48
EndSplineSet
EndChar

StartChar: tm_nga
Encoding: 2969 2969 62
Width: 1492
GlyphClass: 2
Flags: W
LayerCount: 2
Fore
SplineSet
1550 930 m 0,0,1
 1550 910 1550 910 1508 828 c 2,2,-1
 1128 94 l 2,3,4
 1066 -24 1066 -24 948 -32 c 2,5,-1
 606 -54 l 2,6,7
 570 -56 570 -56 542 -28 c 128,-1,8
 514 0 514 0 514 36 c 0,9,10
 514 94 514 94 554 116 c 1,11,12
 602 134 602 134 652 152 c 0,13,14
 722 182 722 182 722 272 c 0,15,16
 722 352 722 352 652 352 c 0,17,18
 574 352 574 352 518 258 c 1,19,20
 478 170 478 170 436 80 c 1,21,22
 384 -14 384 -14 318 -14 c 0,23,24
 282 -14 282 -14 255 7 c 128,-1,25
 228 28 228 28 228 62 c 0,26,27
 228 88 228 88 338 300 c 0,28,29
 462 540 462 540 484 600 c 1,30,31
 448 604 448 604 418 604 c 0,32,33
 212 604 212 604 212 456 c 0,34,35
 212 406 212 406 232 359 c 128,-1,36
 252 312 252 312 252 292 c 0,37,38
 252 220 252 220 156 220 c 0,39,40
 98 220 98 220 62 274 c 0,41,42
 30 322 30 322 30 388 c 0,43,44
 30 586 30 586 146 684 c 0,45,46
 244 768 244 768 410 768 c 2,47,-1
 814 768 l 2,48,49
 852 768 852 768 874 742 c 128,-1,50
 896 716 896 716 896 686 c 0,51,52
 896 648 896 648 866 624 c 128,-1,53
 836 600 836 600 794 600 c 2,54,-1
 680 600 l 1,55,-1
 638 506 l 1,56,57
 714 526 714 526 712 526 c 1,58,59
 812 526 812 526 866 462 c 0,60,61
 914 406 914 406 914 312 c 0,62,63
 914 192 914 192 844 126 c 1,64,65
 936 126 936 126 962 152 c 0,66,67
 978 168 978 168 1014 242 c 0,68,69
 1072 362 1072 362 1080 378 c 0,70,71
 1182 588 1182 588 1282 798 c 0,72,73
 1392 1020 1392 1020 1438 1020 c 256,74,75
 1484 1020 1484 1020 1517 992 c 128,-1,76
 1550 964 1550 964 1550 930 c 0,0,1
EndSplineSet
EndChar

StartChar: tm_ca
Encoding: 2970 2970 63
Width: 1174
GlyphClass: 2
Flags: W
LayerCount: 2
Fore
SplineSet
1160 466 m 0,0,1
 1160 382 1160 382 1040 382 c 1,2,3
 1040 382 1040 382 970 386 c 128,-1,4
 900 390 900 390 848 390 c 0,5,6
 774 390 774 390 734 380 c 1,7,8
 592 188 592 188 526 124 c 0,9,10
 386 -12 386 -12 242 -12 c 0,11,12
 130 -12 130 -12 74 52 c 0,13,14
 30 102 30 102 30 168 c 0,15,16
 30 468 30 468 652 530 c 1,17,-1
 724 624 l 1,18,-1
 560 624 l 1,19,20
 564 596 564 596 526 561 c 128,-1,21
 488 526 488 526 446 524 c 256,22,23
 404 522 404 522 373 556 c 128,-1,24
 342 590 342 590 342 634 c 0,25,26
 342 690 342 690 383 729 c 128,-1,27
 424 768 424 768 498 768 c 2,28,-1
 958 768 l 2,29,30
 1072 768 1072 768 1072 700 c 256,31,32
 1072 632 1072 632 982 612 c 0,33,34
 876 590 876 590 850 536 c 1,35,-1
 1050 536 l 2,36,37
 1160 536 1160 536 1160 466 c 0,0,1
538 366 m 1,38,39
 396 342 396 342 302 295 c 128,-1,40
 208 248 208 248 208 204 c 0,41,42
 208 154 208 154 260 154 c 0,43,44
 414 154 414 154 538 366 c 1,38,39
EndSplineSet
EndChar

StartChar: tm_ja
Encoding: 2972 2972 64
Width: 1152
GlyphClass: 2
Flags: W
LayerCount: 2
Fore
SplineSet
1122 590 m 0,0,1
 1122 304 1122 304 678 114 c 0,2,3
 486 34 486 34 294 -46 c 1,4,5
 116 -134 116 -134 116 -232 c 0,6,7
 116 -300 116 -300 178 -300 c 0,8,9
 266 -300 266 -300 522 -74 c 0,10,11
 654 42 654 42 672 56 c 0,12,13
 750 114 750 114 816 114 c 0,14,15
 856 114 856 114 891 83 c 128,-1,16
 926 52 926 52 936 6 c 2,17,-1
 1030 -404 l 2,18,19
 1032 -414 1032 -414 1032 -426 c 0,20,21
 1032 -506 1032 -506 942 -506 c 0,22,23
 886 -506 886 -506 872 -454 c 2,24,-1
 790 -130 l 2,25,26
 778 -84 778 -84 768 -84 c 0,27,28
 744 -84 744 -84 634 -182 c 0,29,30
 486 -312 486 -312 410 -364 c 0,31,32
 270 -462 270 -462 172 -462 c 0,33,34
 66 -462 66 -462 -6 -400 c 128,-1,35
 -78 -338 -78 -338 -78 -242 c 0,36,37
 -78 -88 -78 -88 106 24 c 0,38,39
 172 66 172 66 490 198 c 0,40,41
 936 384 936 384 936 554 c 0,42,43
 936 602 936 602 890 602 c 0,44,45
 846 602 846 602 787 555 c 128,-1,46
 728 508 728 508 694 448 c 0,47,48
 668 398 668 398 644 346 c 1,49,50
 616 302 616 302 570 302 c 0,51,52
 508 302 508 302 490 348 c 2,53,-1
 388 606 l 1,54,55
 346 564 346 564 284 470 c 0,56,57
 220 370 220 370 220 338 c 0,58,59
 220 318 220 318 236 318 c 0,60,61
 262 318 262 318 286 389 c 128,-1,62
 310 460 310 460 370 460 c 0,63,64
 394 460 394 460 414 438 c 128,-1,65
 434 416 434 416 434 392 c 0,66,67
 434 314 434 314 355 230 c 128,-1,68
 276 146 276 146 208 146 c 0,69,70
 132 146 132 146 84 184 c 0,71,72
 30 228 30 228 30 312 c 0,73,74
 30 384 30 384 80 454 c 2,75,-1
 230 664 l 2,76,77
 312 778 312 778 398 778 c 0,78,79
 432 778 432 778 468 759 c 128,-1,80
 504 740 504 740 516 714 c 2,81,-1
 590 552 l 1,82,83
 762 772 762 772 936 772 c 0,84,85
 1020 772 1020 772 1071 723 c 128,-1,86
 1122 674 1122 674 1122 590 c 0,0,1
EndSplineSet
EndChar

StartChar: tm_nya
Encoding: 2974 2974 65
Width: 1542
GlyphClass: 2
Flags: W
LayerCount: 2
Fore
SplineSet
1512 340 m 0,0,1
 1512 88 1512 88 1232 -121 c 128,-1,2
 952 -330 952 -330 628 -330 c 0,3,4
 370 -330 370 -330 210 -218 c 0,5,6
 30 -90 30 -90 30 148 c 0,7,8
 30 322 30 322 152 496 c 0,9,10
 268 664 268 664 366 664 c 0,11,12
 398 664 398 664 420 641 c 128,-1,13
 442 618 442 618 442 588 c 0,14,15
 442 534 442 534 386 476 c 0,16,17
 304 392 304 392 284 358 c 0,18,19
 228 266 228 266 228 128 c 0,20,21
 228 -18 228 -18 344 -94 c 0,22,23
 444 -160 444 -160 600 -160 c 0,24,25
 872 -160 872 -160 1095 -13 c 128,-1,26
 1318 134 1318 134 1318 308 c 0,27,28
 1318 374 1318 374 1246 374 c 0,29,30
 1178 374 1178 374 1120 278 c 1,31,32
 1074 188 1074 188 1026 96 c 1,33,34
 968 0 968 0 894 0 c 0,35,36
 826 0 826 0 826 74 c 0,37,38
 826 118 826 118 940 308 c 0,39,40
 1080 542 1080 542 1112 612 c 1,41,42
 1046 616 1046 616 945 579 c 128,-1,43
 844 542 844 542 770 484 c 0,44,45
 672 406 672 406 596 302 c 0,46,47
 530 210 530 210 530 176 c 0,48,49
 530 138 530 138 558 138 c 0,50,51
 600 138 600 138 632 246 c 0,52,53
 654 324 654 324 658 330 c 0,54,55
 678 368 678 368 728 368 c 0,56,57
 766 368 766 368 788 343 c 128,-1,58
 810 318 810 318 810 284 c 0,59,60
 810 164 810 164 711 57 c 128,-1,61
 612 -50 612 -50 492 -50 c 0,62,63
 334 -50 334 -50 334 106 c 0,64,65
 334 224 334 224 468 410 c 0,66,67
 610 604 610 604 772 688 c 0,68,69
 948 778 948 778 1272 778 c 0,70,71
 1378 778 1378 778 1408 774 c 0,72,73
 1504 758 1504 758 1504 700 c 0,74,75
 1504 592 1504 592 1342 608 c 1,76,77
 1294 596 1294 596 1252 506 c 1,78,79
 1310 522 1310 522 1342 522 c 0,80,81
 1426 522 1426 522 1472 462 c 0,82,83
 1512 410 1512 410 1512 340 c 0,0,1
EndSplineSet
EndChar

StartChar: tm_tta
Encoding: 2975 2975 66
Width: 866
GlyphClass: 2
Flags: W
LayerCount: 2
Fore
SplineSet
852 272 m 0,0,1
 852 200 852 200 764 170 c 2,2,-1
 298 16 l 2,3,4
 218 -10 218 -10 190 -10 c 0,5,6
 70 -10 70 -10 70 126 c 2,7,-1
 70 758 l 2,8,9
 70 796 70 796 103 819 c 128,-1,10
 136 842 136 842 178 842 c 0,11,12
 246 842 246 842 246 760 c 2,13,-1
 246 178 l 1,14,15
 296 194 296 194 564 290 c 0,16,17
 740 352 740 352 784 352 c 0,18,19
 852 352 852 352 852 272 c 0,0,1
EndSplineSet
EndChar

StartChar: tm_nna
Encoding: 2979 2979 67
Width: 1674
GlyphClass: 2
Flags: W
LayerCount: 2
Fore
SplineSet
1692 -156 m 2,0,1
 1698 -194 1698 -194 1667 -222 c 128,-1,2
 1636 -250 1636 -250 1600 -250 c 0,3,4
 1536 -250 1536 -250 1524 -178 c 2,5,-1
 1410 530 l 2,6,7
 1400 596 1400 596 1388 596 c 0,8,9
 1362 596 1362 596 1302 536 c 1,10,11
 1384 392 1384 392 1384 214 c 0,12,13
 1384 106 1384 106 1314 42 c 128,-1,14
 1244 -22 1244 -22 1144 -22 c 0,15,16
 1054 -22 1054 -22 995 35 c 128,-1,17
 936 92 936 92 936 188 c 256,18,19
 936 284 936 284 998 394 c 1,20,21
 1054 474 1054 474 1108 554 c 1,22,23
 1062 638 1062 638 1002 638 c 0,24,25
 918 638 918 638 856 530 c 1,26,27
 920 380 920 380 920 274 c 0,28,29
 920 162 920 162 848 70 c 128,-1,30
 776 -22 776 -22 684 -22 c 0,31,32
 470 -22 470 -22 470 174 c 0,33,34
 470 320 470 320 672 552 c 1,35,36
 622 624 622 624 578 624 c 0,37,38
 502 624 502 624 347 445 c 128,-1,39
 192 266 192 266 192 178 c 0,40,41
 192 146 192 146 218 146 c 0,42,43
 254 146 254 146 280 200 c 0,44,45
 304 248 304 248 304 302 c 0,46,47
 304 338 304 338 328 371 c 128,-1,48
 352 404 352 404 388 404 c 0,49,50
 420 404 420 404 443 376 c 128,-1,51
 466 348 466 348 466 314 c 0,52,53
 466 190 466 190 390 86 c 128,-1,54
 314 -18 314 -18 210 -18 c 0,55,56
 134 -18 134 -18 82 27 c 128,-1,57
 30 72 30 72 30 152 c 0,58,59
 30 320 30 320 218 546 c 0,60,61
 416 782 416 782 594 782 c 0,62,63
 704 782 704 782 778 674 c 1,64,65
 882 782 882 782 1014 782 c 0,66,67
 1134 782 1134 782 1224 676 c 1,68,69
 1316 774 1316 774 1406 774 c 0,70,71
 1530 774 1530 774 1554 638 c 2,72,-1
 1692 -156 l 2,0,1
1212 238 m 0,73,74
 1212 274 1212 274 1184 396 c 1,75,76
 1096 286 1096 286 1096 210 c 0,77,78
 1096 136 1096 136 1146 136 c 0,79,80
 1212 136 1212 136 1212 238 c 0,73,74
758 240 m 0,81,82
 758 252 758 252 732 382 c 1,83,84
 660 310 660 310 660 224 c 0,85,86
 660 152 660 152 702 152 c 0,87,88
 758 152 758 152 758 240 c 0,81,82
EndSplineSet
EndChar

StartChar: tm_ta
Encoding: 2980 2980 68
Width: 1142
GlyphClass: 2
Flags: W
LayerCount: 2
Fore
SplineSet
1112 334 m 0,0,1
 1112 184 1112 184 960 52 c 0,2,3
 826 -64 826 -64 466 -216 c 0,4,5
 138 -354 138 -354 56 -354 c 0,6,7
 -34 -354 -34 -354 -34 -272 c 0,8,9
 -34 -214 -34 -214 60 -182 c 0,10,11
 196 -140 196 -140 334 -98 c 1,12,13
 600 -4 600 -4 780 128 c 0,14,15
 940 244 940 244 940 314 c 0,16,17
 940 348 940 348 912 378 c 128,-1,18
 884 408 884 408 846 408 c 2,19,-1
 766 408 l 1,20,21
 542 158 542 158 480 106 c 0,22,23
 354 0 354 0 214 0 c 0,24,25
 132 0 132 0 81 52 c 128,-1,26
 30 104 30 104 30 178 c 0,27,28
 30 484 30 484 682 538 c 1,29,-1
 746 610 l 1,30,-1
 558 610 l 1,31,32
 564 578 564 578 526 555 c 128,-1,33
 488 532 488 532 448 532 c 256,34,35
 408 532 408 532 383 562 c 128,-1,36
 358 592 358 592 358 636 c 0,37,38
 358 698 358 698 412 736 c 0,39,40
 458 768 458 768 520 768 c 2,41,-1
 964 768 l 2,42,43
 1020 768 1020 768 1045 754 c 128,-1,44
 1070 740 1070 740 1070 694 c 0,45,46
 1070 646 1070 646 1008 622 c 0,47,48
 978 614 978 614 950 606 c 1,49,50
 914 590 914 590 872 538 c 1,51,52
 970 548 970 548 1041 492 c 128,-1,53
 1112 436 1112 436 1112 334 c 0,0,1
546 376 m 1,54,55
 462 376 462 376 334 316 c 0,56,57
 192 250 192 250 192 184 c 0,58,59
 192 170 192 170 214 158 c 128,-1,60
 236 146 236 146 256 146 c 0,61,62
 290 146 290 146 398 238 c 0,63,64
 486 310 486 310 546 376 c 1,54,55
EndSplineSet
EndChar

StartChar: tm_na
Encoding: 2984 2984 69
Width: 904
GlyphClass: 2
Flags: W
LayerCount: 2
Fore
SplineSet
874 348 m 0,0,1
 874 134 874 134 546 -84 c 0,2,3
 386 -190 386 -190 198 -268 c 0,4,5
 26 -340 26 -340 -44 -340 c 0,6,7
 -72 -340 -72 -340 -98 -312 c 128,-1,8
 -124 -284 -124 -284 -124 -250 c 0,9,10
 -124 -202 -124 -202 -14 -162 c 0,11,12
 248 -64 248 -64 288 -46 c 0,13,14
 704 144 704 144 704 328 c 0,15,16
 704 384 704 384 614 384 c 0,17,18
 542 384 542 384 462 254 c 0,19,20
 416 174 416 174 370 92 c 1,21,22
 336 54 336 54 272 54 c 0,23,24
 214 54 214 54 214 120 c 0,25,26
 214 138 214 138 222 150 c 2,27,-1
 478 606 l 1,28,29
 448 624 448 624 382 624 c 0,30,31
 196 624 196 624 196 498 c 0,32,33
 196 464 196 464 221 409 c 128,-1,34
 246 354 246 354 246 330 c 0,35,36
 246 296 246 296 224 269 c 128,-1,37
 202 242 202 242 166 242 c 0,38,39
 98 242 98 242 62 328 c 0,40,41
 30 400 30 400 30 500 c 0,42,43
 30 606 30 606 113 687 c 128,-1,44
 196 768 196 768 324 768 c 2,45,-1
 812 768 l 2,46,47
 874 768 874 768 874 712 c 0,48,49
 874 652 874 652 810 628 c 0,50,51
 798 622 798 622 702 606 c 0,52,53
 640 596 640 596 618 520 c 1,54,55
 660 530 660 530 700 530 c 0,56,57
 874 530 874 530 874 348 c 0,0,1
EndSplineSet
EndChar

StartChar: tm_nnna
Encoding: 2985 2985 70
Width: 1230
GlyphClass: 2
Flags: W
LayerCount: 2
Fore
SplineSet
1288 -152 m 2,0,1
 1296 -192 1296 -192 1270 -217 c 128,-1,2
 1244 -242 1244 -242 1210 -242 c 0,3,4
 1146 -242 1146 -242 1132 -180 c 2,5,-1
 970 544 l 2,6,7
 958 602 958 602 934 602 c 0,8,9
 898 602 898 602 856 556 c 1,10,11
 920 408 920 408 920 272 c 0,12,13
 920 148 920 148 849 64 c 128,-1,14
 778 -20 778 -20 678 -20 c 0,15,16
 474 -20 474 -20 474 174 c 0,17,18
 474 244 474 244 536 365 c 128,-1,19
 598 486 598 486 674 566 c 1,20,21
 640 644 640 644 574 644 c 0,22,23
 506 644 506 644 349 459 c 128,-1,24
 192 274 192 274 192 198 c 0,25,26
 192 156 192 156 222 156 c 0,27,28
 254 156 254 156 278 216 c 0,29,30
 298 266 298 266 298 301 c 128,-1,31
 298 336 298 336 321 367 c 128,-1,32
 344 398 344 398 380 398 c 0,33,34
 414 398 414 398 441 374 c 128,-1,35
 468 350 468 350 468 318 c 0,36,37
 468 188 468 188 392 88 c 0,38,39
 308 -20 308 -20 186 -20 c 0,40,41
 112 -20 112 -20 61 30 c 128,-1,42
 10 80 10 80 10 164 c 0,43,44
 10 252 10 252 94 400 c 0,45,46
 184 560 184 560 308 666 c 0,47,48
 454 794 454 794 596 794 c 0,49,50
 670 794 670 794 714 764 c 0,51,52
 746 744 746 744 788 684 c 1,53,54
 884 784 884 784 970 784 c 0,55,56
 1038 784 1038 784 1068 750 c 0,57,58
 1092 720 1092 720 1112 632 c 2,59,-1
 1288 -152 l 2,0,1
758 272 m 0,60,61
 758 364 758 364 734 408 c 1,62,63
 708 376 708 376 680 314 c 0,64,65
 648 242 648 242 648 200 c 0,66,67
 648 132 648 132 698 132 c 0,68,69
 758 132 758 132 758 272 c 0,60,61
EndSplineSet
EndChar

StartChar: tm_pa
Encoding: 2986 2986 71
Width: 792
GlyphClass: 2
Flags: W
LayerCount: 2
Fore
SplineSet
832 858 m 2,0,-1
 348 74 l 2,1,2
 326 38 326 38 285 13 c 128,-1,3
 244 -12 244 -12 210 -12 c 0,4,5
 154 -12 154 -12 112 25 c 128,-1,6
 70 62 70 62 70 104 c 2,7,-1
 70 720 l 2,8,9
 70 752 70 752 97 778 c 128,-1,10
 124 804 124 804 158 804 c 0,11,12
 194 804 194 804 223 778 c 128,-1,13
 252 752 252 752 252 716 c 2,14,-1
 252 234 l 1,15,-1
 670 940 l 2,16,17
 702 994 702 994 750 994 c 0,18,19
 790 994 790 994 816 964 c 128,-1,20
 842 934 842 934 842 898 c 0,21,22
 842 876 842 876 832 858 c 2,0,-1
EndSplineSet
EndChar

StartChar: tm_ma
Encoding: 2990 2990 72
Width: 876
GlyphClass: 2
Flags: W
LayerCount: 2
Fore
SplineSet
894 758 m 0,0,1
 894 642 894 642 812 464 c 0,2,3
 724 270 724 270 600 142 c 0,4,5
 452 -8 452 -8 304 -8 c 0,6,7
 244 -8 244 -8 194 34 c 128,-1,8
 144 76 144 76 130 150 c 2,9,-1
 36 656 l 2,10,11
 30 690 30 690 55 721 c 128,-1,12
 80 752 80 752 104 752 c 0,13,14
 196 752 196 752 214 648 c 2,15,-1
 286 214 l 2,16,17
 298 144 298 144 352 144 c 0,18,19
 434 144 434 144 568 346 c 0,20,21
 708 556 708 556 708 712 c 0,22,23
 708 820 708 820 644 820 c 0,24,25
 584 820 584 820 542 742 c 0,26,27
 506 674 506 674 492 566 c 0,28,29
 482 488 482 488 472 410 c 1,30,31
 454 340 454 340 398 340 c 0,32,33
 306 340 306 340 306 474 c 0,34,35
 306 676 306 676 390 820 c 0,36,37
 488 990 488 990 672 990 c 0,38,39
 774 990 774 990 834 921 c 128,-1,40
 894 852 894 852 894 758 c 0,0,1
EndSplineSet
EndChar

StartChar: tm_ya
Encoding: 2991 2991 73
Width: 1158
GlyphClass: 2
Flags: W
LayerCount: 2
Fore
SplineSet
1220 820 m 2,0,-1
 786 90 l 2,1,2
 702 -50 702 -50 566 -50 c 0,3,4
 420 -50 420 -50 420 106 c 2,5,-1
 420 206 l 1,6,7
 310 46 310 46 302 36 c 0,8,9
 254 -20 254 -20 196 -20 c 0,10,11
 70 -20 70 -20 70 106 c 2,12,-1
 70 708 l 2,13,14
 70 790 70 790 160 790 c 0,15,16
 242 790 242 790 242 698 c 2,17,-1
 242 236 l 1,18,-1
 420 492 l 1,19,-1
 420 634 l 2,20,21
 420 728 420 728 524 728 c 0,22,23
 608 728 608 728 608 628 c 2,24,-1
 608 132 l 1,25,-1
 1064 898 l 2,26,27
 1098 956 1098 956 1146 956 c 0,28,29
 1180 956 1180 956 1208 932 c 128,-1,30
 1236 908 1236 908 1236 872 c 0,31,32
 1236 846 1236 846 1220 820 c 2,0,-1
EndSplineSet
EndChar

StartChar: tm_ra
Encoding: 2992 2992 74
Width: 912
GlyphClass: 2
Flags: W
LayerCount: 2
Fore
SplineSet
950 688 m 0,0,1
 950 650 950 650 924 624 c 128,-1,2
 898 598 898 598 876 594 c 2,3,-1
 820 586 l 2,4,5
 784 580 784 580 740 512 c 2,6,-1
 344 -110 l 2,7,8
 280 -210 280 -210 171 -289 c 128,-1,9
 62 -368 62 -368 -6 -368 c 0,10,11
 -110 -368 -110 -368 -110 -274 c 0,12,13
 -110 -230 -110 -230 -58 -202 c 0,14,15
 2 -170 2 -170 62 -140 c 1,16,17
 146 -86 146 -86 204 4 c 2,18,-1
 580 596 l 1,19,-1
 376 596 l 2,20,21
 298 596 298 596 256 546 c 0,22,23
 220 506 220 506 220 450 c 0,24,25
 220 420 220 420 241 374 c 128,-1,26
 262 328 262 328 262 302 c 0,27,28
 262 268 262 268 238 243 c 128,-1,29
 214 218 214 218 176 218 c 0,30,31
 122 218 122 218 74 300 c 0,32,33
 30 376 30 376 30 442 c 0,34,35
 30 582 30 582 114 670 c 0,36,37
 208 768 208 768 372 768 c 2,38,-1
 852 768 l 2,39,40
 950 768 950 768 950 688 c 0,0,1
EndSplineSet
EndChar

StartChar: tm_rra
Encoding: 2993 2993 75
Width: 1192
GlyphClass: 2
Flags: W
LayerCount: 2
Fore
SplineSet
1162 548 m 0,0,1
 1162 356 1162 356 1010 149 c 128,-1,2
 858 -58 858 -58 644 -168 c 0,3,4
 506 -240 506 -240 286 -316 c 0,5,6
 80 -388 80 -388 32 -388 c 0,7,8
 -66 -388 -66 -388 -66 -302 c 0,9,10
 -66 -252 -66 -252 -8 -232 c 0,11,12
 0 -228 0 -228 154 -194 c 0,13,14
 348 -150 348 -150 541 -47 c 128,-1,15
 734 56 734 56 862 226 c 0,16,17
 984 388 984 388 984 522 c 0,18,19
 984 596 984 596 936 596 c 0,20,21
 872 596 872 596 812 476 c 2,22,-1
 640 136 l 2,23,24
 602 62 602 62 530 62 c 0,25,26
 450 62 450 62 450 140 c 2,27,-1
 450 590 l 1,28,-1
 184 52 l 2,29,30
 156 -6 156 -6 84 -6 c 0,31,32
 54 -6 54 -6 34 20 c 128,-1,33
 14 46 14 46 14 78 c 0,34,35
 14 100 14 100 22 116 c 2,36,-1
 310 670 l 2,37,38
 366 778 366 778 470 778 c 0,39,40
 608 778 608 778 608 674 c 2,41,-1
 608 424 l 1,42,-1
 744 670 l 2,43,44
 804 778 804 778 946 778 c 0,45,46
 1042 778 1042 778 1102 720 c 128,-1,47
 1162 662 1162 662 1162 548 c 0,0,1
EndSplineSet
EndChar

StartChar: tm_la
Encoding: 2994 2994 76
Width: 1164
GlyphClass: 2
Flags: W
LayerCount: 2
Fore
SplineSet
1238 844 m 0,0,1
 1238 792 1238 792 866 102 c 0,2,3
 810 -8 810 -8 718 -8 c 0,4,5
 684 -8 684 -8 646 30 c 128,-1,6
 608 68 608 68 592 120 c 2,7,-1
 458 526 l 2,8,9
 446 560 446 560 422 572 c 1,10,11
 378 546 378 546 282 404 c 0,12,13
 180 254 180 254 180 198 c 0,14,15
 180 160 180 160 216 160 c 0,16,17
 248 160 248 160 278 268 c 0,18,19
 302 352 302 352 308 366 c 0,20,21
 332 412 332 412 380 412 c 0,22,23
 454 412 454 412 454 320 c 0,24,25
 454 190 454 190 376 94 c 0,26,27
 294 -8 294 -8 174 -8 c 0,28,29
 104 -8 104 -8 60 36 c 0,30,31
 10 84 10 84 10 170 c 0,32,33
 10 336 10 336 188 556 c 0,34,35
 358 768 358 768 462 768 c 0,36,37
 508 768 508 768 547 745 c 128,-1,38
 586 722 586 722 596 690 c 2,39,-1
 750 242 l 1,40,-1
 1050 838 l 2,41,42
 1094 926 1094 926 1152 926 c 0,43,44
 1238 926 1238 926 1238 844 c 0,0,1
EndSplineSet
EndChar

StartChar: tm_lla
Encoding: 2995 2995 77
Width: 1140
GlyphClass: 2
Flags: W
LayerCount: 2
Fore
SplineSet
1158 -176 m 2,0,1
 1164 -212 1164 -212 1135 -241 c 128,-1,2
 1106 -270 1106 -270 1068 -270 c 0,3,4
 992 -270 992 -270 980 -200 c 2,5,-1
 850 608 l 1,6,-1
 736 178 l 2,7,8
 720 118 720 118 668 118 c 0,9,10
 598 118 598 118 582 174 c 2,11,-1
 462 580 l 1,12,13
 402 554 402 554 308 408 c 128,-1,14
 214 262 214 262 214 196 c 0,15,16
 214 152 214 152 248 152 c 0,17,18
 270 152 270 152 290 262 c 0,19,20
 316 400 316 400 380 400 c 0,21,22
 462 400 462 400 462 290 c 0,23,24
 462 166 462 166 387 74 c 128,-1,25
 312 -18 312 -18 206 -18 c 0,26,27
 132 -18 132 -18 86 20 c 0,28,29
 30 62 30 62 30 144 c 0,30,31
 30 306 30 306 192 538 c 0,32,33
 360 780 360 780 500 780 c 0,34,35
 576 780 576 780 594 718 c 2,36,-1
 656 514 l 1,37,-1
 726 716 l 2,38,39
 758 806 758 806 866 806 c 0,40,41
 988 806 988 806 1018 634 c 2,42,-1
 1158 -176 l 2,0,1
EndSplineSet
EndChar

StartChar: tm_llla
Encoding: 2996 2996 78
Width: 900
GlyphClass: 2
Flags: W
LayerCount: 2
Fore
SplineSet
882 720 m 0,0,1
 882 566 882 566 784 390 c 128,-1,2
 686 214 686 214 544 104 c 1,3,4
 578 22 578 22 634 -28 c 1,5,6
 674 -58 674 -58 714 -85 c 128,-1,7
 754 -112 754 -112 754 -148 c 0,8,9
 754 -182 754 -182 727 -209 c 128,-1,10
 700 -236 700 -236 664 -236 c 0,11,12
 622 -236 622 -236 564 -178 c 1,13,14
 438 -340 438 -340 268 -340 c 0,15,16
 158 -340 158 -340 73 -282 c 128,-1,17
 -12 -224 -12 -224 -12 -158 c 0,18,19
 -12 -114 -12 -114 17 -87 c 128,-1,20
 46 -60 46 -60 88 -60 c 0,21,22
 124 -60 124 -60 168 -116 c 128,-1,23
 212 -172 212 -172 276 -172 c 0,24,25
 388 -172 388 -172 450 -52 c 1,26,-1
 406 16 l 1,27,28
 356 -12 356 -12 278 -12 c 0,29,30
 214 -12 214 -12 165 34 c 128,-1,31
 116 80 116 80 106 140 c 2,32,-1
 16 642 l 2,33,34
 8 686 8 686 36 714 c 128,-1,35
 64 742 64 742 120 742 c 0,36,37
 174 742 174 742 184 682 c 2,38,-1
 268 198 l 2,39,40
 276 150 276 150 312 150 c 0,41,42
 328 150 328 150 354 162 c 1,43,44
 294 366 294 366 294 474 c 0,45,46
 294 716 294 716 396 852 c 128,-1,47
 498 988 498 988 670 988 c 0,48,49
 778 988 778 988 834 902 c 0,50,51
 882 830 882 830 882 720 c 0,0,1
700 720 m 0,52,53
 700 748 700 748 681 776 c 128,-1,54
 662 804 662 804 642 804 c 0,55,56
 562 804 562 804 509 708 c 128,-1,57
 456 612 456 612 456 476 c 0,58,59
 456 382 456 382 492 254 c 1,60,61
 700 514 700 514 700 720 c 0,52,53
EndSplineSet
EndChar

StartChar: tm_va
Encoding: 2997 2997 79
Width: 1002
GlyphClass: 2
Flags: W
LayerCount: 2
Fore
SplineSet
962 154 m 2,0,1
 962 0 962 0 766 0 c 2,2,-1
 310 0 l 2,3,4
 188 0 188 0 188 82 c 0,5,6
 188 122 188 122 217 144 c 128,-1,7
 246 166 246 166 332 196 c 0,8,9
 386 216 386 216 478 332 c 0,10,11
 576 456 576 456 576 534 c 0,12,13
 576 614 576 614 486 614 c 0,14,15
 376 614 376 614 278 524 c 0,16,17
 188 444 188 444 188 382 c 0,18,19
 188 350 188 350 218 350 c 0,20,21
 272 350 272 350 310 445 c 128,-1,22
 348 540 348 540 398 540 c 0,23,24
 466 540 466 540 466 462 c 0,25,26
 466 372 466 372 374 284 c 128,-1,27
 282 196 282 196 170 196 c 0,28,29
 106 196 106 196 68 244 c 128,-1,30
 30 292 30 292 30 366 c 0,31,32
 30 522 30 522 183 645 c 128,-1,33
 336 768 336 768 522 768 c 0,34,35
 610 768 610 768 672 714 c 0,36,37
 740 652 740 652 740 550 c 0,38,39
 740 374 740 374 538 162 c 1,40,-1
 770 162 l 1,41,-1
 802 196 l 1,42,-1
 802 1090 l 2,43,44
 802 1122 802 1122 825 1145 c 128,-1,45
 848 1168 848 1168 880 1168 c 0,46,47
 962 1168 962 1168 962 1084 c 2,48,-1
 962 154 l 2,0,1
EndSplineSet
EndChar

StartChar: tm_ssa
Encoding: 2999 2999 80
Width: 1434
GlyphClass: 2
Flags: W
LayerCount: 2
Fore
SplineSet
1420 176 m 0,0,1
 1420 116 1420 116 1310 91 c 128,-1,2
 1200 66 1200 66 1088 46 c 1,3,4
 964 -102 964 -102 810 -232 c 0,5,6
 664 -354 664 -354 620 -354 c 0,7,8
 520 -354 520 -354 520 -258 c 0,9,10
 520 -232 520 -232 534 -218 c 1,11,12
 592 -186 592 -186 650 -154 c 0,13,14
 772 -80 772 -80 866 14 c 1,15,16
 736 -6 736 -6 514 -12 c 0,17,18
 314 -18 314 -18 262 -10 c 0,19,20
 176 4 176 4 176 54 c 0,21,22
 176 108 176 108 210 130 c 1,23,24
 262 154 262 154 316 180 c 0,25,26
 394 220 394 220 464 300 c 0,27,28
 566 414 566 414 566 538 c 0,29,30
 566 574 566 574 541 599 c 128,-1,31
 516 624 516 624 484 624 c 0,32,33
 374 624 374 624 280 536 c 0,34,35
 198 458 198 458 198 400 c 0,36,37
 198 352 198 352 230 352 c 0,38,39
 266 352 266 352 306 450 c 0,40,41
 328 504 328 504 338 518 c 0,42,43
 360 546 360 546 400 546 c 0,44,45
 468 546 468 546 468 472 c 0,46,47
 468 394 468 394 388 304 c 0,48,49
 294 196 294 196 170 196 c 0,50,51
 30 196 30 196 30 368 c 0,52,53
 30 528 30 528 179 650 c 128,-1,54
 328 772 328 772 514 772 c 0,55,56
 732 772 732 772 732 560 c 0,57,58
 732 416 732 416 660 300 c 0,59,60
 626 244 626 244 528 140 c 1,61,-1
 952 176 l 1,62,63
 792 288 792 288 792 460 c 0,64,65
 792 608 792 608 870 697 c 128,-1,66
 948 786 948 786 1074 786 c 0,67,68
 1186 786 1186 786 1254 726 c 0,69,70
 1326 660 1326 660 1326 538 c 0,71,72
 1326 386 1326 386 1242 242 c 1,73,74
 1294 264 1294 264 1336 264 c 0,75,76
 1420 264 1420 264 1420 176 c 0,0,1
1156 526 m 0,77,78
 1156 630 1156 630 1058 630 c 0,79,80
 1024 630 1024 630 987 579 c 128,-1,81
 950 528 950 528 950 486 c 0,82,83
 950 380 950 380 1072 262 c 1,84,85
 1156 450 1156 450 1156 526 c 0,77,78
EndSplineSet
EndChar

StartChar: tm_sa
Encoding: 3000 3000 81
Width: 1548
GlyphClass: 2
Flags: W
LayerCount: 2
Fore
SplineSet
1608 828 m 2,0,-1
 1248 110 l 2,1,2
 1224 62 1224 62 1176 26 c 128,-1,3
 1128 -10 1128 -10 1084 -10 c 0,4,5
 1054 -10 1054 -10 1026 10 c 0,6,7
 992 32 992 32 980 70 c 2,8,-1
 854 496 l 2,9,10
 836 560 836 560 814 560 c 0,11,12
 798 560 798 560 764 492 c 128,-1,13
 730 424 730 424 730 394 c 0,14,15
 730 368 730 368 750 242 c 128,-1,16
 770 116 770 116 770 70 c 0,17,18
 770 36 770 36 741 11 c 128,-1,19
 712 -14 712 -14 682 -14 c 0,20,21
 604 -14 604 -14 584 56 c 0,22,23
 582 66 582 66 568 230 c 0,24,25
 536 608 536 608 470 608 c 0,26,27
 402 608 402 608 297 457 c 128,-1,28
 192 306 192 306 192 204 c 0,29,30
 192 148 192 148 218 148 c 256,31,32
 244 148 244 148 265 190 c 128,-1,33
 286 232 286 232 286 288 c 128,-1,34
 286 344 286 344 316 382 c 128,-1,35
 346 420 346 420 384 420 c 0,36,37
 470 420 470 420 470 304 c 0,38,39
 470 180 470 180 388 80 c 128,-1,40
 306 -20 306 -20 198 -20 c 0,41,42
 120 -20 120 -20 65 34 c 128,-1,43
 10 88 10 88 10 180 c 0,44,45
 10 382 10 382 198 608 c 0,46,47
 256 678 256 678 336 730 c 0,48,49
 428 790 428 790 504 790 c 0,50,51
 568 790 568 790 608 750 c 0,52,53
 634 722 634 722 668 644 c 1,54,55
 736 728 736 728 750 742 c 0,56,57
 798 786 798 786 850 786 c 0,58,59
 886 786 886 786 925 757 c 128,-1,60
 964 728 964 728 976 690 c 2,61,-1
 1118 232 l 1,62,-1
 1394 822 l 2,63,64
 1452 946 1452 946 1520 946 c 0,65,66
 1564 946 1564 946 1590 921 c 128,-1,67
 1616 896 1616 896 1616 862 c 0,68,69
 1616 844 1616 844 1608 828 c 2,0,-1
EndSplineSet
EndChar

StartChar: tm_ha
Encoding: 3001 3001 82
Width: 1866
GlyphClass: 2
Flags: W
LayerCount: 2
Fore
SplineSet
1836 536 m 0,0,1
 1836 342 1836 342 1704 152 c 0,2,3
 1562 -54 1562 -54 1316 -174 c 0,4,5
 994 -330 994 -330 438 -330 c 0,6,7
 78 -330 78 -330 -22 -290 c 0,8,9
 -82 -266 -82 -266 -82 -210 c 0,10,11
 -82 -128 -82 -128 -8 -128 c 0,12,13
 12 -128 12 -128 178 -153 c 128,-1,14
 344 -178 344 -178 498 -178 c 0,15,16
 942 -178 942 -178 1226 -44 c 0,17,18
 1440 56 1440 56 1564 216 c 0,19,20
 1680 364 1680 364 1680 506 c 0,21,22
 1680 546 1680 546 1662 580 c 128,-1,23
 1644 614 1644 614 1612 614 c 0,24,25
 1562 614 1562 614 1532 588 c 0,26,27
 1516 574 1516 574 1488 526 c 2,28,-1
 1246 114 l 2,29,30
 1214 60 1214 60 1188 60 c 0,31,32
 1094 60 1094 60 1094 136 c 2,33,-1
 1094 564 l 1,34,35
 1062 490 1062 490 950 188 c 0,36,37
 910 86 910 86 872 50 c 0,38,39
 818 0 818 0 704 0 c 2,40,-1
 290 0 l 2,41,42
 212 0 212 0 193 16 c 128,-1,43
 174 32 174 32 174 72 c 0,44,45
 174 108 174 108 231 138 c 128,-1,46
 288 168 288 168 348 196 c 0,47,48
 422 234 422 234 494 310 c 0,49,50
 582 406 582 406 582 486 c 0,51,52
 582 620 582 620 472 620 c 256,53,54
 362 620 362 620 272 530 c 0,55,56
 192 450 192 450 192 390 c 0,57,58
 192 350 192 350 218 350 c 256,59,60
 244 350 244 350 294 444 c 128,-1,61
 344 538 344 538 410 538 c 0,62,63
 464 538 464 538 464 468 c 0,64,65
 464 374 464 374 362 284 c 0,66,67
 268 202 268 202 186 202 c 0,68,69
 122 202 122 202 76 248 c 128,-1,70
 30 294 30 294 30 360 c 0,71,72
 30 534 30 534 176 658 c 0,73,74
 316 776 316 776 506 776 c 0,75,76
 602 776 602 776 670 718 c 0,77,78
 746 656 746 656 746 552 c 0,79,80
 746 436 746 436 680 322 c 0,81,82
 624 224 624 224 536 154 c 1,83,-1
 744 162 l 1,84,-1
 788 196 l 1,85,86
 804 240 804 240 964 662 c 0,87,88
 1008 778 1008 778 1132 778 c 0,89,90
 1262 778 1262 778 1262 668 c 2,91,-1
 1262 448 l 1,92,93
 1366 624 1366 624 1408 672 c 0,94,95
 1506 782 1506 782 1640 782 c 0,96,97
 1720 782 1720 782 1778 716 c 128,-1,98
 1836 650 1836 650 1836 536 c 0,0,1
EndSplineSet
EndChar

StartChar: tm_aakaar
Encoding: 3006 3006 83
Width: 614
GlyphClass: 2
Flags: W
LayerCount: 2
Fore
SplineSet
634 -132 m 2,0,1
 636 -142 636 -142 636 -154 c 0,2,3
 636 -190 636 -190 616 -216 c 128,-1,4
 596 -242 596 -242 564 -242 c 0,5,6
 476 -242 476 -242 460 -162 c 2,7,-1
 326 492 l 1,8,-1
 198 110 l 2,9,10
 178 52 178 52 94 52 c 0,11,12
 68 52 68 52 41 79 c 128,-1,13
 14 106 14 106 14 134 c 0,14,15
 14 140 14 140 16 148 c 2,16,-1
 204 664 l 2,17,18
 246 780 246 780 346 780 c 0,19,20
 400 780 400 780 426 756 c 0,21,22
 456 726 456 726 472 650 c 2,23,-1
 634 -132 l 2,0,1
EndSplineSet
EndChar

StartChar: tm_ikaar
Encoding: 3007 3007 84
Width: 368
GlyphClass: 2
Flags: W
LayerCount: 2
Fore
SplineSet
306 794 m 0,0,1
 306 664 306 664 226 530 c 128,-1,2
 146 396 146 396 76 396 c 0,3,4
 44 396 44 396 18 426 c 128,-1,5
 -8 456 -8 456 -8 488 c 0,6,7
 -8 504 -8 504 30 544 c 0,8,9
 78 596 78 596 98 634 c 0,10,11
 136 700 136 700 136 780 c 0,12,13
 136 892 136 892 2 892 c 0,14,15
 -44 892 -44 892 -101 829 c 128,-1,16
 -158 766 -158 766 -202 766 c 0,17,18
 -232 766 -232 766 -258 784 c 128,-1,19
 -284 802 -284 802 -284 826 c 0,20,21
 -284 926 -284 926 -188 998 c 128,-1,22
 -92 1070 -92 1070 28 1070 c 0,23,24
 142 1070 142 1070 222 996 c 0,25,26
 306 916 306 916 306 794 c 0,0,1
EndSplineSet
EndChar

StartChar: tm_iikaar
Encoding: 3008 3008 85
Width: 328
GlyphClass: 4
Flags: W
LayerCount: 2
Fore
SplineSet
322 1114 m 0,0,1
 322 996 322 996 188 916 c 0,2,3
 72 846 72 846 -44 846 c 0,4,5
 -130 846 -130 846 -130 932 c 0,6,7
 -130 968 -130 968 -98 992 c 128,-1,8
 -66 1016 -66 1016 -26 1016 c 0,9,10
 32 1016 32 1016 91 1038 c 128,-1,11
 150 1060 150 1060 150 1086 c 0,12,13
 150 1110 150 1110 86 1110 c 0,14,15
 -10 1110 -10 1110 -104 1054 c 0,16,17
 -206 992 -206 992 -206 916 c 0,18,19
 -206 808 -206 808 -114 768 c 1,20,-1
 -310 768 l 1,21,22
 -392 810 -392 810 -392 926 c 0,23,24
 -392 1068 -392 1068 -240 1166 c 0,25,26
 -98 1260 -98 1260 90 1260 c 0,27,28
 178 1260 178 1260 240 1232 c 0,29,30
 322 1194 322 1194 322 1114 c 0,0,1
EndSplineSet
EndChar

StartChar: tm_ekaar
Encoding: 3014 3014 88
Width: 1008
GlyphClass: 2
Flags: W
LayerCount: 2
Fore
SplineSet
1016 734 m 0,0,1
 1016 544 1016 544 884 156 c 0,2,3
 746 -248 746 -248 658 -248 c 0,4,5
 620 -248 620 -248 594 -220 c 128,-1,6
 568 -192 568 -192 568 -158 c 0,7,8
 568 -152 568 -152 640 14 c 0,9,10
 724 212 724 212 770 350 c 0,11,12
 842 560 842 560 842 676 c 0,13,14
 842 786 842 786 764 786 c 0,15,16
 622 786 622 786 406 544 c 0,17,18
 198 314 198 314 198 200 c 0,19,20
 198 164 198 164 226 164 c 0,21,22
 268 164 268 164 300 292 c 0,23,24
 318 362 318 362 326 378 c 0,25,26
 348 416 348 416 392 416 c 0,27,28
 464 416 464 416 464 332 c 0,29,30
 464 180 464 180 388 90 c 128,-1,31
 312 0 312 0 188 0 c 0,32,33
 30 0 30 0 30 186 c 0,34,35
 30 330 30 330 170 520 c 0,36,37
 300 698 300 698 486 830 c 128,-1,38
 672 962 672 962 806 962 c 0,39,40
 906 962 906 962 964 892 c 0,41,42
 1016 830 1016 830 1016 734 c 0,0,1
EndSplineSet
EndChar

StartChar: tm_eekaar
Encoding: 3015 3015 89
Width: 876
GlyphClass: 2
Flags: W
LayerCount: 2
Fore
SplineSet
1050 1036 m 0,0,1
 1050 910 1050 910 908 826 c 0,2,3
 782 754 782 754 628 754 c 0,4,5
 540 754 540 754 540 832 c 0,6,7
 540 884 540 884 570 900 c 0,8,9
 588 910 588 910 634 910 c 0,10,11
 714 910 714 910 793 938 c 128,-1,12
 872 966 872 966 872 1000 c 0,13,14
 872 1062 872 1062 804 1062 c 0,15,16
 590 1062 590 1062 392 831 c 128,-1,17
 194 600 194 600 194 336 c 0,18,19
 194 234 194 234 236 164 c 0,20,21
 286 82 286 82 376 82 c 0,22,23
 500 82 500 82 600 182 c 0,24,25
 696 276 696 276 696 378 c 0,26,27
 696 472 696 472 632 472 c 0,28,29
 508 472 508 472 450 310 c 0,30,31
 436 264 436 264 420 218 c 0,32,33
 404 180 404 180 362 180 c 0,34,35
 282 180 282 180 282 264 c 0,36,37
 282 408 282 408 387 513 c 128,-1,38
 492 618 492 618 652 618 c 0,39,40
 736 618 736 618 799 556 c 128,-1,41
 862 494 862 494 862 406 c 0,42,43
 862 228 862 228 716 86 c 0,44,45
 564 -60 564 -60 370 -60 c 0,46,47
 30 -60 30 -60 30 352 c 0,48,49
 30 660 30 660 277 942 c 128,-1,50
 524 1224 524 1224 814 1224 c 0,51,52
 922 1224 922 1224 986 1173 c 128,-1,53
 1050 1122 1050 1122 1050 1036 c 0,0,1
EndSplineSet
EndChar

StartChar: tm_aikaar
Encoding: 3016 3016 90
Width: 1316
GlyphClass: 2
Flags: W
LayerCount: 2
Fore
SplineSet
1286 406 m 0,0,1
 1286 224 1286 224 1226 106 c 0,2,3
 1158 -26 1158 -26 1034 -26 c 0,4,5
 940 -26 940 -26 940 66 c 0,6,7
 940 96 940 96 962 121 c 128,-1,8
 984 146 984 146 1014 146 c 0,9,10
 1124 146 1124 146 1124 386 c 0,11,12
 1124 468 1124 468 1097 545 c 128,-1,13
 1070 622 1070 622 1030 622 c 0,14,15
 958 622 958 622 876 536 c 1,16,17
 944 350 944 350 944 198 c 0,18,19
 944 118 944 118 872 51 c 128,-1,20
 800 -16 800 -16 706 -16 c 0,21,22
 616 -16 616 -16 560 34 c 0,23,24
 490 94 490 94 490 212 c 0,25,26
 490 288 490 288 568 404 c 1,27,28
 628 486 628 486 688 568 c 1,29,30
 642 632 642 632 602 632 c 0,31,32
 512 632 512 632 350 436 c 0,33,34
 198 250 198 250 198 186 c 0,35,36
 198 154 198 154 234 154 c 0,37,38
 262 154 262 154 288 205 c 128,-1,39
 314 256 314 256 314 308 c 0,40,41
 314 352 314 352 339 385 c 128,-1,42
 364 418 364 418 402 418 c 0,43,44
 480 418 480 418 480 332 c 0,45,46
 480 202 480 202 402 98 c 128,-1,47
 324 -6 324 -6 208 -6 c 0,48,49
 134 -6 134 -6 82 42 c 128,-1,50
 30 90 30 90 30 170 c 0,51,52
 30 328 30 328 241 561 c 128,-1,53
 452 794 452 794 622 794 c 0,54,55
 730 794 730 794 808 674 c 1,56,57
 932 792 932 792 1054 792 c 0,58,59
 1146 792 1146 792 1216 684 c 0,60,61
 1286 570 1286 570 1286 406 c 0,0,1
774 234 m 0,62,63
 774 284 774 284 742 374 c 1,64,65
 672 284 672 284 672 204 c 0,66,67
 672 144 672 144 716 144 c 0,68,69
 774 144 774 144 774 234 c 0,62,63
EndSplineSet
EndChar

StartChar: tm_halant
Encoding: 3021 3021 94
Width: 339
GlyphClass: 4
Flags: W
LayerCount: 2
Fore
SplineSet
223 1149 m 0,0,1
 157 1149 157 1149 109.5 1196.5 c 128,-1,2
 62 1244 62 1244 62 1310 c 0,3,4
 62 1378 62 1378 109.5 1424.5 c 128,-1,5
 157 1471 157 1471 223 1471 c 0,6,7
 290 1471 290 1471 337 1424.5 c 128,-1,8
 384 1378 384 1378 384 1310 c 0,9,10
 384 1244 384 1244 337 1196.5 c 128,-1,11
 290 1149 290 1149 223 1149 c 0,0,1
EndSplineSet
EndChar

StartChar: tm_two
Encoding: 3048 3048 97
Width: 1425
GlyphClass: 2
Flags: W
LayerCount: 2
Fore
SplineSet
1244 70 m 1,0,-1
 1226 0 l 1,1,-1
 586 0 l 2,2,3
 429 0 429 0 429 106 c 0,4,5
 429 153 429 153 478 181.5 c 128,-1,6
 527 210 527 210 586 210 c 2,7,-1
 779 210 l 2,8,9
 867 210 867 210 928 271.5 c 128,-1,10
 989 333 989 333 989 420 c 0,11,12
 989 500 989 500 945 560.5 c 128,-1,13
 901 621 901 621 831 621 c 0,14,15
 793 621 793 621 744 595 c 1,16,17
 814 555 814 555 814 437 c 0,18,19
 814 382 814 382 772.5 344.5 c 128,-1,20
 731 307 731 307 675 307 c 0,21,22
 618 307 618 307 580 351 c 128,-1,23
 542 395 542 395 542 455 c 0,24,25
 542 565 542 565 646.5 632.5 c 128,-1,26
 751 700 751 700 884 700 c 0,27,28
 987 700 987 700 1058 629 c 128,-1,29
 1129 558 1129 558 1129 455 c 0,30,31
 1129 321 1129 321 1025.5 230.5 c 128,-1,32
 922 140 922 140 779 140 c 2,33,-1
 595 140 l 2,34,35
 551 140 551 140 551 106 c 0,36,37
 551 70 551 70 604 70 c 2,38,-1
 1244 70 l 1,0,-1
675 560 m 1,39,40
 621 516 621 516 621 473 c 0,41,42
 621 386 621 386 666 386 c 0,43,44
 709 386 709 386 709 473 c 0,45,46
 709 518 709 518 675 560 c 1,39,40
EndSplineSet
EndChar

StartChar: tm_three
Encoding: 3049 3049 98
Width: 1424
GlyphClass: 2
Flags: W
LayerCount: 2
Fore
SplineSet
1270 70 m 1,0,-1
 1252 0 l 1,1,-1
 640 0 l 1,2,-1
 657 70 l 1,3,-1
 780 70 l 2,4,5
 874 70 874 70 941 130.5 c 128,-1,6
 1008 191 1008 191 1008 280 c 0,7,8
 1008 317 1008 317 982.5 342.5 c 128,-1,9
 957 368 957 368 920 368 c 0,10,11
 890 368 890 368 865 341 c 128,-1,12
 840 314 840 314 833 280 c 2,13,-1
 815 193 l 1,14,-1
 675 193 l 1,15,-1
 764 630 l 1,16,-1
 571 630 l 1,17,-1
 444 0 l 1,18,-1
 378 0 l 1,19,-1
 517 700 l 1,20,-1
 1095 700 l 1,21,-1
 1077 630 l 1,22,-1
 902 630 l 1,23,-1
 859 403 l 1,24,25
 918 455 918 455 990 455 c 0,26,27
 1057 455 1057 455 1102.5 403.5 c 128,-1,28
 1148 352 1148 352 1148 280 c 0,29,30
 1148 209 1148 209 1090 151 c 128,-1,31
 1032 93 1032 93 947 70 c 1,32,-1
 1270 70 l 1,0,-1
EndSplineSet
EndChar

StartChar: tm_four
Encoding: 3050 3050 99
Width: 1427
GlyphClass: 2
Flags: W
LayerCount: 2
Fore
SplineSet
915 316 m 1,0,-1
 644 316 l 2,1,2
 601 316 601 316 570.5 291 c 128,-1,3
 540 266 540 266 540 228 c 0,4,5
 540 158 540 158 609.5 114 c 128,-1,6
 679 70 679 70 766 70 c 0,7,8
 811 70 811 70 844 99.5 c 128,-1,9
 877 129 877 129 887 175 c 2,10,-1
 915 316 l 1,0,-1
979 630 m 1,11,-1
 784 630 l 1,12,-1
 735 386 l 1,13,-1
 930 386 l 1,14,-1
 979 630 l 1,11,-1
1042 245 m 2,15,16
 1017 125 1017 125 940 62.5 c 128,-1,17
 863 0 863 0 766 0 c 0,18,19
 651 0 651 0 559.5 64 c 128,-1,20
 468 128 468 128 468 228 c 0,21,22
 468 294 468 294 520.5 340 c 128,-1,23
 573 386 573 386 644 386 c 2,24,-1
 669 386 l 1,25,-1
 731 700 l 1,26,-1
 1344 700 l 1,27,-1
 1329 630 l 1,28,-1
 1118 630 l 1,29,-1
 1068 386 l 1,30,-1
 1232 386 l 1,31,-1
 1248 464 l 1,32,-1
 1309 464 l 1,33,-1
 1279 316 l 1,34,-1
 1055 316 l 1,35,-1
 1042 245 l 2,15,16
EndSplineSet
EndChar

StartChar: tm_five
Encoding: 3051 3051 100
Width: 1424
GlyphClass: 2
Flags: W
LayerCount: 2
Fore
SplineSet
1412 517 m 1,0,-1
 1359 526 l 1,1,2
 1369 563 1369 563 1369 598 c 0,3,4
 1369 723 1369 723 1253.5 825.5 c 128,-1,5
 1138 928 1138 928 965 928 c 0,6,7
 728 928 728 928 575.5 716 c 128,-1,8
 423 504 423 504 423 228 c 0,9,10
 423 -43 423 -43 515 -179.5 c 128,-1,11
 607 -316 607 -316 790 -316 c 0,12,13
 979 -316 979 -316 1103.5 -163.5 c 128,-1,14
 1228 -11 1228 -11 1228 193 c 0,15,16
 1228 257 1228 257 1200 304.5 c 128,-1,17
 1172 352 1172 352 1126 352 c 0,18,19
 1099 352 1099 352 1072.5 336.5 c 128,-1,20
 1046 321 1046 321 1039 298 c 2,21,-1
 980 0 l 1,22,-1
 840 0 l 1,23,-1
 965 630 l 1,24,-1
 759 630 l 1,25,-1
 634 0 l 1,26,-1
 566 0 l 1,27,-1
 706 700 l 1,28,-1
 1237 700 l 1,29,-1
 1219 630 l 1,30,-1
 1105 630 l 1,31,-1
 1057 386 l 1,32,33
 1101 437 1101 437 1171 437 c 0,34,35
 1261 437 1261 437 1314.5 368.5 c 128,-1,36
 1368 300 1368 300 1368 193 c 0,37,38
 1368 -47 1368 -47 1202.5 -216 c 128,-1,39
 1037 -385 1037 -385 799 -385 c 0,40,41
 589 -385 589 -385 471.5 -223 c 128,-1,42
 354 -61 354 -61 354 193 c 0,43,44
 354 513 354 513 519 764 c 128,-1,45
 684 1015 684 1015 948 1015 c 0,46,47
 1152 1015 1152 1015 1288.5 889.5 c 128,-1,48
 1425 764 1425 764 1425 613 c 0,49,50
 1425 566 1425 566 1412 517 c 1,0,-1
EndSplineSet
EndChar

StartChar: tm_six
Encoding: 3052 3052 101
Width: 1424
GlyphClass: 2
Flags: W
LayerCount: 2
Fore
SplineSet
784 316 m 1,0,-1
 513 316 l 2,1,2
 469 316 469 316 438 291 c 128,-1,3
 407 266 407 266 407 228 c 0,4,5
 407 158 407 158 477 114 c 128,-1,6
 547 70 547 70 635 70 c 0,7,8
 680 70 680 70 713 99.5 c 128,-1,9
 746 129 746 129 756 175 c 2,10,-1
 784 316 l 1,0,-1
846 630 m 1,11,-1
 653 630 l 1,12,-1
 603 386 l 1,13,-1
 798 386 l 1,14,-1
 846 630 l 1,11,-1
910 245 m 2,15,16
 884 125 884 125 808 62.5 c 128,-1,17
 732 0 732 0 635 0 c 0,18,19
 518 0 518 0 428 64 c 128,-1,20
 338 128 338 128 338 228 c 0,21,22
 338 294 338 294 389.5 340 c 128,-1,23
 441 386 441 386 513 386 c 2,24,-1
 537 386 l 1,25,-1
 600 700 l 1,26,-1
 1229 700 l 1,27,-1
 1213 630 l 1,28,-1
 988 630 l 1,29,-1
 938 386 l 1,30,-1
 1422 386 l 1,31,-1
 1410 316 l 1,32,-1
 1353 316 l 1,33,-1
 1291 0 l 1,34,-1
 1151 0 l 1,35,-1
 1213 316 l 1,36,-1
 1116 316 l 1,37,-1
 1055 0 l 1,38,-1
 967 0 l 1,39,-1
 1028 316 l 1,40,-1
 924 316 l 1,41,-1
 910 245 l 2,15,16
EndSplineSet
EndChar

StartChar: tm_seven
Encoding: 3053 3053 102
Width: 1425
GlyphClass: 2
Flags: W
LayerCount: 2
Fore
SplineSet
643 88 m 1,0,1
 706 88 706 88 753 128 c 128,-1,2
 800 168 800 168 800 228 c 0,3,4
 800 269 800 269 781 301 c 128,-1,5
 762 333 762 333 729 333 c 0,6,7
 684 333 684 333 654.5 296.5 c 128,-1,8
 625 260 625 260 625 210 c 0,9,10
 625 135 625 135 643 88 c 1,0,1
1042 0 m 1,11,-1
 1167 630 l 1,12,-1
 852 630 l 2,13,14
 704 630 704 630 594.5 540.5 c 128,-1,15
 485 451 485 451 485 316 c 0,16,17
 485 247 485 247 507 194.5 c 128,-1,18
 529 142 529 142 572 106 c 1,19,20
 555 135 555 135 555 228 c 256,21,22
 555 321 555 321 614.5 388 c 128,-1,23
 674 455 674 455 765 455 c 0,24,25
 837 455 837 455 884 398 c 128,-1,26
 931 341 931 341 931 263 c 0,27,28
 931 155 931 155 863 77.5 c 128,-1,29
 795 0 795 0 695 0 c 0,30,31
 576 0 576 0 495.5 94 c 128,-1,32
 415 188 415 188 415 316 c 0,33,34
 415 481 415 481 545.5 590.5 c 128,-1,35
 676 700 676 700 852 700 c 2,36,-1
 1430 700 l 1,37,-1
 1412 630 l 1,38,-1
 1307 630 l 1,39,-1
 1181 0 l 1,40,-1
 1042 0 l 1,11,-1
EndSplineSet
EndChar

StartChar: tm_eight
Encoding: 3054 3054 103
Width: 1427
GlyphClass: 2
Flags: W
LayerCount: 2
Fore
SplineSet
849 629 m 1,0,1
 745 611 745 611 670 548.5 c 128,-1,2
 595 486 595 486 595 402 c 0,3,4
 595 338 595 338 638.5 291 c 128,-1,5
 682 244 682 244 744 244 c 0,6,7
 817 244 817 244 864 307.5 c 128,-1,8
 911 371 911 371 911 454 c 0,9,10
 911 580 911 580 849 629 c 1,0,1
1024 140 m 1,11,-1
 411 140 l 2,12,13
 381 140 381 140 357 125 c 128,-1,14
 333 110 333 110 333 87 c 0,15,16
 333 43 333 43 412 -13.5 c 128,-1,17
 491 -70 491 -70 639 -70 c 0,18,19
 743 -70 743 -70 839.5 -18 c 128,-1,20
 936 34 936 34 1024 140 c 1,11,-1
1414 -245 m 1,21,-1
 1269 -245 l 1,22,-1
 1348 140 l 1,23,-1
 1164 140 l 1,24,25
 1051 4 1051 4 915 -63.5 c 128,-1,26
 779 -131 779 -131 621 -131 c 0,27,28
 421 -131 421 -131 311.5 -52.5 c 128,-1,29
 202 26 202 26 202 123 c 0,30,31
 202 160 202 160 233 184.5 c 128,-1,32
 264 209 264 209 307 209 c 2,33,-1
 666 209 l 1,34,35
 604 231 604 231 565 284.5 c 128,-1,36
 526 338 526 338 526 402 c 0,37,38
 526 534 526 534 652 617 c 128,-1,39
 778 700 778 700 937 700 c 0,40,41
 1069 700 1069 700 1169 620.5 c 128,-1,42
 1269 541 1269 541 1269 420 c 0,43,44
 1269 306 1269 306 1213 209 c 1,45,-1
 1364 209 l 1,46,-1
 1463 700 l 1,47,-1
 1603 700 l 1,48,-1
 1414 -245 l 1,21,-1
989 620 m 1,49,50
 1042 530 1042 530 1042 411 c 0,51,52
 1042 267 1042 267 919 209 c 1,53,-1
 1077 209 l 1,54,55
 1146 308 1146 308 1146 402 c 0,56,57
 1146 486 1146 486 1103 553 c 128,-1,58
 1060 620 1060 620 989 620 c 1,49,50
EndSplineSet
EndChar

StartChar: tm_nine
Encoding: 3055 3055 104
Width: 1427
GlyphClass: 2
Flags: W
LayerCount: 2
Fore
SplineSet
692 316 m 1,0,-1
 422 316 l 2,1,2
 379 316 379 316 348 291 c 128,-1,3
 317 266 317 266 317 228 c 0,4,5
 317 158 317 158 387 114 c 128,-1,6
 457 70 457 70 544 70 c 0,7,8
 589 70 589 70 622 99.5 c 128,-1,9
 655 129 655 129 665 175 c 2,10,-1
 692 316 l 1,0,-1
756 630 m 1,11,-1
 562 630 l 1,12,-1
 513 386 l 1,13,-1
 707 386 l 1,14,-1
 756 630 l 1,11,-1
1157 175 m 0,15,16
 1157 259 1157 259 1052 298 c 1,17,18
 982 240 982 240 982 158 c 0,19,20
 982 121 982 121 1007.5 95.5 c 128,-1,21
 1033 70 1033 70 1068 70 c 0,22,23
 1107 70 1107 70 1132 101.5 c 128,-1,24
 1157 133 1157 133 1157 175 c 0,15,16
1297 0 m 1,25,26
 1375 93 1375 93 1375 193 c 0,27,28
 1375 263 1375 263 1332.5 315.5 c 128,-1,29
 1290 368 1290 368 1226 368 c 0,30,31
 1163 368 1163 368 1113 342 c 1,32,33
 1167 322 1167 322 1201 276.5 c 128,-1,34
 1235 231 1235 231 1235 175 c 0,35,36
 1235 104 1235 104 1187 52 c 128,-1,37
 1139 0 1139 0 1068 0 c 0,38,39
 1005 0 1005 0 958.5 46.5 c 128,-1,40
 912 93 912 93 912 158 c 0,41,42
 912 257 912 257 982 316 c 1,43,-1
 833 316 l 1,44,-1
 819 245 l 2,45,46
 795 125 795 125 718.5 62.5 c 128,-1,47
 642 0 642 0 544 0 c 0,48,49
 428 0 428 0 337 64 c 128,-1,50
 246 128 246 128 246 228 c 0,51,52
 246 294 246 294 299 340 c 128,-1,53
 352 386 352 386 422 386 c 2,54,-1
 446 386 l 1,55,-1
 508 700 l 1,56,-1
 1122 700 l 1,57,-1
 1104 630 l 1,58,-1
 896 630 l 1,59,-1
 847 386 l 1,60,-1
 947 386 l 2,61,62
 1014 386 1014 386 1052 368 c 1,63,64
 1111 420 1111 420 1226 420 c 0,65,66
 1327 420 1327 420 1399.5 354.5 c 128,-1,67
 1472 289 1472 289 1472 193 c 0,68,69
 1472 109 1472 109 1410 0 c 1,70,-1
 1297 0 l 1,25,26
EndSplineSet
EndChar

StartChar: tm_ten
Encoding: 3056 3056 105
Width: 1260
GlyphClass: 2
Flags: W
LayerCount: 2
Fore
SplineSet
597 149 m 1,0,1
 558 74 558 74 508 37 c 128,-1,2
 458 0 458 0 395 0 c 0,3,4
 302 0 302 0 242 64 c 128,-1,5
 182 128 182 128 182 200 c 0,6,7
 182 224 182 224 186 244 c 2,8,-1
 279 700 l 1,9,-1
 419 700 l 1,10,-1
 325 244 l 2,11,12
 320 223 320 223 320 205 c 0,13,14
 320 155 320 155 346.5 112.5 c 128,-1,15
 373 70 373 70 413 70 c 0,16,17
 472 70 472 70 525 146 c 128,-1,18
 578 222 578 222 606 359 c 2,19,-1
 675 700 l 1,20,-1
 815 700 l 1,21,-1
 746 351 l 2,22,23
 728 262 728 262 728 204 c 0,24,25
 728 150 728 150 760.5 110 c 128,-1,26
 793 70 793 70 841 70 c 0,27,28
 957 70 957 70 1026 204 c 128,-1,29
 1095 338 1095 338 1095 500 c 0,30,31
 1095 691 1095 691 995.5 840 c 128,-1,32
 896 989 896 989 737 989 c 1,33,-1
 755 1042 l 1,34,35
 960 1042 960 1042 1097.5 880.5 c 128,-1,36
 1235 719 1235 719 1235 500 c 0,37,38
 1235 300 1235 300 1118.5 150 c 128,-1,39
 1002 0 1002 0 824 0 c 0,40,41
 739 0 739 0 673.5 40.5 c 128,-1,42
 608 81 608 81 597 149 c 1,0,1
EndSplineSet
EndChar

StartChar: tm_hundred
Encoding: 3057 3057 106
Width: 1166
GlyphClass: 2
Flags: W
LayerCount: 2
Fore
SplineSet
1284 700 m 1,0,-1
 1267 629 l 1,1,-1
 1117 629 l 1,2,-1
 991 0 l 1,3,-1
 851 0 l 1,4,-1
 977 629 l 1,5,-1
 770 629 l 1,6,-1
 644 0 l 1,7,-1
 504 0 l 1,8,-1
 599 472 l 2,9,10
 606 507 606 507 606 534 c 0,11,12
 606 579 606 579 589 613 c 128,-1,13
 572 647 572 647 540 647 c 0,14,15
 483 647 483 647 440 595.5 c 128,-1,16
 397 544 397 544 382 472 c 2,17,-1
 285 0 l 1,18,-1
 146 0 l 1,19,-1
 242 472 l 2,20,21
 263 577 263 577 336.5 647 c 128,-1,22
 410 717 410 717 503 717 c 0,23,24
 567 717 567 717 614 679.5 c 128,-1,25
 661 642 661 642 661 585 c 1,26,-1
 685 700 l 1,27,-1
 1284 700 l 1,0,-1
EndSplineSet
EndChar

StartChar: tm_thousand
Encoding: 3058 3058 107
Width: 1256
GlyphClass: 2
Flags: W
LayerCount: 2
Fore
SplineSet
551 316 m 1,0,-1
 280 316 l 2,1,2
 237 316 237 316 206 291 c 128,-1,3
 175 266 175 266 175 228 c 0,4,5
 175 158 175 158 245.5 114 c 128,-1,6
 316 70 316 70 402 70 c 0,7,8
 447 70 447 70 480 99.5 c 128,-1,9
 513 129 513 129 523 175 c 2,10,-1
 551 316 l 1,0,-1
615 630 m 1,11,-1
 420 630 l 1,12,-1
 371 386 l 1,13,-1
 565 386 l 1,14,-1
 615 630 l 1,11,-1
677 245 m 2,15,16
 653 125 653 125 576 62.5 c 128,-1,17
 499 0 499 0 402 0 c 0,18,19
 285 0 285 0 195 64 c 128,-1,20
 105 128 105 128 105 228 c 0,21,22
 105 294 105 294 156.5 340 c 128,-1,23
 208 386 208 386 280 386 c 2,24,-1
 304 386 l 1,25,-1
 367 700 l 1,26,-1
 997 700 l 1,27,-1
 983 630 l 1,28,-1
 755 630 l 1,29,-1
 705 386 l 1,30,-1
 1120 386 l 1,31,-1
 1105 316 l 1,32,-1
 971 316 l 1,33,-1
 945 175 l 1,34,35
 990 228 990 228 1067 228 c 0,36,37
 1134 228 1134 228 1179.5 176 c 128,-1,38
 1225 124 1225 124 1225 53 c 0,39,40
 1225 -78 1225 -78 1108 -161 c 128,-1,41
 991 -244 991 -244 840 -244 c 0,42,43
 740 -244 740 -244 542 -205 c 0,44,45
 346 -167 346 -167 244 -167 c 0,46,47
 181 -167 181 -167 134 -206.5 c 128,-1,48
 87 -246 87 -246 87 -307 c 0,49,50
 87 -384 87 -384 158 -411 c 1,51,-1
 149 -445 l 1,52,53
 82 -433 82 -433 36.5 -387 c 128,-1,54
 -9 -341 -9 -341 -9 -280 c 0,55,56
 -9 -205 -9 -205 70.5 -159.5 c 128,-1,57
 150 -114 150 -114 244 -114 c 0,58,59
 346 -114 346 -114 542 -153 c 0,60,61
 740 -192 740 -192 840 -192 c 0,62,63
 938 -192 938 -192 1011.5 -135 c 128,-1,64
 1085 -78 1085 -78 1085 9 c 0,65,66
 1085 61 1085 61 1061 100.5 c 128,-1,67
 1037 140 1037 140 997 140 c 256,68,69
 957 140 957 140 927 88 c 1,70,-1
 910 0 l 1,71,-1
 769 0 l 1,72,-1
 831 316 l 1,73,-1
 691 316 l 1,74,-1
 677 245 l 2,15,16
EndSplineSet
EndChar

StartChar: zerowidthnonjoiner
Encoding: 8204 8204 108
Width: 0
GlyphClass: 2
Flags: W
LayerCount: 2
Fore
SplineSet
315 1225 m 1,0,-1
 -34 -516 l 1,1,-1
 -103 -516 l 1,2,-1
 244 1225 l 1,3,-1
 315 1225 l 1,0,-1
EndSplineSet
EndChar

StartChar: zerowidthjoiner
Encoding: 8205 8205 109
Width: 0
GlyphClass: 2
Flags: W
LayerCount: 2
Fore
SplineSet
415 997 m 1,0,-1
 363 953 l 1,1,-1
 270 1073 l 1,2,-1
 -24 -441 l 1,3,-1
 -87 -441 l 1,4,-1
 206 1073 l 1,5,-1
 65 953 l 1,6,-1
 32 997 l 1,7,-1
 210 1145 l 1,8,-1
 89 1292 l 1,9,-1
 140 1334 l 1,10,-1
 260 1185 l 1,11,-1
 437 1334 l 1,12,-1
 472 1292 l 1,13,-1
 294 1145 l 1,14,-1
 415 997 l 1,0,-1
EndSplineSet
EndChar

StartChar: u2013
Encoding: 8211 8211 110
Width: 722
GlyphClass: 2
Flags: W
LayerCount: 2
Fore
SplineSet
733 319 m 1,0,-1
 -12 319 l 1,1,-1
 -12 370 l 1,2,-1
 733 370 l 1,3,-1
 733 319 l 1,0,-1
EndSplineSet
EndChar

StartChar: u2014
Encoding: 8212 8212 111
Width: 1284
GlyphClass: 2
Flags: W
LayerCount: 2
Fore
SplineSet
1296 318 m 1,0,-1
 -13 319 l 1,1,-1
 -13 371 l 1,2,-1
 1296 370 l 1,3,-1
 1296 318 l 1,0,-1
EndSplineSet
EndChar

StartChar: u2018
Encoding: 8216 8216 112
Width: 338
GlyphClass: 2
Flags: W
LayerCount: 2
Fore
SplineSet
310 770 m 0,0,1
 310 708 310 708 267 665 c 128,-1,2
 224 622 224 622 162 622 c 0,3,4
 102 622 102 622 58 666 c 128,-1,5
 14 710 14 710 14 772 c 0,6,7
 14 872 14 872 92 966 c 0,8,9
 164 1052 164 1052 228 1052 c 0,10,11
 284 1052 284 1052 284 992 c 0,12,13
 284 964 284 964 250 946 c 0,14,15
 198 916 198 916 192 910 c 1,16,17
 242 900 242 900 276 861 c 128,-1,18
 310 822 310 822 310 770 c 0,0,1
EndSplineSet
EndChar

StartChar: u2019
Encoding: 8217 8217 113
Width: 338
GlyphClass: 2
Flags: W
LayerCount: 2
Fore
SplineSet
324 904 m 0,0,1
 324 804 324 804 246 710 c 0,2,3
 174 624 174 624 110 624 c 0,4,5
 54 624 54 624 54 684 c 0,6,7
 54 712 54 712 88 730 c 0,8,9
 140 760 140 760 146 766 c 1,10,11
 96 776 96 776 62 815 c 128,-1,12
 28 854 28 854 28 906 c 0,13,14
 28 968 28 968 71 1011 c 128,-1,15
 114 1054 114 1054 176 1054 c 0,16,17
 236 1054 236 1054 280 1010 c 128,-1,18
 324 966 324 966 324 904 c 0,0,1
EndSplineSet
EndChar

StartChar: u201C
Encoding: 8220 8220 114
Width: 515
GlyphClass: 2
Flags: W
LayerCount: 2
Fore
SplineSet
322 870 m 0,0,1
 322 808 322 808 279 765 c 128,-1,2
 236 722 236 722 174 722 c 0,3,4
 114 722 114 722 70 766 c 128,-1,5
 26 810 26 810 26 872 c 0,6,7
 26 972 26 972 104 1066 c 0,8,9
 176 1152 176 1152 240 1152 c 0,10,11
 296 1152 296 1152 296 1092 c 0,12,13
 296 1064 296 1064 262 1046 c 0,14,15
 210 1016 210 1016 204 1010 c 1,16,17
 254 1000 254 1000 288 961 c 128,-1,18
 322 922 322 922 322 870 c 0,0,1
622 870 m 0,19,20
 622 808 622 808 579 765 c 128,-1,21
 536 722 536 722 474 722 c 0,22,23
 414 722 414 722 370 766 c 128,-1,24
 326 810 326 810 326 872 c 0,25,26
 326 972 326 972 404 1066 c 0,27,28
 476 1152 476 1152 540 1152 c 0,29,30
 596 1152 596 1152 596 1092 c 0,31,32
 596 1064 596 1064 562 1046 c 0,33,34
 510 1016 510 1016 504 1010 c 1,35,36
 554 1000 554 1000 588 961 c 128,-1,37
 622 922 622 922 622 870 c 0,19,20
EndSplineSet
EndChar

StartChar: u201D
Encoding: 8221 8221 115
Width: 658
GlyphClass: 2
Flags: W
LayerCount: 2
Fore
SplineSet
344 984 m 0,0,1
 344 884 344 884 266 790 c 0,2,3
 194 704 194 704 130 704 c 0,4,5
 74 704 74 704 74 764 c 0,6,7
 74 792 74 792 108 810 c 0,8,9
 160 840 160 840 166 846 c 1,10,11
 116 856 116 856 82 895 c 128,-1,12
 48 934 48 934 48 986 c 0,13,14
 48 1048 48 1048 91 1091 c 128,-1,15
 134 1134 134 1134 196 1134 c 0,16,17
 256 1134 256 1134 300 1090 c 128,-1,18
 344 1046 344 1046 344 984 c 0,0,1
654 984 m 0,19,20
 654 884 654 884 576 790 c 0,21,22
 504 704 504 704 440 704 c 0,23,24
 384 704 384 704 384 764 c 0,25,26
 384 792 384 792 418 810 c 0,27,28
 470 840 470 840 476 846 c 1,29,30
 426 856 426 856 392 895 c 128,-1,31
 358 934 358 934 358 986 c 0,32,33
 358 1048 358 1048 401 1091 c 128,-1,34
 444 1134 444 1134 506 1134 c 0,35,36
 566 1134 566 1134 610 1090 c 128,-1,37
 654 1046 654 1046 654 984 c 0,19,20
EndSplineSet
EndChar

StartChar: u2026
Encoding: 8230 8230 116
Width: 1283
GlyphClass: 2
Flags: W
LayerCount: 2
Fore
SplineSet
265 136 m 0,0,1
 298 136 298 136 320.5 114 c 128,-1,2
 343 92 343 92 343 58 c 0,3,4
 343 26 343 26 320.5 3 c 128,-1,5
 298 -20 298 -20 265 -20 c 0,6,7
 233 -20 233 -20 210 3 c 128,-1,8
 187 26 187 26 187 58 c 0,9,10
 187 92 187 92 210 114 c 128,-1,11
 233 136 233 136 265 136 c 0,0,1
638 136 m 256,12,13
 670 136 670 136 693 114 c 128,-1,14
 716 92 716 92 716 58 c 0,15,16
 716 26 716 26 692.5 3 c 128,-1,17
 669 -20 669 -20 638 -20 c 0,18,19
 606 -20 606 -20 583 3 c 128,-1,20
 560 26 560 26 560 58 c 0,21,22
 560 92 560 92 583 114 c 128,-1,23
 606 136 606 136 638 136 c 256,12,13
1010 136 m 0,24,25
 1043 136 1043 136 1066 114 c 128,-1,26
 1089 92 1089 92 1089 58 c 0,27,28
 1089 26 1089 26 1065.5 3 c 128,-1,29
 1042 -20 1042 -20 1010 -20 c 256,30,31
 978 -20 978 -20 955.5 3 c 128,-1,32
 933 26 933 26 933 58 c 0,33,34
 933 92 933 92 955.5 114 c 128,-1,35
 978 136 978 136 1010 136 c 0,24,25
EndSplineSet
EndChar

StartChar: u2212
Encoding: 8722 8722 117
Width: 974
GlyphClass: 2
Flags: W
LayerCount: 2
Fore
SplineSet
133 450 m 1,0,-1
 133 508 l 1,1,-1
 894 508 l 1,2,-1
 894 450 l 1,3,-1
 133 450 l 1,0,-1
EndSplineSet
EndChar

StartChar: u25CC
Encoding: 9676 9676 118
Width: 1167
GlyphClass: 2
Flags: W
LayerCount: 2
Fore
SplineSet
654 665 m 0,0,1
 626 665 626 665 612 679 c 128,-1,2
 598 693 598 693 598 724 c 0,3,4
 598 746 598 746 615 762.5 c 128,-1,5
 632 779 632 779 654 779 c 0,6,7
 683 779 683 779 697.5 765 c 128,-1,8
 712 751 712 751 712 724 c 0,9,10
 712 693 712 693 697.5 679 c 128,-1,11
 683 665 683 665 654 665 c 0,0,1
840 616 m 0,12,13
 811 616 811 616 796.5 630.5 c 128,-1,14
 782 645 782 645 782 674 c 0,15,16
 782 701 782 701 796.5 715 c 128,-1,17
 811 729 811 729 840 729 c 0,18,19
 862 729 862 729 879 713 c 128,-1,20
 896 697 896 697 896 674 c 0,21,22
 896 645 896 645 882 630.5 c 128,-1,23
 868 616 868 616 840 616 c 0,12,13
470 616 m 0,24,25
 442 616 442 616 428 630.5 c 128,-1,26
 414 645 414 645 414 674 c 0,27,28
 414 697 414 697 431 713 c 128,-1,29
 448 729 448 729 470 729 c 0,30,31
 494 729 494 729 510 713 c 128,-1,32
 526 697 526 697 526 674 c 0,33,34
 526 645 526 645 512.5 630.5 c 128,-1,35
 499 616 499 616 470 616 c 0,24,25
973 482 m 0,36,37
 951 482 951 482 933.5 498 c 128,-1,38
 916 514 916 514 916 538 c 0,39,40
 916 567 916 567 930.5 581 c 128,-1,41
 945 595 945 595 973 595 c 256,42,43
 1001 595 1001 595 1014.5 581 c 128,-1,44
 1028 567 1028 567 1028 538 c 0,45,46
 1028 514 1028 514 1012 498 c 128,-1,47
 996 482 996 482 973 482 c 0,36,37
336 482 m 0,48,49
 307 482 307 482 293 495.5 c 128,-1,50
 279 509 279 509 279 538 c 256,51,52
 279 567 279 567 293 581 c 128,-1,53
 307 595 307 595 336 595 c 0,54,55
 364 595 364 595 378 581 c 128,-1,56
 392 567 392 567 392 538 c 0,57,58
 392 514 392 514 375 498 c 128,-1,59
 358 482 358 482 336 482 c 0,48,49
1024 298 m 0,60,61
 994 298 994 298 979.5 311.5 c 128,-1,62
 965 325 965 325 965 354 c 0,63,64
 965 382 965 382 979.5 396 c 128,-1,65
 994 410 994 410 1024 410 c 0,66,67
 1046 410 1046 410 1063 393 c 128,-1,68
 1080 376 1080 376 1080 354 c 0,69,70
 1080 331 1080 331 1063 314.5 c 128,-1,71
 1046 298 1046 298 1024 298 c 0,60,61
287 298 m 0,72,73
 257 298 257 298 243 311.5 c 128,-1,74
 229 325 229 325 229 354 c 0,75,76
 229 382 229 382 243 396 c 128,-1,77
 257 410 257 410 287 410 c 0,78,79
 310 410 310 410 326.5 393 c 128,-1,80
 343 376 343 376 343 354 c 0,81,82
 343 331 343 331 326.5 314.5 c 128,-1,83
 310 298 310 298 287 298 c 0,72,73
973 112 m 256,84,85
 945 112 945 112 930.5 126.5 c 128,-1,86
 916 141 916 141 916 169 c 0,87,88
 916 193 916 193 933.5 209.5 c 128,-1,89
 951 226 951 226 973 226 c 0,90,91
 996 226 996 226 1012 209.5 c 128,-1,92
 1028 193 1028 193 1028 169 c 0,93,94
 1028 141 1028 141 1014.5 126.5 c 128,-1,95
 1001 112 1001 112 973 112 c 256,84,85
336 112 m 0,96,97
 307 112 307 112 293 126.5 c 128,-1,98
 279 141 279 141 279 169 c 0,99,100
 279 198 279 198 293 212 c 128,-1,101
 307 226 307 226 336 226 c 0,102,103
 358 226 358 226 375 209.5 c 128,-1,104
 392 193 392 193 392 169 c 0,105,106
 392 141 392 141 378 126.5 c 128,-1,107
 364 112 364 112 336 112 c 0,96,97
840 -22 m 0,108,109
 811 -22 811 -22 796.5 -8 c 128,-1,110
 782 6 782 6 782 34 c 0,111,112
 782 63 782 63 796.5 78 c 128,-1,113
 811 93 811 93 840 93 c 0,114,115
 863 93 863 93 879.5 75 c 128,-1,116
 896 57 896 57 896 34 c 256,117,118
 896 11 896 11 879 -5.5 c 128,-1,119
 862 -22 862 -22 840 -22 c 0,108,109
470 -22 m 0,120,121
 448 -22 448 -22 431 -5.5 c 128,-1,122
 414 11 414 11 414 34 c 256,123,124
 414 57 414 57 430.5 75 c 128,-1,125
 447 93 447 93 470 93 c 0,126,127
 495 93 495 93 510.5 75 c 128,-1,128
 526 57 526 57 526 34 c 256,129,130
 526 11 526 11 510 -5.5 c 128,-1,131
 494 -22 494 -22 470 -22 c 0,120,121
654 -72 m 0,132,133
 632 -72 632 -72 615 -55 c 128,-1,134
 598 -38 598 -38 598 -16 c 0,135,136
 598 14 598 14 612 28.5 c 128,-1,137
 626 43 626 43 654 43 c 0,138,139
 683 43 683 43 697.5 28.5 c 128,-1,140
 712 14 712 14 712 -16 c 0,141,142
 712 -44 712 -44 697.5 -58 c 128,-1,143
 683 -72 683 -72 654 -72 c 0,132,133
EndSplineSet
EndChar

StartChar: tm_k_ikaar
Encoding: 65539 -1 119
Width: 1428
GlyphClass: 2
Flags: W
LayerCount: 2
Fore
SplineSet
1456 824 m 0,0,1
 1456 694 1456 694 1376 560 c 128,-1,2
 1296 426 1296 426 1226 426 c 0,3,4
 1194 426 1194 426 1168 456 c 128,-1,5
 1142 486 1142 486 1142 518 c 0,6,7
 1142 534 1142 534 1180 574 c 0,8,9
 1228 626 1228 626 1248 664 c 0,10,11
 1286 730 1286 730 1286 810 c 0,12,13
 1286 922 1286 922 1152 922 c 0,14,15
 1106 922 1106 922 1049 859 c 128,-1,16
 992 796 992 796 948 796 c 0,17,18
 918 796 918 796 892 814 c 128,-1,19
 866 832 866 832 866 856 c 0,20,21
 866 956 866 956 962 1028 c 128,-1,22
 1058 1100 1058 1100 1178 1100 c 0,23,24
 1292 1100 1292 1100 1372 1026 c 0,25,26
 1456 946 1456 946 1456 824 c 0,0,1
1156 362 m 0,27,28
 1156 206 1156 206 944 66 c 0,29,30
 750 -64 750 -64 580 -64 c 0,31,32
 468 -64 468 -64 468 8 c 0,33,34
 468 54 468 54 514 88 c 1,35,36
 622 74 622 74 785 158 c 128,-1,37
 948 242 948 242 948 312 c 0,38,39
 948 396 948 396 802 396 c 0,40,41
 754 396 754 396 732 376 c 1,42,43
 580 188 580 188 508 122 c 0,44,45
 342 -32 342 -32 194 -32 c 0,46,47
 130 -32 130 -32 80 11 c 128,-1,48
 30 54 30 54 30 108 c 0,49,50
 30 300 30 300 272 424 c 0,51,52
 464 524 464 524 666 530 c 1,53,-1
 758 630 l 1,54,-1
 570 630 l 1,55,56
 572 586 572 586 535 555 c 128,-1,57
 498 524 498 524 468 524 c 0,58,59
 422 524 422 524 391 553 c 128,-1,60
 360 582 360 582 360 626 c 0,61,62
 360 680 360 680 414 724 c 128,-1,63
 468 768 468 768 526 768 c 2,64,-1
 952 768 l 2,65,66
 1080 768 1080 768 1080 710 c 0,67,68
 1080 638 1080 638 990 608 c 0,69,70
 894 574 894 574 886 530 c 1,71,72
 1000 534 1000 534 1074 494 c 0,73,74
 1156 450 1156 450 1156 362 c 0,27,28
536 366 m 1,75,76
 408 340 408 340 308 277 c 128,-1,77
 208 214 208 214 208 166 c 0,78,79
 208 132 208 132 246 132 c 0,80,81
 282 132 282 132 386 222 c 0,82,83
 468 292 468 292 536 366 c 1,75,76
EndSplineSet
Ligature2: "'psts' Post Base Substitutions lookup 8 subtable" tm_ka tm_ikaar
EndChar

StartChar: tm_ng_ikaar
Encoding: 65540 -1 120
Width: 1914
GlyphClass: 2
Flags: W
LayerCount: 2
Fore
SplineSet
1550 930 m 0,0,1
 1550 910 1550 910 1508 828 c 2,2,-1
 1128 94 l 2,3,4
 1066 -24 1066 -24 948 -32 c 2,5,-1
 606 -54 l 2,6,7
 570 -56 570 -56 542 -28 c 128,-1,8
 514 0 514 0 514 36 c 0,9,10
 514 94 514 94 554 116 c 1,11,12
 602 134 602 134 652 152 c 0,13,14
 722 182 722 182 722 272 c 0,15,16
 722 352 722 352 652 352 c 0,17,18
 574 352 574 352 518 258 c 1,19,20
 478 170 478 170 436 80 c 1,21,22
 384 -14 384 -14 318 -14 c 0,23,24
 282 -14 282 -14 255 7 c 128,-1,25
 228 28 228 28 228 62 c 0,26,27
 228 88 228 88 338 300 c 0,28,29
 462 540 462 540 484 600 c 1,30,31
 448 604 448 604 418 604 c 0,32,33
 212 604 212 604 212 456 c 0,34,35
 212 406 212 406 232 359 c 128,-1,36
 252 312 252 312 252 292 c 0,37,38
 252 220 252 220 156 220 c 0,39,40
 98 220 98 220 62 274 c 0,41,42
 30 322 30 322 30 388 c 0,43,44
 30 586 30 586 146 684 c 0,45,46
 244 768 244 768 410 768 c 2,47,-1
 814 768 l 2,48,49
 852 768 852 768 874 742 c 128,-1,50
 896 716 896 716 896 686 c 0,51,52
 896 648 896 648 866 624 c 128,-1,53
 836 600 836 600 794 600 c 2,54,-1
 680 600 l 1,55,-1
 638 506 l 1,56,57
 714 526 714 526 712 526 c 1,58,59
 812 526 812 526 866 462 c 0,60,61
 914 406 914 406 914 312 c 0,62,63
 914 192 914 192 844 126 c 1,64,65
 936 126 936 126 962 152 c 0,66,67
 978 168 978 168 1014 242 c 0,68,69
 1072 362 1072 362 1080 378 c 0,70,71
 1180 585 1180 585 1279 792 c 1,72,73
 1170 840 1170 840 1170 946 c 0,74,75
 1170 1100 1170 1100 1324 1230 c 128,-1,76
 1478 1360 1478 1360 1646 1360 c 0,77,78
 1872 1360 1872 1360 1872 1092 c 0,79,80
 1872 918 1872 918 1786 614 c 0,81,82
 1706 336 1706 336 1640 222 c 0,83,84
 1610 170 1610 170 1572 170 c 0,85,86
 1482 170 1482 170 1482 254 c 0,87,88
 1482 286 1482 286 1540 416 c 0,89,90
 1614 584 1614 584 1648 694 c 0,91,92
 1706 882 1706 882 1706 1052 c 0,93,94
 1706 1190 1706 1190 1624 1190 c 0,95,96
 1532 1190 1532 1190 1444 1114 c 128,-1,97
 1356 1038 1356 1038 1356 980 c 0,98,99
 1356 957 1356 957 1362 943 c 1,100,101
 1411 1020 1411 1020 1438 1020 c 0,102,103
 1484 1020 1484 1020 1517 992 c 128,-1,104
 1550 964 1550 964 1550 930 c 0,0,1
EndSplineSet
Ligature2: "'psts' Post Base Substitutions lookup 8 subtable" tm_nga tm_ikaar
EndChar

StartChar: tm_c_ikaar
Encoding: 65541 -1 121
Width: 1418
GlyphClass: 2
Flags: W
LayerCount: 2
Fore
SplineSet
1348 458 m 0,0,1
 1348 186 1348 186 1316 72 c 0,2,3
 1288 -28 1288 -28 1224 -28 c 0,4,5
 1194 -28 1194 -28 1173 -5 c 128,-1,6
 1152 18 1152 18 1152 48 c 1,7,8
 1152 46 1152 46 1180 184 c 128,-1,9
 1208 322 1208 322 1208 474 c 0,10,11
 1208 660 1208 660 1174 830 c 0,12,13
 1138 1014 1138 1014 1090 1014 c 0,14,15
 1036 1014 1036 1014 963 909 c 128,-1,16
 890 804 890 804 852 804 c 0,17,18
 760 804 760 804 760 898 c 0,19,20
 760 956 760 956 878 1068 c 0,21,22
 1008 1188 1008 1188 1110 1188 c 0,23,24
 1348 1188 1348 1188 1348 458 c 0,0,1
1162 462 m 0,25,26
 1162 382 1162 382 1040 382 c 1,27,28
 1042 382 1042 382 976 386 c 128,-1,29
 910 390 910 390 858 390 c 0,30,31
 784 388 784 388 732 380 c 1,32,33
 600 186 600 186 512 104 c 0,34,35
 384 -12 384 -12 242 -12 c 0,36,37
 134 -12 134 -12 78 48 c 0,38,39
 30 96 30 96 30 168 c 0,40,41
 30 352 30 352 272 450 c 0,42,43
 424 510 424 510 652 530 c 1,44,-1
 722 622 l 1,45,-1
 558 622 l 1,46,47
 564 596 564 596 525 561 c 128,-1,48
 486 526 486 526 448 524 c 0,49,50
 406 522 406 522 373 556 c 128,-1,51
 340 590 340 590 340 632 c 0,52,53
 340 688 340 688 382 728 c 128,-1,54
 424 768 424 768 498 768 c 2,55,-1
 996 768 l 2,56,57
 1072 768 1072 768 1072 700 c 0,58,59
 1072 644 1072 644 988 622 c 0,60,61
 886 596 886 596 852 536 c 1,62,63
 950 536 950 536 1050 536 c 1,64,65
 1162 530 1162 530 1162 462 c 0,25,26
536 366 m 1,66,67
 396 342 396 342 303 295 c 128,-1,68
 210 248 210 248 210 204 c 0,69,70
 210 154 210 154 262 154 c 0,71,72
 416 154 416 154 536 366 c 1,66,67
EndSplineSet
Ligature2: "'psts' Post Base Substitutions lookup 8 subtable" tm_ca tm_ikaar
EndChar

StartChar: tm_j_ikaar
Encoding: 65542 -1 122
Width: 1420
GlyphClass: 2
Flags: W
LayerCount: 2
Fore
SplineSet
1350 494 m 0,0,1
 1350 82 1350 82 1320 8 c 0,2,3
 1294 -58 1294 -58 1224 -58 c 0,4,5
 1192 -58 1192 -58 1172 -33 c 128,-1,6
 1152 -8 1152 -8 1152 20 c 1,7,8
 1152 16 1152 16 1170 134 c 128,-1,9
 1188 252 1188 252 1188 432 c 0,10,11
 1188 650 1188 650 1149 821 c 128,-1,12
 1110 992 1110 992 1064 992 c 0,13,14
 1004 992 1004 992 966 940 c 1,15,16
 938 892 938 892 910 842 c 128,-1,17
 882 792 882 792 844 792 c 0,18,19
 756 792 756 792 756 870 c 0,20,21
 756 950 756 950 858 1058 c 0,22,23
 970 1174 970 1174 1086 1174 c 0,24,25
 1206 1174 1206 1174 1278 982 c 128,-1,26
 1350 790 1350 790 1350 494 c 0,0,1
1116 598 m 0,27,28
 1116 312 1116 312 676 122 c 0,29,30
 486 42 486 42 294 -40 c 1,31,32
 118 -128 118 -128 118 -226 c 0,33,34
 118 -294 118 -294 180 -294 c 0,35,36
 238 -294 238 -294 336 -222 c 0,37,38
 388 -184 388 -184 524 -66 c 0,39,40
 598 0 598 0 674 62 c 128,-1,41
 750 124 750 124 814 124 c 0,42,43
 854 124 854 124 891 92 c 128,-1,44
 928 60 928 60 938 14 c 2,45,-1
 1032 -398 l 2,46,47
 1034 -408 1034 -408 1034 -418 c 0,48,49
 1034 -500 1034 -500 944 -500 c 0,50,51
 882 -500 882 -500 870 -446 c 2,52,-1
 792 -118 l 2,53,54
 782 -76 782 -76 766 -76 c 0,55,56
 742 -76 742 -76 632 -176 c 0,57,58
 484 -306 484 -306 408 -358 c 0,59,60
 268 -458 268 -458 170 -458 c 0,61,62
 66 -458 66 -458 -2 -394 c 128,-1,63
 -70 -330 -70 -330 -70 -232 c 0,64,65
 -70 -78 -70 -78 110 34 c 0,66,67
 182 78 182 78 490 206 c 0,68,69
 934 390 934 390 934 556 c 0,70,71
 934 610 934 610 892 610 c 256,72,73
 850 610 850 610 789 562 c 128,-1,74
 728 514 728 514 694 454 c 0,75,76
 670 404 670 404 644 357 c 128,-1,77
 618 310 618 310 572 310 c 0,78,79
 508 310 508 310 490 354 c 2,80,-1
 388 608 l 1,81,82
 346 566 346 566 284 470 c 128,-1,83
 222 374 222 374 222 342 c 0,84,85
 222 322 222 322 238 322 c 0,86,87
 264 322 264 322 287 393 c 128,-1,88
 310 464 310 464 370 464 c 0,89,90
 396 464 396 464 416 442 c 128,-1,91
 436 420 436 420 436 396 c 0,92,93
 436 318 436 318 357 236 c 128,-1,94
 278 154 278 154 208 154 c 0,95,96
 134 154 134 154 86 192 c 0,97,98
 30 236 30 236 30 318 c 0,99,100
 30 392 30 392 82 462 c 2,101,-1
 232 662 l 2,102,103
 318 776 318 776 400 776 c 0,104,105
 486 776 486 776 516 710 c 2,106,-1
 588 556 l 1,107,108
 760 776 760 776 938 776 c 0,109,110
 1014 776 1014 776 1065 728 c 128,-1,111
 1116 680 1116 680 1116 598 c 0,27,28
EndSplineSet
Ligature2: "'psts' Post Base Substitutions lookup 8 subtable" tm_ja tm_ikaar
EndChar

StartChar: tm_ny_ikaar
Encoding: 65543 -1 123
Width: 1760
GlyphClass: 2
Flags: W
LayerCount: 2
Fore
SplineSet
1512 340 m 0,0,1
 1512 88 1512 88 1232 -121 c 128,-1,2
 952 -330 952 -330 628 -330 c 0,3,4
 370 -330 370 -330 210 -218 c 0,5,6
 30 -90 30 -90 30 148 c 0,7,8
 30 322 30 322 152 496 c 0,9,10
 268 664 268 664 366 664 c 0,11,12
 398 664 398 664 420 641 c 128,-1,13
 442 618 442 618 442 588 c 0,14,15
 442 534 442 534 386 476 c 0,16,17
 304 392 304 392 284 358 c 0,18,19
 228 266 228 266 228 128 c 0,20,21
 228 -18 228 -18 344 -94 c 0,22,23
 444 -160 444 -160 600 -160 c 0,24,25
 872 -160 872 -160 1095 -13 c 128,-1,26
 1318 134 1318 134 1318 308 c 0,27,28
 1318 374 1318 374 1246 374 c 0,29,30
 1178 374 1178 374 1120 278 c 1,31,32
 1074 188 1074 188 1026 96 c 1,33,34
 968 0 968 0 894 0 c 0,35,36
 826 0 826 0 826 74 c 0,37,38
 826 118 826 118 940 308 c 0,39,40
 1080 542 1080 542 1112 612 c 1,41,42
 1046 616 1046 616 945 579 c 128,-1,43
 844 542 844 542 770 484 c 0,44,45
 672 406 672 406 596 302 c 0,46,47
 530 210 530 210 530 176 c 0,48,49
 530 138 530 138 558 138 c 0,50,51
 600 138 600 138 632 246 c 0,52,53
 654 324 654 324 658 330 c 0,54,55
 678 368 678 368 728 368 c 0,56,57
 766 368 766 368 788 343 c 128,-1,58
 810 318 810 318 810 284 c 0,59,60
 810 164 810 164 711 57 c 128,-1,61
 612 -50 612 -50 492 -50 c 0,62,63
 334 -50 334 -50 334 106 c 0,64,65
 334 224 334 224 468 410 c 0,66,67
 610 604 610 604 772 688 c 0,68,69
 948 778 948 778 1272 778 c 0,70,71
 1378 778 1378 778 1408 774 c 0,72,73
 1504 758 1504 758 1504 700 c 0,74,75
 1504 592 1504 592 1342 608 c 1,76,77
 1294 596 1294 596 1252 506 c 1,78,79
 1310 522 1310 522 1342 522 c 0,80,81
 1426 522 1426 522 1472 462 c 0,82,83
 1512 410 1512 410 1512 340 c 0,0,1
1726 472 m 0,84,85
 1726 76 1726 76 1700 23 c 128,-1,86
 1674 -30 1674 -30 1624 -30 c 0,87,88
 1536 -30 1536 -30 1536 50 c 1,89,90
 1536 32 1536 32 1551 146 c 128,-1,91
 1566 260 1566 260 1566 432 c 0,92,93
 1566 624 1566 624 1530 808 c 0,94,95
 1490 1012 1490 1012 1436 1012 c 0,96,97
 1374 1012 1374 1012 1338 958 c 1,98,99
 1312 908 1312 908 1285 856 c 128,-1,100
 1258 804 1258 804 1220 804 c 0,101,102
 1132 804 1132 804 1132 886 c 0,103,104
 1132 974 1132 974 1244 1083 c 128,-1,105
 1356 1192 1356 1192 1452 1192 c 0,106,107
 1572 1192 1572 1192 1648 1004 c 0,108,109
 1726 806 1726 806 1726 472 c 0,84,85
EndSplineSet
Ligature2: "'psts' Post Base Substitutions lookup 8 subtable" tm_nya tm_ikaar
EndChar

StartChar: tm_tt_ikaar
Encoding: 65544 -1 124
Width: 988
GlyphClass: 2
Flags: W
LayerCount: 2
Fore
SplineSet
974 244 m 0,0,1
 974 164 974 164 896 146 c 2,2,-1
 652 90 l 1,3,4
 264 -304 264 -304 192 -304 c 0,5,6
 158 -304 158 -304 126 -277 c 128,-1,7
 94 -250 94 -250 94 -216 c 0,8,9
 94 -168 94 -168 180 -112 c 0,10,11
 304 -28 304 -28 354 28 c 1,12,13
 206 -8 206 -8 182 -8 c 0,14,15
 70 -8 70 -8 70 136 c 2,16,-1
 70 762 l 2,17,18
 70 840 70 840 174 840 c 0,19,20
 244 840 244 840 244 764 c 2,21,-1
 244 172 l 1,22,-1
 488 222 l 1,23,24
 340 332 340 332 340 508 c 0,25,26
 340 646 340 646 416 728 c 128,-1,27
 492 810 492 810 610 810 c 0,28,29
 730 810 730 810 790 744 c 128,-1,30
 850 678 850 678 850 572 c 0,31,32
 850 456 850 456 762 276 c 1,33,34
 834 308 834 308 898 308 c 0,35,36
 974 308 974 308 974 244 c 0,0,1
668 536 m 0,37,38
 668 620 668 620 602 620 c 0,39,40
 566 620 566 620 543 589 c 128,-1,41
 520 558 520 558 520 516 c 0,42,43
 520 438 520 438 606 340 c 1,44,45
 668 470 668 470 668 536 c 0,37,38
EndSplineSet
Ligature2: "'psts' Post Base Substitutions lookup 8 subtable" tm_tta tm_ikaar
EndChar

StartChar: tm_nn_ikaar
Encoding: 65545 -1 125
Width: 1994
GlyphClass: 2
Flags: W
LayerCount: 2
Fore
SplineSet
1924 190 m 0,0,1
 1924 108 1924 108 1912 74 c 0,2,3
 1890 14 1890 14 1826 14 c 0,4,5
 1754 14 1754 14 1754 118 c 0,6,7
 1754 510 1754 510 1734 702 c 0,8,9
 1700 1008 1700 1008 1608 1008 c 0,10,11
 1556 1008 1556 1008 1504 908 c 128,-1,12
 1452 808 1452 808 1396 808 c 0,13,14
 1362 808 1362 808 1333 834 c 128,-1,15
 1304 860 1304 860 1304 892 c 0,16,17
 1304 948 1304 948 1402 1068 c 0,18,19
 1514 1206 1514 1206 1624 1206 c 0,20,21
 1924 1206 1924 1206 1924 190 c 0,0,1
1688 -172 m 0,22,23
 1688 -204 1688 -204 1659 -226 c 128,-1,24
 1630 -248 1630 -248 1598 -248 c 0,25,26
 1532 -248 1532 -248 1508 -132 c 1,27,28
 1490 -8 1490 -8 1472 118 c 0,29,30
 1452 268 1452 268 1432 418 c 0,31,32
 1406 598 1406 598 1386 598 c 0,33,34
 1360 598 1360 598 1304 542 c 1,35,36
 1386 396 1386 396 1386 216 c 0,37,38
 1386 106 1386 106 1317 42 c 128,-1,39
 1248 -22 1248 -22 1146 -22 c 0,40,41
 1056 -22 1056 -22 996 33 c 128,-1,42
 936 88 936 88 936 186 c 0,43,44
 936 282 936 282 1000 392 c 1,45,46
 1056 474 1056 474 1110 556 c 1,47,48
 1068 636 1068 636 994 636 c 0,49,50
 916 636 916 636 856 530 c 1,51,52
 876 470 876 470 898 412 c 0,53,54
 922 340 922 340 922 278 c 0,55,56
 922 164 922 164 852 74 c 0,57,58
 780 -22 780 -22 682 -22 c 0,59,60
 472 -22 472 -22 472 180 c 0,61,62
 472 332 472 332 674 554 c 1,63,64
 652 578 652 578 627 601 c 128,-1,65
 602 624 602 624 576 624 c 0,66,67
 508 624 508 624 353 449 c 128,-1,68
 198 274 198 274 198 186 c 0,69,70
 198 154 198 154 222 154 c 0,71,72
 260 154 260 154 286 206 c 0,73,74
 308 252 308 252 308 308 c 0,75,76
 308 342 308 342 331 372 c 128,-1,77
 354 402 354 402 390 402 c 0,78,79
 424 402 424 402 445 376 c 128,-1,80
 466 350 466 350 466 314 c 0,81,82
 466 190 466 190 388 86 c 128,-1,83
 310 -18 310 -18 204 -18 c 0,84,85
 132 -18 132 -18 84 26 c 0,86,87
 30 76 30 76 30 158 c 0,88,89
 30 322 30 322 228 548 c 0,90,91
 432 782 432 782 604 782 c 0,92,93
 694 782 694 782 782 674 c 1,94,95
 866 782 866 782 1014 782 c 0,96,97
 1134 782 1134 782 1224 676 c 1,98,99
 1310 776 1310 776 1422 776 c 0,100,101
 1518 776 1518 776 1548 670 c 0,102,103
 1550 664 1550 664 1590 406 c 0,104,105
 1596 368 1596 368 1648 96 c 0,106,107
 1688 -108 1688 -108 1688 -172 c 0,22,23
1212 218 m 0,108,109
 1212 266 1212 266 1201 329 c 128,-1,110
 1190 392 1190 392 1174 404 c 1,111,112
 1092 302 1092 302 1092 212 c 0,113,114
 1092 134 1092 134 1148 134 c 0,115,116
 1212 134 1212 134 1212 218 c 0,108,109
754 238 m 0,117,118
 754 282 754 282 732 384 c 1,119,120
 662 286 662 286 662 224 c 0,121,122
 662 156 662 156 704 156 c 0,123,124
 754 156 754 156 754 238 c 0,117,118
EndSplineSet
Ligature2: "'psts' Post Base Substitutions lookup 8 subtable" tm_nna tm_ikaar
EndChar

StartChar: tm_t_ikaar
Encoding: 65546 -1 126
Width: 1416
GlyphClass: 2
Flags: W
LayerCount: 2
Fore
SplineSet
1346 508 m 0,0,1
 1346 242 1346 242 1306 66 c 0,2,3
 1288 -14 1288 -14 1228 -14 c 0,4,5
 1142 -14 1142 -14 1142 54 c 1,6,7
 1142 50 1142 50 1164 231 c 128,-1,8
 1186 412 1186 412 1186 566 c 0,9,10
 1186 996 1186 996 1080 996 c 0,11,12
 1028 996 1028 996 962 908 c 128,-1,13
 896 820 896 820 848 820 c 0,14,15
 814 820 814 820 791 846 c 128,-1,16
 768 872 768 872 768 898 c 0,17,18
 768 962 768 962 882 1076 c 0,19,20
 1004 1198 1004 1198 1102 1198 c 0,21,22
 1346 1198 1346 1198 1346 508 c 0,0,1
1106 330 m 0,23,24
 1106 188 1106 188 948 50 c 0,25,26
 814 -68 814 -68 454 -216 c 0,27,28
 120 -354 120 -354 24 -354 c 0,29,30
 -70 -354 -70 -354 -70 -276 c 0,31,32
 -70 -214 -70 -214 50 -178 c 0,33,34
 334 -94 334 -94 368 -82 c 0,35,36
 458 -46 458 -46 634 34 c 1,37,38
 738 90 738 90 836 178 c 128,-1,39
 934 266 934 266 934 310 c 0,40,41
 934 346 934 346 909 375 c 128,-1,42
 884 404 884 404 836 404 c 2,43,-1
 758 404 l 1,44,45
 544 156 544 156 460 90 c 0,46,47
 346 0 346 0 206 0 c 0,48,49
 120 0 120 0 72 56 c 0,50,51
 30 104 30 104 30 176 c 0,52,53
 30 480 30 480 670 534 c 1,54,-1
 736 606 l 1,55,-1
 550 606 l 1,56,57
 552 572 552 572 515 548 c 128,-1,58
 478 524 478 524 440 524 c 0,59,60
 398 524 398 524 370 562 c 0,61,62
 348 592 348 592 348 630 c 0,63,64
 348 692 348 692 402 732 c 0,65,66
 450 768 450 768 510 768 c 2,67,-1
 972 768 l 2,68,69
 1058 768 1058 768 1058 694 c 0,70,71
 1058 650 1058 650 1019 635 c 128,-1,72
 980 620 980 620 940 606 c 0,73,74
 922 600 922 600 896 572 c 0,75,76
 880 556 880 556 864 538 c 1,77,78
 962 548 962 548 1034 490 c 128,-1,79
 1106 432 1106 432 1106 330 c 0,23,24
540 372 m 1,80,81
 456 368 456 368 332 312 c 0,82,83
 190 246 190 246 190 182 c 0,84,85
 190 140 190 140 254 140 c 0,86,87
 286 140 286 140 396 236 c 0,88,89
 482 310 482 310 540 372 c 1,80,81
EndSplineSet
Ligature2: "'psts' Post Base Substitutions lookup 8 subtable" tm_ta tm_ikaar
EndChar

StartChar: tm_n_ikaar
Encoding: 65547 -1 127
Width: 1196
GlyphClass: 2
Flags: W
LayerCount: 2
Fore
SplineSet
1126 472 m 0,0,1
 1126 76 1126 76 1100 23 c 128,-1,2
 1074 -30 1074 -30 1024 -30 c 0,3,4
 936 -30 936 -30 936 50 c 1,5,6
 936 32 936 32 951 146 c 128,-1,7
 966 260 966 260 966 432 c 0,8,9
 966 624 966 624 930 808 c 0,10,11
 890 1012 890 1012 836 1012 c 0,12,13
 774 1012 774 1012 738 958 c 1,14,15
 712 908 712 908 685 856 c 128,-1,16
 658 804 658 804 620 804 c 0,17,18
 532 804 532 804 532 886 c 0,19,20
 532 974 532 974 644 1083 c 128,-1,21
 756 1192 756 1192 852 1192 c 0,22,23
 972 1192 972 1192 1048 1004 c 0,24,25
 1126 806 1126 806 1126 472 c 0,0,1
872 352 m 0,26,27
 872 124 872 124 546 -92 c 0,28,29
 388 -198 388 -198 184 -280 c 0,30,31
 0 -354 0 -354 -70 -354 c 0,32,33
 -100 -354 -100 -354 -125 -326 c 128,-1,34
 -150 -298 -150 -298 -150 -264 c 0,35,36
 -150 -202 -150 -202 -24 -164 c 0,37,38
 206 -98 206 -98 292 -56 c 0,39,40
 462 26 462 26 574 124 c 0,41,42
 702 234 702 234 702 322 c 0,43,44
 702 386 702 386 610 386 c 0,45,46
 542 386 542 386 464 254 c 0,47,48
 416 170 416 170 370 88 c 1,49,50
 336 50 336 50 272 50 c 0,51,52
 212 50 212 50 212 116 c 0,53,54
 212 132 212 132 220 146 c 2,55,-1
 478 606 l 1,56,57
 438 622 438 622 382 622 c 0,58,59
 196 622 196 622 196 492 c 0,60,61
 196 460 196 460 222 405 c 128,-1,62
 248 350 248 350 248 326 c 0,63,64
 248 294 248 294 223 267 c 128,-1,65
 198 240 198 240 164 240 c 0,66,67
 106 240 106 240 68 312 c 128,-1,68
 30 384 30 384 30 482 c 0,69,70
 30 598 30 598 111 683 c 128,-1,71
 192 768 192 768 330 768 c 2,72,-1
 800 768 l 2,73,74
 866 768 866 768 866 710 c 0,75,76
 866 646 866 646 802 626 c 1,77,78
 750 616 750 616 700 606 c 1,79,80
 636 586 636 586 616 524 c 1,81,82
 658 534 658 534 694 534 c 0,83,84
 872 534 872 534 872 352 c 0,26,27
EndSplineSet
Ligature2: "'psts' Post Base Substitutions lookup 8 subtable" tm_na tm_ikaar
EndChar

StartChar: tm_nnn_ikaar
Encoding: 65548 -1 128
Width: 1536
GlyphClass: 2
Flags: W
LayerCount: 2
Fore
SplineSet
1502 546 m 0,0,1
 1502 120 1502 120 1468 24 c 0,2,3
 1446 -40 1446 -40 1382 -40 c 0,4,5
 1300 -40 1300 -40 1300 48 c 1,6,7
 1300 36 1300 36 1320 149 c 128,-1,8
 1340 262 1340 262 1340 446 c 0,9,10
 1340 680 1340 680 1308 838 c 0,11,12
 1274 1012 1274 1012 1216 1012 c 0,13,14
 1146 1012 1146 1012 1095 912 c 128,-1,15
 1044 812 1044 812 1002 812 c 0,16,17
 914 812 914 812 914 894 c 0,18,19
 914 966 914 966 1014 1072 c 0,20,21
 1124 1188 1124 1188 1238 1188 c 0,22,23
 1366 1188 1366 1188 1436 1006 c 0,24,25
 1502 836 1502 836 1502 546 c 0,0,1
1308 -158 m 2,26,27
 1316 -194 1316 -194 1289 -218 c 128,-1,28
 1262 -242 1262 -242 1216 -242 c 0,29,30
 1168 -242 1168 -242 1152 -174 c 2,31,-1
 990 544 l 2,32,33
 978 600 978 600 954 600 c 0,34,35
 912 600 912 600 874 548 c 1,36,37
 938 430 938 430 938 270 c 0,38,39
 938 146 938 146 868 61 c 128,-1,40
 798 -24 798 -24 698 -24 c 0,41,42
 606 -24 606 -24 548 26 c 128,-1,43
 490 76 490 76 490 174 c 0,44,45
 490 254 490 254 568 392 c 0,46,47
 634 506 634 506 694 570 c 1,48,49
 680 594 680 594 664 616 c 0,50,51
 642 644 642 644 604 644 c 0,52,53
 524 644 524 644 368 461 c 128,-1,54
 212 278 212 278 212 196 c 0,55,56
 212 154 212 154 240 154 c 0,57,58
 272 154 272 154 298 216 c 0,59,60
 318 268 318 268 318 303 c 128,-1,61
 318 338 318 338 341 366 c 128,-1,62
 364 394 364 394 400 394 c 0,63,64
 434 394 434 394 461 373 c 128,-1,65
 488 352 488 352 488 320 c 0,66,67
 488 192 488 192 410 90 c 0,68,69
 328 -18 328 -18 206 -18 c 0,70,71
 132 -18 132 -18 81 31 c 128,-1,72
 30 80 30 80 30 164 c 256,73,74
 30 248 30 248 114 396 c 0,75,76
 204 558 204 558 328 666 c 0,77,78
 478 794 478 794 622 794 c 0,79,80
 694 794 694 794 738 762 c 0,81,82
 762 746 762 746 810 686 c 1,83,84
 872 742 872 742 896 756 c 0,85,86
 936 782 936 782 992 782 c 0,87,88
 1054 782 1054 782 1088 738 c 0,89,90
 1112 704 1112 704 1132 618 c 2,91,-1
 1308 -158 l 2,26,27
776 268 m 0,92,93
 776 352 776 352 750 404 c 1,94,95
 666 262 666 262 666 200 c 0,96,97
 666 132 666 132 714 132 c 0,98,99
 776 132 776 132 776 268 c 0,92,93
EndSplineSet
Ligature2: "'psts' Post Base Substitutions lookup 8 subtable" tm_nnna tm_ikaar
EndChar

StartChar: tm_p_ikaar
Encoding: 65549 -1 129
Width: 1038
GlyphClass: 2
Flags: W
LayerCount: 2
Fore
SplineSet
1022 932 m 0,0,1
 1022 758 1022 758 936 454 c 0,2,3
 856 176 856 176 790 62 c 0,4,5
 760 10 760 10 722 10 c 0,6,7
 632 10 632 10 632 94 c 0,8,9
 632 126 632 126 690 256 c 0,10,11
 764 424 764 424 798 534 c 0,12,13
 856 722 856 722 856 892 c 0,14,15
 856 1030 856 1030 774 1030 c 0,16,17
 682 1030 682 1030 594 954 c 128,-1,18
 506 878 506 878 506 820 c 0,19,20
 506 758 506 758 554 758 c 0,21,22
 568 758 568 758 586 766 c 1,23,24
 614 832 614 832 642 854 c 128,-1,25
 670 876 670 876 718 876 c 0,26,27
 748 876 748 876 769 855 c 128,-1,28
 790 834 790 834 790 806 c 0,29,30
 790 788 790 788 780 772 c 2,31,-1
 358 100 l 2,32,33
 288 -10 288 -10 208 -10 c 0,34,35
 148 -10 148 -10 109 27 c 128,-1,36
 70 64 70 64 70 122 c 2,37,-1
 70 962 l 2,38,39
 70 998 70 998 95 1025 c 128,-1,40
 120 1052 120 1052 156 1052 c 0,41,42
 254 1052 254 1052 254 952 c 2,43,-1
 254 250 l 1,44,-1
 496 612 l 1,45,46
 320 652 320 652 320 786 c 0,47,48
 320 940 320 940 474 1070 c 128,-1,49
 628 1200 628 1200 796 1200 c 0,50,51
 1022 1200 1022 1200 1022 932 c 0,0,1
EndSplineSet
Ligature2: "'psts' Post Base Substitutions lookup 8 subtable" tm_pa tm_ikaar
EndChar

StartChar: tm_m_ikaar
Encoding: 65550 -1 130
Width: 1134
GlyphClass: 2
Flags: W
LayerCount: 2
Fore
SplineSet
1126 428 m 0,0,1
 1126 196 1126 196 1095 95 c 128,-1,2
 1064 -6 1064 -6 998 -6 c 0,3,4
 972 -6 972 -6 950 15 c 128,-1,5
 928 36 928 36 928 66 c 1,6,7
 928 60 928 60 950 172 c 128,-1,8
 972 284 972 284 972 506 c 0,9,10
 972 740 972 740 936 896 c 0,11,12
 902 1038 902 1038 860 1038 c 0,13,14
 798 1038 798 1038 728 936 c 128,-1,15
 658 834 658 834 614 834 c 0,16,17
 580 834 580 834 554 858 c 128,-1,18
 528 882 528 882 528 914 c 0,19,20
 528 978 528 978 646 1090 c 0,21,22
 774 1212 774 1212 882 1212 c 0,23,24
 1126 1212 1126 1212 1126 428 c 0,0,1
876 590 m 0,25,26
 876 404 876 404 720 206 c 0,27,28
 548 -12 548 -12 338 -12 c 0,29,30
 268 -12 268 -12 215 32 c 128,-1,31
 162 76 162 76 150 146 c 2,32,-1
 30 846 l 2,33,34
 22 896 22 896 54 925 c 128,-1,35
 86 954 86 954 124 954 c 0,36,37
 182 954 182 954 196 870 c 2,38,-1
 302 248 l 2,39,40
 320 146 320 146 360 146 c 0,41,42
 464 146 464 146 587 301 c 128,-1,43
 710 456 710 456 710 584 c 0,44,45
 710 636 710 636 656 636 c 0,46,47
 554 636 554 636 526 422 c 0,48,49
 512 322 512 322 502 302 c 0,50,51
 486 266 486 266 432 266 c 0,52,53
 348 266 348 266 348 396 c 0,54,55
 348 534 348 534 416 652 c 0,56,57
 510 810 510 810 688 810 c 0,58,59
 790 810 790 810 836 754 c 0,60,61
 876 702 876 702 876 590 c 0,25,26
EndSplineSet
Ligature2: "'psts' Post Base Substitutions lookup 8 subtable" tm_ma tm_ikaar
EndChar

StartChar: tm_y_ikaar
Encoding: 65551 -1 131
Width: 1392
GlyphClass: 2
Flags: W
LayerCount: 2
Fore
SplineSet
1370 916 m 0,0,1
 1370 656 1370 656 1298 352 c 0,2,3
 1246 136 1246 136 1210 64 c 0,4,5
 1180 2 1180 2 1124 2 c 0,6,7
 1094 2 1094 2 1070 30 c 128,-1,8
 1046 58 1046 58 1046 90 c 0,9,10
 1046 108 1046 108 1088 224 c 0,11,12
 1140 368 1140 368 1168 482 c 0,13,14
 1210 664 1210 664 1210 840 c 256,15,16
 1210 1016 1210 1016 1124 1016 c 0,17,18
 1034 1016 1034 1016 949 933 c 128,-1,19
 864 850 864 850 864 796 c 0,20,21
 864 730 864 730 920 730 c 0,22,23
 932 730 932 730 946 734 c 1,24,25
 966 776 966 776 988 818 c 1,26,27
 1018 864 1018 864 1058 864 c 0,28,29
 1146 864 1146 864 1146 792 c 0,30,31
 1146 752 1146 752 912 320 c 0,32,33
 788 92 788 92 766 64 c 0,34,35
 682 -50 682 -50 566 -50 c 0,36,37
 504 -50 504 -50 464 -9 c 128,-1,38
 424 32 424 32 424 92 c 2,39,-1
 424 206 l 1,40,41
 346 96 346 96 322 68 c 0,42,43
 250 -14 250 -14 194 -14 c 0,44,45
 70 -14 70 -14 70 108 c 2,46,-1
 70 704 l 2,47,48
 70 792 70 792 168 792 c 0,49,50
 246 792 246 792 246 702 c 2,51,-1
 246 238 l 1,52,-1
 424 494 l 1,53,-1
 424 646 l 2,54,55
 424 728 424 728 514 728 c 0,56,57
 554 728 554 728 581 703 c 128,-1,58
 608 678 608 678 608 644 c 2,59,-1
 608 134 l 1,60,-1
 874 584 l 1,61,62
 864 582 864 582 852 582 c 0,63,64
 792 582 792 582 737 633 c 128,-1,65
 682 684 682 684 682 756 c 0,66,67
 682 906 682 906 831 1047 c 128,-1,68
 980 1188 980 1188 1146 1188 c 0,69,70
 1254 1188 1254 1188 1312 1115 c 128,-1,71
 1370 1042 1370 1042 1370 916 c 0,0,1
EndSplineSet
Ligature2: "'psts' Post Base Substitutions lookup 8 subtable" tm_ya tm_ikaar
EndChar

StartChar: tm_r_ikaar
Encoding: 65552 -1 132
Width: 858
GlyphClass: 2
Flags: W
LayerCount: 2
Fore
SplineSet
1180 430 m 0,0,1
 1180 150 1180 150 1160 75 c 128,-1,2
 1140 0 1140 0 1070 0 c 0,3,4
 1036 0 1036 0 1015 22 c 128,-1,5
 994 44 994 44 994 74 c 0,6,7
 994 80 994 80 1007 235 c 128,-1,8
 1020 390 1020 390 1020 580 c 0,9,10
 1020 762 1020 762 978 894 c 0,11,12
 940 1014 940 1014 894 1014 c 256,13,14
 848 1014 848 1014 780 918 c 128,-1,15
 712 822 712 822 664 822 c 0,16,17
 630 822 630 822 607 847 c 128,-1,18
 584 872 584 872 584 904 c 0,19,20
 584 966 584 966 690 1082 c 0,21,22
 810 1212 810 1212 916 1212 c 0,23,24
 1180 1212 1180 1212 1180 430 c 0,0,1
950 708 m 0,25,26
 950 670 950 670 924 644 c 128,-1,27
 898 618 898 618 876 614 c 2,28,-1
 820 606 l 2,29,30
 784 600 784 600 740 532 c 2,31,-1
 344 -90 l 2,32,33
 280 -190 280 -190 171 -269 c 128,-1,34
 62 -348 62 -348 -6 -348 c 0,35,36
 -110 -348 -110 -348 -110 -254 c 0,37,38
 -110 -210 -110 -210 -58 -182 c 0,39,40
 2 -150 2 -150 62 -120 c 1,41,42
 146 -66 146 -66 204 24 c 2,43,-1
 580 616 l 1,44,-1
 376 616 l 2,45,46
 298 616 298 616 256 566 c 0,47,48
 220 526 220 526 220 470 c 0,49,50
 220 440 220 440 241 394 c 128,-1,51
 262 348 262 348 262 322 c 0,52,53
 262 288 262 288 238 263 c 128,-1,54
 214 238 214 238 176 238 c 0,55,56
 122 238 122 238 74 320 c 0,57,58
 30 396 30 396 30 462 c 0,59,60
 30 602 30 602 114 690 c 0,61,62
 208 788 208 788 372 788 c 2,63,-1
 852 788 l 2,64,65
 950 788 950 788 950 708 c 0,25,26
EndSplineSet
Ligature2: "'psts' Post Base Substitutions lookup 8 subtable" tm_ra tm_ikaar
EndChar

StartChar: tm_rr_ikaar
Encoding: 65553 -1 133
Width: 1446
GlyphClass: 2
Flags: W
LayerCount: 2
Fore
SplineSet
1406 620 m 0,0,1
 1406 398 1406 398 1384 212 c 0,2,3
 1366 64 1366 64 1350 36 c 0,4,5
 1326 -6 1326 -6 1272 -6 c 0,6,7
 1194 -6 1194 -6 1194 76 c 1,8,9
 1194 68 1194 68 1220 273 c 128,-1,10
 1246 478 1246 478 1246 634 c 0,11,12
 1246 812 1246 812 1217 914 c 128,-1,13
 1188 1016 1188 1016 1140 1016 c 256,14,15
 1092 1016 1092 1016 1023 925 c 128,-1,16
 954 834 954 834 912 834 c 0,17,18
 880 834 880 834 856 858 c 128,-1,19
 832 882 832 882 832 914 c 0,20,21
 832 986 832 986 952 1099 c 128,-1,22
 1072 1212 1072 1212 1168 1212 c 0,23,24
 1406 1212 1406 1212 1406 620 c 0,0,1
1146 552 m 0,25,26
 1146 358 1146 358 995 150 c 128,-1,27
 844 -58 844 -58 628 -168 c 0,28,29
 440 -264 440 -264 164 -346 c 0,30,31
 -80 -416 -80 -416 -162 -416 c 0,32,33
 -264 -416 -264 -416 -264 -326 c 0,34,35
 -264 -270 -264 -270 -190 -252 c 1,36,37
 -100 -240 -100 -240 -10 -228 c 1,38,39
 236 -184 236 -184 486 -66 c 0,40,41
 730 48 730 48 866 258 c 0,42,43
 968 414 968 414 968 520 c 0,44,45
 968 598 968 598 920 598 c 0,46,47
 860 598 860 598 822 526 c 2,48,-1
 614 124 l 2,49,50
 580 60 580 60 514 60 c 0,51,52
 430 60 430 60 430 154 c 2,53,-1
 430 588 l 1,54,-1
 164 56 l 2,55,56
 134 -6 134 -6 64 -6 c 256,57,58
 -6 -6 -6 -6 -6 80 c 0,59,60
 -6 108 -6 108 6 130 c 2,61,-1
 288 658 l 2,62,63
 328 732 328 732 360 756 c 128,-1,64
 392 780 392 780 450 780 c 0,65,66
 590 780 590 780 590 670 c 2,67,-1
 590 426 l 1,68,69
 652 540 652 540 716 654 c 1,70,71
 802 782 802 782 930 782 c 0,72,73
 1034 782 1034 782 1090 719 c 128,-1,74
 1146 656 1146 656 1146 552 c 0,25,26
EndSplineSet
Ligature2: "'psts' Post Base Substitutions lookup 8 subtable" tm_rra tm_ikaar
EndChar

StartChar: tm_l_ikaar
Encoding: 65554 -1 134
Width: 1392
GlyphClass: 2
Flags: W
LayerCount: 2
Fore
SplineSet
1420 904 m 0,0,1
 1420 656 1420 656 1356 362 c 0,2,3
 1304 126 1304 126 1262 46 c 0,4,5
 1236 -4 1236 -4 1184 -4 c 0,6,7
 1102 -4 1102 -4 1102 84 c 0,8,9
 1102 104 1102 104 1142 220 c 0,10,11
 1192 368 1192 368 1218 472 c 0,12,13
 1258 642 1258 642 1258 788 c 0,14,15
 1258 888 1258 888 1250 924 c 0,16,17
 1232 1010 1232 1010 1168 1010 c 0,18,19
 1080 1010 1080 1010 992 924 c 0,20,21
 914 846 914 846 914 790 c 0,22,23
 914 722 914 722 968 722 c 0,24,25
 982 722 982 722 996 728 c 1,26,27
 1030 810 1030 810 1058 834 c 0,28,29
 1080 856 1080 856 1122 856 c 0,30,31
 1152 856 1152 856 1176 831 c 128,-1,32
 1200 806 1200 806 1200 776 c 0,33,34
 1200 764 1200 764 1194 754 c 2,35,-1
 858 94 l 2,36,37
 806 -10 806 -10 714 -10 c 0,38,39
 688 -10 688 -10 653 20 c 128,-1,40
 618 50 618 50 602 98 c 2,41,-1
 458 520 l 2,42,43
 448 548 448 548 424 572 c 1,44,45
 372 548 372 548 277 399 c 128,-1,46
 182 250 182 250 182 200 c 0,47,48
 182 162 182 162 214 162 c 0,49,50
 250 162 250 162 280 262 c 0,51,52
 292 312 292 312 309 360 c 128,-1,53
 326 408 326 408 386 408 c 0,54,55
 452 408 452 408 452 324 c 0,56,57
 452 194 452 194 378 94 c 0,58,59
 298 -10 298 -10 182 -10 c 0,60,61
 10 -10 10 -10 10 174 c 0,62,63
 10 316 10 316 181 542 c 128,-1,64
 352 768 352 768 462 768 c 0,65,66
 566 768 566 768 610 644 c 2,67,-1
 750 242 l 1,68,-1
 916 576 l 1,69,70
 834 580 834 580 784 628 c 128,-1,71
 734 676 734 676 734 758 c 0,72,73
 734 906 734 906 881 1044 c 128,-1,74
 1028 1182 1028 1182 1186 1182 c 0,75,76
 1296 1182 1296 1182 1358 1109 c 128,-1,77
 1420 1036 1420 1036 1420 904 c 0,0,1
EndSplineSet
Ligature2: "'psts' Post Base Substitutions lookup 8 subtable" tm_la tm_ikaar
EndChar

StartChar: tm_ll_ikaar
Encoding: 65555 -1 135
Width: 1496
GlyphClass: 2
Flags: W
LayerCount: 2
Fore
SplineSet
1426 570 m 0,0,1
 1426 122 1426 122 1401 59 c 128,-1,2
 1376 -4 1376 -4 1316 -4 c 0,3,4
 1232 -4 1232 -4 1232 78 c 1,5,6
 1232 64 1232 64 1248 183 c 128,-1,7
 1264 302 1264 302 1264 496 c 0,8,9
 1264 704 1264 704 1234 862 c 0,10,11
 1200 1046 1200 1046 1142 1046 c 0,12,13
 1070 1046 1070 1046 1019 944 c 128,-1,14
 968 842 968 842 924 842 c 0,15,16
 890 842 890 842 863 865 c 128,-1,17
 836 888 836 888 836 924 c 0,18,19
 836 1004 836 1004 940 1112 c 0,20,21
 1054 1228 1054 1228 1164 1228 c 256,22,23
 1274 1228 1274 1228 1346 1068 c 0,24,25
 1426 890 1426 890 1426 570 c 0,0,1
1164 -146 m 2,26,27
 1170 -184 1170 -184 1142 -217 c 128,-1,28
 1114 -250 1114 -250 1074 -250 c 0,29,30
 1000 -250 1000 -250 990 -188 c 2,31,-1
 854 612 l 1,32,-1
 750 204 l 2,33,34
 730 124 730 124 678 124 c 0,35,36
 604 124 604 124 588 174 c 2,37,-1
 464 584 l 1,38,39
 374 530 374 530 294 392 c 0,40,41
 222 266 222 266 222 200 c 0,42,43
 222 156 222 156 254 156 c 0,44,45
 266 156 266 156 280 214 c 128,-1,46
 294 272 294 272 308 328 c 0,47,48
 320 372 320 372 335 388 c 128,-1,49
 350 404 350 404 396 404 c 0,50,51
 464 404 464 404 464 294 c 0,52,53
 464 246 464 246 438 174 c 0,54,55
 408 96 408 96 364 52 c 0,56,57
 298 -14 298 -14 196 -14 c 0,58,59
 126 -14 126 -14 78 30 c 128,-1,60
 30 74 30 74 30 152 c 256,61,62
 30 230 30 230 90 361 c 128,-1,63
 150 492 150 492 244 606 c 0,64,65
 388 780 388 780 512 780 c 0,66,67
 582 780 582 780 604 704 c 2,68,-1
 658 518 l 1,69,-1
 730 712 l 2,70,71
 764 806 764 806 876 806 c 0,72,73
 994 806 994 806 1024 638 c 2,74,-1
 1164 -146 l 2,26,27
EndSplineSet
Ligature2: "'psts' Post Base Substitutions lookup 8 subtable" tm_lla tm_ikaar
EndChar

StartChar: tm_lll_ikaar
Encoding: 65556 -1 136
Width: 1094
GlyphClass: 2
Flags: W
LayerCount: 2
Fore
SplineSet
1064 480 m 0,0,1
 1064 212 1064 212 1034 101 c 128,-1,2
 1004 -10 1004 -10 926 -10 c 0,3,4
 900 -10 900 -10 879 13 c 128,-1,5
 858 36 858 36 858 64 c 0,6,7
 858 70 858 70 889 196 c 128,-1,8
 920 322 920 322 920 512 c 0,9,10
 920 738 920 738 894 882 c 0,11,12
 864 1044 864 1044 808 1044 c 0,13,14
 760 1044 760 1044 681 943 c 128,-1,15
 602 842 602 842 562 842 c 0,16,17
 530 842 530 842 506 867 c 128,-1,18
 482 892 482 892 482 924 c 0,19,20
 482 992 482 992 609 1105 c 128,-1,21
 736 1218 736 1218 832 1218 c 0,22,23
 948 1218 948 1218 1002 1074 c 0,24,25
 1064 902 1064 902 1064 480 c 0,0,1
832 544 m 0,26,27
 832 254 832 254 562 62 c 1,28,29
 580 14 580 14 662 -36 c 0,30,31
 734 -80 734 -80 734 -110 c 0,32,33
 734 -214 734 -214 654 -214 c 0,34,35
 622 -214 622 -214 546 -176 c 1,36,37
 430 -334 430 -334 258 -334 c 0,38,39
 144 -334 144 -334 71 -287 c 128,-1,40
 -2 -240 -2 -240 -2 -178 c 0,41,42
 -2 -78 -2 -78 92 -78 c 0,43,44
 130 -78 130 -78 174 -125 c 128,-1,45
 218 -172 218 -172 272 -172 c 0,46,47
 358 -172 358 -172 426 -62 c 1,48,-1
 400 -14 l 1,49,50
 360 -18 360 -18 326 -18 c 0,51,52
 130 -18 130 -18 100 168 c 2,53,-1
 -14 856 l 2,54,55
 -22 900 -22 900 7 933 c 128,-1,56
 36 966 36 966 86 966 c 0,57,58
 148 966 148 966 158 894 c 2,59,-1
 258 214 l 2,60,61
 262 190 262 190 290 169 c 128,-1,62
 318 148 318 148 340 152 c 1,63,64
 314 200 314 200 314 304 c 0,65,66
 314 528 314 528 394 660 c 0,67,68
 476 800 476 800 628 800 c 0,69,70
 832 800 832 800 832 544 c 0,26,27
670 528 m 0,71,72
 670 560 670 560 653 589 c 128,-1,73
 636 618 636 618 614 618 c 0,74,75
 560 618 560 618 516 522 c 0,76,77
 478 436 478 436 478 360 c 0,78,79
 478 294 478 294 504 210 c 1,80,81
 584 286 584 286 606 320 c 0,82,83
 670 412 670 412 670 528 c 0,71,72
EndSplineSet
Ligature2: "'psts' Post Base Substitutions lookup 8 subtable" tm_llla tm_ikaar
EndChar

StartChar: tm_v_ikaar
Encoding: 65557 -1 137
Width: 1266
GlyphClass: 2
Flags: W
LayerCount: 2
Fore
SplineSet
1224 630 m 0,0,1
 1224 174 1224 174 1164 40 c 1,2,3
 1150 -2 1150 -2 1118 -2 c 0,4,5
 994 -2 994 -2 994 76 c 1,6,7
 994 60 994 60 1032 261 c 128,-1,8
 1070 462 1070 462 1070 636 c 0,9,10
 1070 834 1070 834 1034 958 c 128,-1,11
 998 1082 998 1082 938 1082 c 0,12,13
 856 1082 856 1082 780 984 c 0,14,15
 710 896 710 896 710 826 c 256,16,17
 710 756 710 756 800 756 c 1,18,-1
 800 802 l 2,19,20
 800 836 800 836 827 863 c 128,-1,21
 854 890 854 890 894 890 c 0,22,23
 962 890 962 890 962 816 c 2,24,-1
 962 156 l 2,25,26
 962 0 962 0 766 0 c 2,27,-1
 264 0 l 2,28,29
 186 0 186 0 186 86 c 0,30,31
 186 138 186 138 254 166 c 0,32,33
 360 210 360 210 368 216 c 0,34,35
 440 272 440 272 509 373 c 128,-1,36
 578 474 578 474 578 534 c 0,37,38
 578 614 578 614 490 614 c 0,39,40
 380 614 380 614 280 526 c 0,41,42
 190 446 190 446 190 388 c 0,43,44
 190 348 190 348 212 348 c 0,45,46
 274 348 274 348 313 445 c 128,-1,47
 352 542 352 542 398 542 c 0,48,49
 428 542 428 542 449 519 c 128,-1,50
 470 496 470 496 470 466 c 0,51,52
 470 376 470 376 382 288 c 0,53,54
 288 194 288 194 174 194 c 0,55,56
 112 194 112 194 71 243 c 128,-1,57
 30 292 30 292 30 364 c 0,58,59
 30 520 30 520 182 644 c 128,-1,60
 334 768 334 768 518 768 c 1,61,62
 518 612 518 612 736 574 c 1,63,64
 738 552 738 552 738 532 c 0,65,66
 738 370 738 370 540 162 c 1,67,-1
 770 162 l 1,68,-1
 800 196 l 1,69,-1
 800 604 l 1,70,71
 774 598 774 598 746 598 c 0,72,73
 662 598 662 598 602 646 c 0,74,75
 534 702 534 702 534 800 c 0,76,77
 534 950 534 950 668 1103 c 128,-1,78
 802 1256 802 1256 954 1256 c 0,79,80
 1100 1256 1100 1256 1164 1092 c 0,81,82
 1224 942 1224 942 1224 630 c 0,0,1
EndSplineSet
Ligature2: "'psts' Post Base Substitutions lookup 8 subtable" tm_va tm_ikaar
EndChar

StartChar: tm_ss_ikaar
Encoding: 65558 -1 138
Width: 1692
GlyphClass: 2
Flags: W
LayerCount: 2
Fore
SplineSet
1646 440 m 0,0,1
 1646 122 1646 122 1620 54 c 0,2,3
 1600 2 1600 2 1538 2 c 0,4,5
 1462 2 1462 2 1462 90 c 1,6,7
 1462 90 1462 90 1473 195 c 128,-1,8
 1484 300 1484 300 1484 478 c 0,9,10
 1484 704 1484 704 1452 854 c 0,11,12
 1418 1012 1418 1012 1364 1012 c 0,13,14
 1298 1012 1298 1012 1241 917 c 128,-1,15
 1184 822 1184 822 1128 822 c 0,16,17
 1052 822 1052 822 1052 916 c 0,18,19
 1052 968 1052 968 1160 1086 c 0,20,21
 1280 1216 1280 1216 1376 1216 c 0,22,23
 1510 1216 1510 1216 1578 1013 c 128,-1,24
 1646 810 1646 810 1646 440 c 0,0,1
1420 176 m 0,25,26
 1420 124 1420 124 1326 96 c 0,27,28
 1272 78 1272 78 1088 48 c 1,29,30
 964 -102 964 -102 815 -227 c 128,-1,31
 666 -352 666 -352 618 -352 c 0,32,33
 572 -352 572 -352 547 -325 c 128,-1,34
 522 -298 522 -298 522 -260 c 0,35,36
 522 -230 522 -230 538 -218 c 0,37,38
 596 -186 596 -186 652 -154 c 0,39,40
 776 -80 776 -80 868 14 c 1,41,42
 710 -12 710 -12 502 -16 c 0,43,44
 328 -22 328 -22 270 -12 c 0,45,46
 174 4 174 4 174 56 c 0,47,48
 174 106 174 106 208 128 c 1,49,50
 264 154 264 154 318 180 c 0,51,52
 396 220 396 220 468 298 c 0,53,54
 570 412 570 412 570 536 c 0,55,56
 570 574 570 574 544 599 c 128,-1,57
 518 624 518 624 486 624 c 0,58,59
 376 624 376 624 282 536 c 0,60,61
 198 460 198 460 198 400 c 0,62,63
 198 352 198 352 230 352 c 0,64,65
 266 352 266 352 308 452 c 0,66,67
 348 546 348 546 398 546 c 0,68,69
 470 546 470 546 470 474 c 0,70,71
 470 396 470 396 390 304 c 0,72,73
 296 196 296 196 172 196 c 0,74,75
 104 196 104 196 67 244 c 128,-1,76
 30 292 30 292 30 368 c 0,77,78
 30 528 30 528 179 650 c 128,-1,79
 328 772 328 772 516 772 c 0,80,81
 736 772 736 772 736 560 c 0,82,83
 736 416 736 416 664 298 c 0,84,85
 638 258 638 258 532 138 c 1,86,-1
 956 176 l 1,87,88
 790 290 790 290 790 462 c 0,89,90
 790 616 790 616 872 701 c 128,-1,91
 954 786 954 786 1086 786 c 0,92,93
 1194 786 1194 786 1260 722 c 128,-1,94
 1326 658 1326 658 1326 536 c 0,95,96
 1326 386 1326 386 1240 242 c 1,97,98
 1294 268 1294 268 1336 268 c 0,99,100
 1420 268 1420 268 1420 176 c 0,25,26
1160 524 m 0,101,102
 1160 630 1160 630 1060 630 c 0,103,104
 1022 630 1022 630 987 585 c 128,-1,105
 952 540 952 540 952 488 c 0,106,107
 952 372 952 372 1072 264 c 1,108,109
 1160 440 1160 440 1160 524 c 0,101,102
EndSplineSet
Ligature2: "'psts' Post Base Substitutions lookup 8 subtable" tm_ssa tm_ikaar
EndChar

StartChar: tm_s_ikaar
Encoding: 65559 -1 139
Width: 1800
GlyphClass: 2
Flags: W
LayerCount: 2
Fore
SplineSet
1778 834 m 0,0,1
 1778 686 1778 686 1734 426 c 0,2,3
 1696 202 1696 202 1664 98 c 0,4,5
 1630 -16 1630 -16 1564 -16 c 0,6,7
 1484 -16 1484 -16 1484 72 c 0,8,9
 1484 90 1484 90 1518 204 c 0,10,11
 1558 342 1558 342 1580 458 c 0,12,13
 1614 640 1614 640 1614 826 c 0,14,15
 1614 1024 1614 1024 1520 1024 c 0,16,17
 1428 1024 1428 1024 1342 906 c 0,18,19
 1270 806 1270 806 1270 746 c 0,20,21
 1270 698 1270 698 1340 688 c 1,22,23
 1372 746 1372 746 1402 802 c 0,24,25
 1432 850 1432 850 1458 850 c 0,26,27
 1502 850 1502 850 1531 828 c 128,-1,28
 1560 806 1560 806 1560 776 c 0,29,30
 1560 762 1560 762 1554 748 c 2,31,-1
 1224 72 l 2,32,33
 1210 42 1210 42 1164 16 c 128,-1,34
 1118 -10 1118 -10 1084 -10 c 0,35,36
 1006 -10 1006 -10 970 108 c 2,37,-1
 848 506 l 2,38,39
 832 558 832 558 812 558 c 0,40,41
 794 558 794 558 761 492 c 128,-1,42
 728 426 728 426 728 382 c 0,43,44
 728 356 728 356 749 234 c 128,-1,45
 770 112 770 112 770 66 c 0,46,47
 770 34 770 34 744 11 c 128,-1,48
 718 -12 718 -12 680 -12 c 0,49,50
 576 -12 576 -12 576 122 c 128,-1,51
 576 256 576 256 548 416 c 0,52,53
 516 608 516 608 470 608 c 0,54,55
 394 608 394 608 292 448 c 128,-1,56
 190 288 190 288 190 194 c 0,57,58
 190 146 190 146 220 146 c 0,59,60
 236 146 236 146 260 181 c 128,-1,61
 284 216 284 216 284 244 c 0,62,63
 284 418 284 418 386 418 c 0,64,65
 420 418 420 418 446 385 c 128,-1,66
 472 352 472 352 472 302 c 0,67,68
 472 180 472 180 390 80 c 128,-1,69
 308 -20 308 -20 210 -20 c 0,70,71
 122 -20 122 -20 66 35 c 128,-1,72
 10 90 10 90 10 182 c 0,73,74
 10 378 10 378 210 620 c 0,75,76
 268 690 268 690 353 740 c 128,-1,77
 438 790 438 790 506 790 c 0,78,79
 572 790 572 790 606 754 c 0,80,81
 632 726 632 726 668 644 c 1,82,83
 738 728 738 728 752 742 c 0,84,85
 800 786 800 786 852 786 c 0,86,87
 884 786 884 786 922 757 c 128,-1,88
 960 728 960 728 972 688 c 2,89,-1
 1118 228 l 1,90,-1
 1272 552 l 1,91,92
 1264 550 1264 550 1252 550 c 0,93,94
 1200 550 1200 550 1150 602 c 0,95,96
 1094 658 1094 658 1094 730 c 0,97,98
 1094 876 1094 876 1256 1034 c 128,-1,99
 1418 1192 1418 1192 1574 1192 c 0,100,101
 1778 1192 1778 1192 1778 834 c 0,0,1
EndSplineSet
Ligature2: "'psts' Post Base Substitutions lookup 8 subtable" tm_sa tm_ikaar
EndChar

StartChar: tm_h_ikaar
Encoding: 65560 -1 140
Width: 2138
GlyphClass: 2
Flags: W
LayerCount: 2
Fore
SplineSet
2068 628 m 0,0,1
 2068 434 2068 434 2038 224 c 0,2,3
 2012 40 2012 40 1988 -6 c 128,-1,4
 1964 -52 1964 -52 1906 -52 c 0,5,6
 1874 -52 1874 -52 1851 -32 c 128,-1,7
 1828 -12 1828 -12 1828 16 c 0,8,9
 1828 32 1828 32 1852 104 c 0,10,11
 1880 194 1880 194 1896 286 c 0,12,13
 1920 432 1920 432 1920 622 c 0,14,15
 1920 1000 1920 1000 1836 1000 c 0,16,17
 1774 1000 1774 1000 1702 911 c 128,-1,18
 1630 822 1630 822 1586 822 c 0,19,20
 1502 822 1502 822 1502 900 c 0,21,22
 1502 968 1502 968 1629 1072 c 128,-1,23
 1756 1176 1756 1176 1854 1176 c 0,24,25
 1976 1176 1976 1176 2024 1038 c 0,26,27
 2068 914 2068 914 2068 628 c 0,0,1
1834 564 m 0,28,29
 1834 344 1834 344 1704 150 c 0,30,31
 1564 -56 1564 -56 1316 -176 c 0,32,33
 1000 -330 1000 -330 442 -330 c 0,34,35
 70 -330 70 -330 -14 -296 c 0,36,37
 -84 -268 -84 -268 -84 -212 c 0,38,39
 -84 -176 -84 -176 -62 -152 c 128,-1,40
 -40 -128 -40 -128 -4 -128 c 0,41,42
 18 -128 18 -128 180 -152 c 128,-1,43
 342 -176 342 -176 494 -176 c 0,44,45
 950 -176 950 -176 1226 -46 c 0,46,47
 1436 52 1436 52 1564 224 c 0,48,49
 1680 378 1680 378 1680 512 c 0,50,51
 1680 552 1680 552 1660 583 c 128,-1,52
 1640 614 1640 614 1608 614 c 0,53,54
 1558 614 1558 614 1528 588 c 0,55,56
 1510 572 1510 572 1482 524 c 2,57,-1
 1246 114 l 2,58,59
 1216 62 1216 62 1190 62 c 0,60,61
 1094 62 1094 62 1094 142 c 2,62,-1
 1094 572 l 1,63,64
 1062 498 1062 498 950 188 c 0,65,66
 912 86 912 86 872 50 c 0,67,68
 818 0 818 0 704 0 c 2,69,-1
 290 0 l 2,70,71
 212 0 212 0 193 16 c 128,-1,72
 174 32 174 32 174 72 c 0,73,74
 174 100 174 100 231 132 c 128,-1,75
 288 164 288 164 348 194 c 0,76,77
 422 232 422 232 494 312 c 0,78,79
 580 410 580 410 580 492 c 0,80,81
 580 618 580 618 472 618 c 0,82,83
 362 618 362 618 272 528 c 0,84,85
 192 450 192 450 192 388 c 0,86,87
 192 350 192 350 218 350 c 256,88,89
 244 350 244 350 294 444 c 128,-1,90
 344 538 344 538 410 538 c 0,91,92
 464 538 464 538 464 466 c 0,93,94
 464 372 464 372 362 284 c 0,95,96
 268 200 268 200 186 200 c 0,97,98
 122 200 122 200 76 246 c 128,-1,99
 30 292 30 292 30 360 c 0,100,101
 30 534 30 534 174 654 c 128,-1,102
 318 774 318 774 506 774 c 0,103,104
 600 774 600 774 670 718 c 0,105,106
 744 656 744 656 744 560 c 0,107,108
 744 320 744 320 536 152 c 1,109,-1
 744 162 l 1,110,-1
 788 194 l 1,111,112
 802 238 802 238 960 654 c 0,113,114
 1006 778 1006 778 1134 778 c 256,115,116
 1262 778 1262 778 1262 668 c 2,117,-1
 1262 446 l 1,118,119
 1380 652 1380 652 1440 710 c 0,120,121
 1516 782 1516 782 1640 782 c 0,122,123
 1718 782 1718 782 1776 719 c 128,-1,124
 1834 656 1834 656 1834 564 c 0,28,29
EndSplineSet
Ligature2: "'psts' Post Base Substitutions lookup 8 subtable" tm_ha tm_ikaar
EndChar

StartChar: tm_k_iikaar
Encoding: 65561 -1 141
Width: 1190
GlyphClass: 2
Flags: W
LayerCount: 2
Fore
SplineSet
1422 1114 m 0,0,1
 1422 996 1422 996 1288 916 c 0,2,3
 1172 846 1172 846 1056 846 c 0,4,5
 970 846 970 846 970 932 c 0,6,7
 970 968 970 968 1002 992 c 128,-1,8
 1034 1016 1034 1016 1074 1016 c 0,9,10
 1132 1016 1132 1016 1191 1038 c 128,-1,11
 1250 1060 1250 1060 1250 1086 c 0,12,13
 1250 1110 1250 1110 1186 1110 c 0,14,15
 1090 1110 1090 1110 996 1054 c 0,16,17
 894 992 894 992 894 916 c 0,18,19
 894 808 894 808 986 768 c 1,20,21
 1018 760 1018 760 1051 750 c 128,-1,22
 1084 740 1084 740 1084 702 c 0,23,24
 1084 630 1084 630 996 598 c 0,25,26
 898 562 898 562 888 520 c 1,27,28
 904 524 904 524 926 524 c 0,29,30
 1004 524 1004 524 1076 482 c 0,31,32
 1160 434 1160 434 1160 362 c 0,33,34
 1160 204 1160 204 956 64 c 0,35,36
 766 -66 766 -66 586 -66 c 0,37,38
 470 -66 470 -66 470 6 c 0,39,40
 470 48 470 48 520 86 c 1,41,42
 626 70 626 70 790 153 c 128,-1,43
 954 236 954 236 954 306 c 0,44,45
 954 342 954 342 908 367 c 128,-1,46
 862 392 862 392 808 390 c 0,47,48
 760 388 760 388 738 372 c 1,49,50
 598 198 598 198 512 120 c 0,51,52
 342 -30 342 -30 194 -30 c 0,53,54
 128 -30 128 -30 79 11 c 128,-1,55
 30 52 30 52 30 106 c 0,56,57
 30 290 30 290 256 412 c 0,58,59
 444 512 444 512 672 526 c 1,60,-1
 768 628 l 1,61,-1
 578 628 l 1,62,63
 586 592 586 592 546 556 c 128,-1,64
 506 520 506 520 466 520 c 0,65,66
 430 520 430 520 399 552 c 128,-1,67
 368 584 368 584 368 628 c 0,68,69
 368 682 368 682 424 725 c 128,-1,70
 480 768 480 768 536 768 c 2,71,-1
 790 768 l 1,72,73
 708 810 708 810 708 926 c 0,74,75
 708 1068 708 1068 860 1166 c 0,76,77
 1002 1260 1002 1260 1190 1260 c 0,78,79
 1278 1260 1278 1260 1340 1232 c 0,80,81
 1422 1194 1422 1194 1422 1114 c 0,0,1
536 362 m 1,82,83
 410 328 410 328 308 269 c 128,-1,84
 206 210 206 210 206 166 c 0,85,86
 206 134 206 134 248 134 c 0,87,88
 276 134 276 134 381 213 c 128,-1,89
 486 292 486 292 536 362 c 1,82,83
EndSplineSet
Ligature2: "'abvs' Above Base Substitutions lookup 6 subtable" tm_ka tm_iikaar
EndChar

StartChar: tm_ng_iikaar
Encoding: 65562 -1 142
Width: 1910
GlyphClass: 2
Flags: W
LayerCount: 2
Fore
SplineSet
1550 930 m 0,0,1
 1550 910 1550 910 1508 828 c 2,2,-1
 1128 94 l 2,3,4
 1066 -24 1066 -24 948 -32 c 2,5,-1
 606 -54 l 2,6,7
 570 -56 570 -56 542 -28 c 128,-1,8
 514 0 514 0 514 36 c 0,9,10
 514 94 514 94 554 116 c 1,11,12
 602 134 602 134 652 152 c 0,13,14
 722 182 722 182 722 272 c 0,15,16
 722 352 722 352 652 352 c 0,17,18
 574 352 574 352 518 258 c 1,19,20
 478 170 478 170 436 80 c 1,21,22
 384 -14 384 -14 318 -14 c 0,23,24
 282 -14 282 -14 255 7 c 128,-1,25
 228 28 228 28 228 62 c 0,26,27
 228 88 228 88 338 300 c 0,28,29
 462 540 462 540 484 600 c 1,30,31
 448 604 448 604 418 604 c 0,32,33
 212 604 212 604 212 456 c 0,34,35
 212 406 212 406 232 359 c 128,-1,36
 252 312 252 312 252 292 c 0,37,38
 252 220 252 220 156 220 c 0,39,40
 98 220 98 220 62 274 c 0,41,42
 30 322 30 322 30 388 c 0,43,44
 30 586 30 586 146 684 c 0,45,46
 244 768 244 768 410 768 c 2,47,-1
 814 768 l 2,48,49
 852 768 852 768 874 742 c 128,-1,50
 896 716 896 716 896 686 c 0,51,52
 896 648 896 648 866 624 c 128,-1,53
 836 600 836 600 794 600 c 2,54,-1
 680 600 l 1,55,-1
 638 506 l 1,56,57
 714 526 714 526 712 526 c 1,58,59
 812 526 812 526 866 462 c 0,60,61
 914 406 914 406 914 312 c 0,62,63
 914 192 914 192 844 126 c 1,64,65
 936 126 936 126 962 152 c 0,66,67
 978 168 978 168 1014 242 c 0,68,69
 1072 362 1072 362 1080 378 c 0,70,71
 1182 588 1182 588 1282 798 c 0,72,73
 1287 809 1287 809 1293 820 c 1,74,75
 1196 855 1196 855 1196 972 c 0,76,77
 1196 1160 1196 1160 1356 1324 c 0,78,79
 1524 1496 1524 1496 1734 1496 c 0,80,81
 1812 1496 1812 1496 1861 1457 c 128,-1,82
 1910 1418 1910 1418 1910 1354 c 0,83,84
 1910 1250 1910 1250 1830 1167 c 128,-1,85
 1750 1084 1750 1084 1640 1084 c 0,86,87
 1554 1084 1554 1084 1554 1162 c 0,88,89
 1554 1210 1554 1210 1592 1230 c 0,90,91
 1598 1234 1598 1234 1670 1256 c 1,92,93
 1724 1280 1724 1280 1724 1314 c 0,94,95
 1724 1330 1724 1330 1706 1330 c 0,96,97
 1580 1330 1580 1330 1476 1204 c 0,98,99
 1384 1096 1384 1096 1384 1006 c 0,100,101
 1384 991 1384 991 1386 979 c 1,102,103
 1418 1020 1418 1020 1438 1020 c 0,104,105
 1484 1020 1484 1020 1517 992 c 128,-1,106
 1550 964 1550 964 1550 930 c 0,0,1
EndSplineSet
Ligature2: "'abvs' Above Base Substitutions lookup 6 subtable" tm_nga tm_iikaar
EndChar

StartChar: tm_c_iikaar
Encoding: 65563 -1 143
Width: 1176
GlyphClass: 2
Flags: W
LayerCount: 2
Fore
SplineSet
1374 1094 m 0,0,1
 1374 982 1374 982 1244 904 c 0,2,3
 1132 836 1132 836 1020 836 c 0,4,5
 934 836 934 836 934 928 c 0,6,7
 934 954 934 954 966 979 c 128,-1,8
 998 1004 998 1004 1040 1004 c 0,9,10
 1096 1004 1096 1004 1151 1023 c 128,-1,11
 1206 1042 1206 1042 1206 1068 c 0,12,13
 1206 1090 1206 1090 1138 1090 c 0,14,15
 1048 1090 1048 1090 960 1036 c 0,16,17
 864 976 864 976 864 904 c 0,18,19
 864 858 864 858 892 816 c 0,20,21
 922 768 922 768 966 768 c 2,22,-1
 1014 768 l 2,23,24
 1038 768 1038 768 1056 748 c 128,-1,25
 1074 728 1074 728 1074 702 c 0,26,27
 1074 630 1074 630 986 614 c 0,28,29
 882 594 882 594 854 534 c 1,30,31
 876 534 876 534 920 534 c 0,32,33
 974 536 974 536 994 536 c 0,34,35
 1162 536 1162 536 1162 456 c 0,36,37
 1162 378 1162 378 1044 378 c 1,38,39
 1046 378 1046 378 973 382 c 128,-1,40
 900 386 900 386 848 384 c 0,41,42
 772 384 772 384 732 374 c 1,43,44
 600 192 600 192 524 120 c 0,45,46
 384 -14 384 -14 244 -14 c 0,47,48
 132 -14 132 -14 74 52 c 0,49,50
 30 102 30 102 30 168 c 0,51,52
 30 474 30 474 656 530 c 1,53,-1
 724 624 l 1,54,-1
 562 624 l 1,55,56
 566 598 566 598 528 562 c 128,-1,57
 490 526 490 526 450 526 c 0,58,59
 406 526 406 526 375 558 c 128,-1,60
 344 590 344 590 344 634 c 0,61,62
 344 690 344 690 385 729 c 128,-1,63
 426 768 426 768 500 768 c 2,64,-1
 754 768 l 1,65,66
 682 814 682 814 682 914 c 0,67,68
 682 1052 682 1052 828 1150 c 0,69,70
 966 1242 966 1242 1146 1242 c 0,71,72
 1230 1242 1230 1242 1292 1212 c 0,73,74
 1374 1172 1374 1172 1374 1094 c 0,0,1
536 364 m 1,75,76
 394 342 394 342 300 295 c 128,-1,77
 206 248 206 248 206 204 c 0,78,79
 206 158 206 158 258 158 c 0,80,81
 420 158 420 158 536 364 c 1,75,76
EndSplineSet
Ligature2: "'abvs' Above Base Substitutions lookup 6 subtable" tm_ca tm_iikaar
EndChar

StartChar: tm_j_iikaar
Encoding: 65564 -1 144
Width: 1144
GlyphClass: 2
Flags: W
LayerCount: 2
Fore
SplineSet
1416 1108 m 0,0,1
 1416 988 1416 988 1302 916 c 0,2,3
 1202 852 1202 852 1060 852 c 0,4,5
 1032 852 1032 852 1005 875 c 128,-1,6
 978 898 978 898 978 930 c 0,7,8
 978 964 978 964 1008 989 c 128,-1,9
 1038 1014 1038 1014 1076 1014 c 0,10,11
 1138 1014 1138 1014 1201 1031 c 128,-1,12
 1264 1048 1264 1048 1264 1074 c 0,13,14
 1264 1104 1264 1104 1190 1104 c 0,15,16
 1088 1104 1088 1104 998 1044 c 128,-1,17
 908 984 908 984 908 904 c 0,18,19
 908 850 908 850 962 806 c 0,20,21
 1010 768 1010 768 1060 730 c 1,22,23
 1114 676 1114 676 1114 598 c 0,24,25
 1114 314 1114 314 678 126 c 0,26,27
 486 46 486 46 294 -34 c 1,28,29
 116 -124 116 -124 116 -222 c 0,30,31
 116 -290 116 -290 178 -290 c 0,32,33
 236 -290 236 -290 334 -218 c 0,34,35
 386 -180 386 -180 523 -61 c 128,-1,36
 660 58 660 58 672 68 c 0,37,38
 752 126 752 126 816 126 c 0,39,40
 856 126 856 126 891 95 c 128,-1,41
 926 64 926 64 936 18 c 2,42,-1
 1030 -400 l 2,43,44
 1032 -410 1032 -410 1032 -420 c 0,45,46
 1032 -500 1032 -500 942 -500 c 0,47,48
 884 -500 884 -500 872 -448 c 2,49,-1
 790 -118 l 2,50,51
 778 -72 778 -72 768 -72 c 0,52,53
 744 -72 744 -72 634 -172 c 0,54,55
 486 -306 486 -306 410 -358 c 0,56,57
 270 -458 270 -458 172 -458 c 0,58,59
 66 -458 66 -458 -4 -393 c 128,-1,60
 -74 -328 -74 -328 -74 -230 c 0,61,62
 -74 -76 -74 -76 108 36 c 0,63,64
 176 80 176 80 490 210 c 0,65,66
 934 396 934 396 934 556 c 0,67,68
 934 606 934 606 888 606 c 0,69,70
 844 606 844 606 785 562 c 128,-1,71
 726 518 726 518 697 463 c 128,-1,72
 668 408 668 408 642 359 c 128,-1,73
 616 310 616 310 570 310 c 0,74,75
 510 310 510 310 490 356 c 2,76,-1
 386 602 l 1,77,78
 342 558 342 558 282 470 c 0,79,80
 218 374 218 374 218 342 c 0,81,82
 218 324 218 324 236 324 c 0,83,84
 262 324 262 324 286 393 c 128,-1,85
 310 462 310 462 370 462 c 0,86,87
 396 462 396 462 415 440 c 128,-1,88
 434 418 434 418 434 394 c 0,89,90
 434 316 434 316 356 235 c 128,-1,91
 278 154 278 154 208 154 c 0,92,93
 132 154 132 154 84 194 c 0,94,95
 30 238 30 238 30 320 c 0,96,97
 30 394 30 394 84 466 c 2,98,-1
 234 664 l 2,99,100
 318 776 318 776 398 776 c 0,101,102
 434 776 434 776 469 757 c 128,-1,103
 504 738 504 738 516 712 c 2,104,-1
 586 554 l 1,105,106
 684 688 684 688 814 748 c 1,107,108
 722 856 722 856 722 932 c 0,109,110
 722 1060 722 1060 873 1155 c 128,-1,111
 1024 1250 1024 1250 1218 1250 c 0,112,113
 1416 1250 1416 1250 1416 1108 c 0,0,1
EndSplineSet
Ligature2: "'abvs' Above Base Substitutions lookup 6 subtable" tm_ja tm_iikaar
EndChar

StartChar: tm_ny_iikaar
Encoding: 65565 -1 145
Width: 1725
GlyphClass: 2
Flags: W
LayerCount: 2
Fore
SplineSet
1512 340 m 0,0,1
 1512 88 1512 88 1232 -121 c 128,-1,2
 952 -330 952 -330 628 -330 c 0,3,4
 370 -330 370 -330 210 -218 c 0,5,6
 30 -90 30 -90 30 148 c 0,7,8
 30 322 30 322 152 496 c 0,9,10
 268 664 268 664 366 664 c 0,11,12
 398 664 398 664 420 641 c 128,-1,13
 442 618 442 618 442 588 c 0,14,15
 442 534 442 534 386 476 c 0,16,17
 304 392 304 392 284 358 c 0,18,19
 228 266 228 266 228 128 c 0,20,21
 228 -18 228 -18 344 -94 c 0,22,23
 444 -160 444 -160 600 -160 c 0,24,25
 872 -160 872 -160 1095 -13 c 128,-1,26
 1318 134 1318 134 1318 308 c 0,27,28
 1318 374 1318 374 1246 374 c 0,29,30
 1178 374 1178 374 1120 278 c 1,31,32
 1074 188 1074 188 1026 96 c 1,33,34
 968 0 968 0 894 0 c 0,35,36
 826 0 826 0 826 74 c 0,37,38
 826 118 826 118 940 308 c 0,39,40
 1080 542 1080 542 1112 612 c 1,41,42
 1046 616 1046 616 945 579 c 128,-1,43
 844 542 844 542 770 484 c 0,44,45
 672 406 672 406 596 302 c 0,46,47
 530 210 530 210 530 176 c 0,48,49
 530 138 530 138 558 138 c 0,50,51
 600 138 600 138 632 246 c 0,52,53
 654 324 654 324 658 330 c 0,54,55
 678 368 678 368 728 368 c 0,56,57
 766 368 766 368 788 343 c 128,-1,58
 810 318 810 318 810 284 c 0,59,60
 810 164 810 164 711 57 c 128,-1,61
 612 -50 612 -50 492 -50 c 0,62,63
 334 -50 334 -50 334 106 c 0,64,65
 334 224 334 224 468 410 c 0,66,67
 610 604 610 604 772 688 c 0,68,69
 885 746 885 746 1059 766 c 1,70,71
 1032 810 1032 810 1032 894 c 0,72,73
 1032 1014 1032 1014 1170 1114 c 128,-1,74
 1308 1214 1308 1214 1492 1214 c 0,75,76
 1722 1214 1722 1214 1722 1074 c 0,77,78
 1722 962 1722 962 1594 878 c 0,79,80
 1482 806 1482 806 1372 806 c 0,81,82
 1288 806 1288 806 1288 894 c 0,83,84
 1288 926 1288 926 1319 947 c 128,-1,85
 1350 968 1350 968 1392 970 c 0,86,87
 1446 972 1446 972 1502 995 c 128,-1,88
 1558 1018 1558 1018 1558 1038 c 0,89,90
 1558 1064 1558 1064 1496 1064 c 0,91,92
 1422 1064 1422 1064 1328 1014 c 0,93,94
 1214 956 1214 956 1214 880 c 0,95,96
 1214 821 1214 821 1246 778 c 1,97,-1
 1272 778 l 2,98,99
 1378 778 1378 778 1408 774 c 0,100,101
 1504 758 1504 758 1504 700 c 0,102,103
 1504 592 1504 592 1342 608 c 1,104,105
 1294 596 1294 596 1252 506 c 1,106,107
 1310 522 1310 522 1342 522 c 0,108,109
 1426 522 1426 522 1472 462 c 0,110,111
 1512 410 1512 410 1512 340 c 0,0,1
EndSplineSet
Ligature2: "'abvs' Above Base Substitutions lookup 6 subtable" tm_nya tm_iikaar
EndChar

StartChar: tm_tt_iikaar
Encoding: 65566 -1 146
Width: 982
GlyphClass: 2
Flags: W
LayerCount: 2
Fore
SplineSet
968 246 m 0,0,1
 968 198 968 198 953 179 c 128,-1,2
 938 160 938 160 896 150 c 2,3,-1
 296 14 l 2,4,5
 216 -4 216 -4 182 -4 c 0,6,7
 70 -4 70 -4 70 140 c 2,8,-1
 70 766 l 2,9,10
 70 852 70 852 166 852 c 0,11,12
 238 852 238 852 238 768 c 2,13,-1
 238 170 l 1,14,-1
 452 218 l 1,15,16
 314 308 314 308 314 434 c 0,17,18
 314 588 314 588 466 696 c 0,19,20
 608 798 608 798 782 798 c 0,21,22
 852 798 852 798 898 761 c 128,-1,23
 944 724 944 724 944 678 c 0,24,25
 944 574 944 574 837 478 c 128,-1,26
 730 382 730 382 624 382 c 0,27,28
 552 382 552 382 552 458 c 0,29,30
 552 500 552 500 602 526 c 0,31,32
 604 526 604 526 704 562 c 0,33,34
 784 590 784 590 784 632 c 0,35,36
 784 652 784 652 748 652 c 0,37,38
 680 652 680 652 588 586 c 0,39,40
 486 512 486 512 486 442 c 0,41,42
 486 378 486 378 544 326 c 128,-1,43
 602 274 602 274 672 274 c 0,44,45
 702 274 702 274 765 293 c 128,-1,46
 828 312 828 312 892 312 c 0,47,48
 922 312 922 312 945 292 c 128,-1,49
 968 272 968 272 968 246 c 0,0,1
EndSplineSet
Ligature2: "'abvs' Above Base Substitutions lookup 5 subtable" tm_tta tm_iikaar
EndChar

StartChar: tm_nn_iikaar
Encoding: 65567 -1 147
Width: 1686
GlyphClass: 2
Flags: W
LayerCount: 2
Fore
SplineSet
1870 1142 m 0,0,1
 1870 1040 1870 1040 1756 960 c 128,-1,2
 1642 880 1642 880 1522 880 c 0,3,4
 1440 880 1440 880 1440 966 c 0,5,6
 1440 996 1440 996 1469 1018 c 128,-1,7
 1498 1040 1498 1040 1524 1040 c 0,8,9
 1564 1040 1564 1040 1630 1060 c 0,10,11
 1708 1082 1708 1082 1708 1108 c 0,12,13
 1708 1138 1708 1138 1650 1138 c 0,14,15
 1578 1138 1578 1138 1480 1088 c 0,16,17
 1362 1026 1362 1026 1362 948 c 0,18,19
 1362 878 1362 878 1422 830 c 0,20,21
 1520 752 1520 752 1541 725 c 128,-1,22
 1562 698 1562 698 1630 288 c 0,23,24
 1696 -110 1696 -110 1696 -170 c 0,25,26
 1696 -250 1696 -250 1606 -250 c 0,27,28
 1540 -250 1540 -250 1528 -180 c 2,29,-1
 1416 498 l 2,30,31
 1400 594 1400 594 1386 594 c 0,32,33
 1338 594 1338 594 1302 538 c 1,34,35
 1382 418 1382 418 1382 222 c 0,36,37
 1382 110 1382 110 1319 43 c 128,-1,38
 1256 -24 1256 -24 1154 -24 c 0,39,40
 1066 -24 1066 -24 1002 36 c 128,-1,41
 938 96 938 96 938 188 c 0,42,43
 938 358 938 358 1104 556 c 1,44,45
 1054 636 1054 636 1000 636 c 0,46,47
 922 636 922 636 860 532 c 1,48,49
 920 364 920 364 920 266 c 0,50,51
 920 144 920 144 847 62 c 128,-1,52
 774 -20 774 -20 674 -20 c 0,53,54
 470 -20 470 -20 470 184 c 0,55,56
 470 276 470 276 554 404 c 1,57,58
 614 484 614 484 674 566 c 1,59,60
 654 588 654 588 633 609 c 128,-1,61
 612 630 612 630 586 630 c 0,62,63
 516 630 516 630 360 452 c 0,64,65
 198 270 198 270 198 178 c 0,66,67
 198 150 198 150 222 150 c 0,68,69
 308 150 308 150 308 306 c 0,70,71
 308 342 308 342 328 372 c 128,-1,72
 348 402 348 402 384 402 c 0,73,74
 464 402 464 402 464 308 c 0,75,76
 464 184 464 184 392 86 c 0,77,78
 316 -18 316 -18 212 -18 c 0,79,80
 138 -18 138 -18 84 28 c 128,-1,81
 30 74 30 74 30 156 c 0,82,83
 30 328 30 328 233 556 c 128,-1,84
 436 784 436 784 600 784 c 0,85,86
 698 784 698 784 786 678 c 1,87,88
 836 710 836 710 884 742 c 0,89,90
 954 782 954 782 1018 782 c 0,91,92
 1132 782 1132 782 1222 676 c 1,93,94
 1252 712 1252 712 1314 746 c 1,95,96
 1238 784 1238 784 1212 824 c 128,-1,97
 1186 864 1186 864 1186 952 c 0,98,99
 1186 1082 1186 1082 1320 1184 c 128,-1,100
 1454 1286 1454 1286 1626 1286 c 0,101,102
 1870 1286 1870 1286 1870 1142 c 0,0,1
1214 222 m 0,103,104
 1214 344 1214 344 1172 408 c 1,105,106
 1138 376 1138 376 1114 317 c 128,-1,107
 1090 258 1090 258 1090 216 c 0,108,109
 1090 138 1090 138 1146 138 c 0,110,111
 1214 138 1214 138 1214 222 c 0,103,104
760 222 m 0,112,113
 760 270 760 270 732 370 c 1,114,115
 662 280 662 280 662 200 c 0,116,117
 662 140 662 140 706 140 c 0,118,119
 760 140 760 140 760 222 c 0,112,113
EndSplineSet
Ligature2: "'abvs' Above Base Substitutions lookup 6 subtable" tm_nna tm_iikaar
EndChar

StartChar: tm_t_iikaar
Encoding: 65568 -1 148
Width: 1146
GlyphClass: 2
Flags: W
LayerCount: 2
Fore
SplineSet
1374 1110 m 0,0,1
 1374 998 1374 998 1244 920 c 0,2,3
 1132 854 1132 854 1018 854 c 0,4,5
 940 854 940 854 940 940 c 0,6,7
 940 996 940 996 1075 1021 c 128,-1,8
 1210 1046 1210 1046 1210 1084 c 0,9,10
 1210 1110 1210 1110 1158 1110 c 0,11,12
 1062 1110 1062 1110 964 1049 c 128,-1,13
 866 988 866 988 866 920 c 0,14,15
 866 860 866 860 907 814 c 128,-1,16
 948 768 948 768 992 768 c 2,17,-1
 1042 768 l 2,18,19
 1116 768 1116 768 1116 698 c 0,20,21
 1116 626 1116 626 1052 612 c 1,22,23
 1000 608 1000 608 946 604 c 0,24,25
 932 602 932 602 866 536 c 1,26,27
 1106 536 1106 536 1106 314 c 0,28,29
 1106 150 1106 150 852 -20 c 0,30,31
 656 -150 656 -150 358 -258 c 0,32,33
 108 -348 108 -348 34 -348 c 0,34,35
 -58 -348 -58 -348 -58 -270 c 0,36,37
 -58 -210 -58 -210 68 -172 c 0,38,39
 352 -88 352 -88 438 -54 c 0,40,41
 620 20 620 20 768 122 c 0,42,43
 936 238 936 238 936 314 c 0,44,45
 936 348 936 348 910 375 c 128,-1,46
 884 402 884 402 846 402 c 2,47,-1
 764 402 l 1,48,49
 554 170 554 170 488 114 c 0,50,51
 350 0 350 0 216 0 c 0,52,53
 134 0 134 0 82 52 c 128,-1,54
 30 104 30 104 30 180 c 0,55,56
 30 306 30 306 156 394 c 0,57,58
 320 512 320 512 676 536 c 1,59,-1
 744 610 l 1,60,-1
 562 610 l 1,61,62
 556 574 556 574 519 552 c 128,-1,63
 482 530 482 530 444 530 c 0,64,65
 404 530 404 530 378 566 c 0,66,67
 356 596 356 596 356 632 c 0,68,69
 356 694 356 694 410 734 c 0,70,71
 456 768 456 768 516 768 c 2,72,-1
 774 768 l 1,73,74
 688 802 688 802 688 928 c 0,75,76
 688 1062 688 1062 828 1159 c 128,-1,77
 968 1256 968 1256 1144 1256 c 0,78,79
 1374 1256 1374 1256 1374 1110 c 0,0,1
546 372 m 1,80,81
 464 372 464 372 336 314 c 0,82,83
 196 248 196 248 196 184 c 0,84,85
 196 170 196 170 214 156 c 128,-1,86
 232 142 232 142 252 142 c 0,87,88
 288 142 288 142 404 240 c 0,89,90
 494 316 494 316 546 372 c 1,80,81
EndSplineSet
Ligature2: "'abvs' Above Base Substitutions lookup 6 subtable" tm_ta tm_iikaar
EndChar

StartChar: tm_n_iikaar
Encoding: 65569 -1 149
Width: 912
GlyphClass: 2
Flags: W
LayerCount: 2
Fore
SplineSet
1192 1114 m 0,0,1
 1192 1002 1192 1002 1064 918 c 0,2,3
 952 846 952 846 842 846 c 0,4,5
 758 846 758 846 758 934 c 0,6,7
 758 966 758 966 789 987 c 128,-1,8
 820 1008 820 1008 862 1010 c 0,9,10
 916 1012 916 1012 972 1035 c 128,-1,11
 1028 1058 1028 1058 1028 1078 c 0,12,13
 1028 1104 1028 1104 966 1104 c 0,14,15
 892 1104 892 1104 798 1054 c 0,16,17
 684 996 684 996 684 920 c 0,18,19
 684 822 684 822 774 768 c 1,20,21
 806 764 806 764 838 758 c 0,22,23
 882 750 882 750 882 706 c 0,24,25
 882 636 882 636 812 616 c 1,26,27
 758 608 758 608 704 600 c 1,28,29
 642 580 642 580 622 518 c 1,30,31
 662 532 662 532 702 532 c 0,32,33
 778 532 778 532 826 486 c 0,34,35
 882 434 882 434 882 340 c 0,36,37
 882 124 882 124 538 -104 c 0,38,39
 382 -208 382 -208 190 -286 c 0,40,41
 24 -356 24 -356 -32 -356 c 0,42,43
 -68 -356 -68 -356 -94 -328 c 128,-1,44
 -120 -300 -120 -300 -120 -260 c 0,45,46
 -120 -208 -120 -208 -12 -170 c 0,47,48
 252 -76 252 -76 292 -58 c 0,49,50
 464 18 464 18 584 122 c 0,51,52
 710 234 710 234 710 320 c 0,53,54
 710 382 710 382 616 382 c 0,55,56
 542 382 542 382 464 248 c 0,57,58
 418 164 418 164 372 80 c 1,59,60
 342 48 342 48 266 48 c 0,61,62
 212 48 212 48 212 116 c 0,63,64
 212 136 212 136 220 148 c 2,65,-1
 478 602 l 1,66,67
 450 622 450 622 382 622 c 0,68,69
 198 622 198 622 198 490 c 0,70,71
 198 456 198 456 224 404 c 128,-1,72
 250 352 250 352 250 328 c 0,73,74
 250 296 250 296 225 268 c 128,-1,75
 200 240 200 240 166 240 c 0,76,77
 106 240 106 240 68 306 c 128,-1,78
 30 372 30 372 30 490 c 0,79,80
 30 600 30 600 110 680 c 0,81,82
 196 768 196 768 334 768 c 2,83,-1
 574 768 l 1,84,85
 502 800 502 800 502 934 c 0,86,87
 502 1054 502 1054 640 1154 c 128,-1,88
 778 1254 778 1254 962 1254 c 0,89,90
 1192 1254 1192 1254 1192 1114 c 0,0,1
EndSplineSet
Ligature2: "'abvs' Above Base Substitutions lookup 6 subtable" tm_na tm_iikaar
EndChar

StartChar: tm_nnn_iikaar
Encoding: 65570 -1 150
Width: 1282
GlyphClass: 2
Flags: W
LayerCount: 2
Fore
SplineSet
1454 1102 m 0,0,1
 1454 1018 1454 1018 1336 945 c 128,-1,2
 1218 872 1218 872 1096 872 c 0,3,4
 1000 872 1000 872 1000 962 c 0,5,6
 1000 996 1000 996 1038 1022 c 0,7,8
 1070 1044 1070 1044 1100 1044 c 0,9,10
 1152 1044 1152 1044 1206 1054 c 0,11,12
 1288 1070 1288 1070 1288 1098 c 0,13,14
 1288 1134 1288 1134 1220 1134 c 0,15,16
 1134 1134 1134 1134 1040 1086 c 0,17,18
 932 1028 932 1028 932 946 c 0,19,20
 932 852 932 852 1022 788 c 0,21,22
 1048 772 1048 772 1076 758 c 1,23,24
 1108 736 1108 736 1116 704 c 2,25,-1
 1308 -156 l 2,26,27
 1316 -190 1316 -190 1288 -216 c 128,-1,28
 1260 -242 1260 -242 1220 -242 c 0,29,30
 1162 -242 1162 -242 1148 -180 c 2,31,-1
 984 568 l 2,32,33
 976 606 976 606 958 606 c 0,34,35
 922 606 922 606 874 558 c 1,36,37
 938 426 938 426 938 272 c 0,38,39
 938 148 938 148 867 64 c 128,-1,40
 796 -20 796 -20 696 -20 c 0,41,42
 614 -20 614 -20 556 28 c 0,43,44
 488 82 488 82 488 176 c 0,45,46
 488 258 488 258 568 398 c 0,47,48
 640 524 640 524 696 570 c 1,49,50
 660 644 660 644 592 644 c 256,51,52
 524 644 524 644 367 460 c 128,-1,53
 210 276 210 276 210 198 c 0,54,55
 210 156 210 156 238 156 c 0,56,57
 270 156 270 156 296 218 c 0,58,59
 316 268 316 268 316 303 c 128,-1,60
 316 338 316 338 339 370 c 128,-1,61
 362 402 362 402 398 402 c 0,62,63
 432 402 432 402 458 378 c 128,-1,64
 484 354 484 354 484 320 c 0,65,66
 484 190 484 190 408 90 c 0,67,68
 324 -20 324 -20 202 -20 c 0,69,70
 128 -20 128 -20 79 30 c 128,-1,71
 30 80 30 80 30 166 c 0,72,73
 30 254 30 254 112 400 c 0,74,75
 200 560 200 560 324 668 c 0,76,77
 470 794 470 794 614 794 c 0,78,79
 736 794 736 794 802 688 c 1,80,81
 838 724 838 724 874 748 c 1,82,83
 760 824 760 824 760 952 c 0,84,85
 760 1096 760 1096 910 1190 c 0,86,87
 1046 1274 1046 1274 1220 1274 c 0,88,89
 1454 1274 1454 1274 1454 1102 c 0,0,1
776 278 m 0,90,91
 776 362 776 362 754 414 c 1,92,93
 666 294 666 294 666 204 c 0,94,95
 666 140 666 140 714 140 c 0,96,97
 776 140 776 140 776 278 c 0,90,91
EndSplineSet
Ligature2: "'abvs' Above Base Substitutions lookup 6 subtable" tm_nnna tm_iikaar
EndChar

StartChar: tm_p_iikaar
Encoding: 65571 -1 151
Width: 780
GlyphClass: 2
Flags: W
LayerCount: 2
Fore
SplineSet
1020 1184 m 0,0,1
 1020 1080 1020 1080 940 997 c 128,-1,2
 860 914 860 914 750 914 c 0,3,4
 664 914 664 914 664 992 c 0,5,6
 664 1040 664 1040 702 1060 c 0,7,8
 708 1064 708 1064 780 1086 c 1,9,10
 834 1110 834 1110 834 1144 c 0,11,12
 834 1160 834 1160 816 1160 c 0,13,14
 690 1160 690 1160 586 1034 c 0,15,16
 494 926 494 926 494 836 c 0,17,18
 494 764 494 764 560 772 c 1,19,-1
 614 856 l 2,20,21
 638 892 638 892 696 892 c 0,22,23
 732 892 732 892 754 868 c 128,-1,24
 776 844 776 844 776 812 c 0,25,26
 776 792 776 792 766 776 c 2,27,-1
 362 98 l 2,28,29
 298 -8 298 -8 200 -8 c 0,30,31
 138 -8 138 -8 102 38 c 0,32,33
 70 78 70 78 70 134 c 2,34,-1
 70 942 l 2,35,36
 70 1050 70 1050 164 1050 c 0,37,38
 254 1050 254 1050 254 950 c 2,39,-1
 254 260 l 1,40,-1
 482 636 l 1,41,42
 306 646 306 646 306 802 c 0,43,44
 306 990 306 990 466 1154 c 0,45,46
 634 1326 634 1326 844 1326 c 0,47,48
 922 1326 922 1326 971 1287 c 128,-1,49
 1020 1248 1020 1248 1020 1184 c 0,0,1
EndSplineSet
Ligature2: "'abvs' Above Base Substitutions lookup 6 subtable" tm_pa tm_iikaar
EndChar

StartChar: tm_m_iikaar
Encoding: 65572 -1 152
Width: 858
GlyphClass: 2
Flags: W
LayerCount: 2
Fore
SplineSet
1130 1164 m 0,0,1
 1130 1050 1130 1050 1022 970 c 0,2,3
 922 896 922 896 806 896 c 0,4,5
 700 896 700 896 700 986 c 0,6,7
 700 1014 700 1014 731 1036 c 128,-1,8
 762 1058 762 1058 792 1058 c 0,9,10
 856 1058 856 1058 917 1078 c 128,-1,11
 978 1098 978 1098 978 1126 c 0,12,13
 978 1152 978 1152 932 1152 c 0,14,15
 826 1152 826 1152 734 1100 c 0,16,17
 628 1038 628 1038 628 944 c 0,18,19
 628 894 628 894 672 852 c 0,20,21
 692 836 692 836 754 798 c 0,22,23
 810 764 810 764 826 742 c 0,24,25
 858 696 858 696 858 594 c 0,26,27
 858 396 858 396 696 198 c 0,28,29
 524 -12 524 -12 320 -12 c 0,30,31
 250 -12 250 -12 197 36 c 128,-1,32
 144 84 144 84 132 156 c 2,33,-1
 14 834 l 2,34,35
 12 846 12 846 12 858 c 0,36,37
 12 954 12 954 108 954 c 0,38,39
 166 954 166 954 180 866 c 2,40,-1
 284 254 l 2,41,42
 302 148 302 148 346 148 c 0,43,44
 454 148 454 148 573 304 c 128,-1,45
 692 460 692 460 692 590 c 0,46,47
 692 636 692 636 638 636 c 0,48,49
 538 636 538 636 510 426 c 0,50,51
 496 326 496 326 486 304 c 0,52,53
 468 266 468 266 414 266 c 0,54,55
 330 266 330 266 330 402 c 0,56,57
 330 500 330 500 374 600 c 0,58,59
 430 726 430 726 532 782 c 1,60,61
 440 862 440 862 440 980 c 0,62,63
 440 1092 440 1092 585 1196 c 128,-1,64
 730 1300 730 1300 920 1300 c 0,65,66
 1130 1300 1130 1300 1130 1164 c 0,0,1
EndSplineSet
Ligature2: "'abvs' Above Base Substitutions lookup 6 subtable" tm_ma tm_iikaar
EndChar

StartChar: tm_y_iikaar
Encoding: 65573 -1 153
Width: 1074
GlyphClass: 2
Flags: W
LayerCount: 2
Fore
SplineSet
1352 1130 m 0,0,1
 1352 1020 1352 1020 1277 940 c 128,-1,2
 1202 860 1202 860 1094 860 c 0,3,4
 1004 860 1004 860 1004 938 c 0,5,6
 1004 988 1004 988 1086 1020 c 128,-1,7
 1168 1052 1168 1052 1168 1088 c 0,8,9
 1168 1110 1168 1110 1142 1110 c 0,10,11
 1034 1110 1034 1110 936 982 c 0,12,13
 848 864 848 864 848 766 c 0,14,15
 848 704 848 704 896 704 c 0,16,17
 914 704 914 704 949 769 c 128,-1,18
 984 834 984 834 1042 834 c 0,19,20
 1086 834 1086 834 1109 807 c 128,-1,21
 1132 780 1132 780 1132 746 c 0,22,23
 1132 720 1132 720 764 56 c 0,24,25
 746 22 746 22 690 -12 c 0,26,27
 626 -50 626 -50 562 -50 c 0,28,29
 490 -50 490 -50 452 2 c 0,30,31
 420 46 420 46 420 106 c 2,32,-1
 420 202 l 1,33,34
 374 138 374 138 328 74 c 1,35,36
 256 -14 256 -14 194 -14 c 0,37,38
 70 -14 70 -14 70 106 c 2,39,-1
 70 718 l 2,40,41
 70 792 70 792 158 792 c 0,42,43
 238 792 238 792 238 714 c 2,44,-1
 238 238 l 1,45,-1
 420 498 l 1,46,-1
 420 610 l 2,47,48
 420 734 420 734 524 734 c 0,49,50
 604 734 604 734 604 620 c 2,51,-1
 604 134 l 1,52,-1
 832 542 l 1,53,54
 662 582 662 582 662 730 c 0,55,56
 662 936 662 936 817 1105 c 128,-1,57
 972 1274 972 1274 1188 1274 c 0,58,59
 1352 1274 1352 1274 1352 1130 c 0,0,1
EndSplineSet
Ligature2: "'abvs' Above Base Substitutions lookup 6 subtable" tm_ya tm_iikaar
EndChar

StartChar: tm_r_iikaar
Encoding: 65574 -1 154
Width: 972
GlyphClass: 2
Flags: W
LayerCount: 2
Fore
SplineSet
930 688 m 0,0,1
 930 650 930 650 904 624 c 128,-1,2
 878 598 878 598 856 594 c 2,3,-1
 800 586 l 2,4,5
 764 580 764 580 720 512 c 2,6,-1
 324 -110 l 2,7,8
 260 -210 260 -210 151 -289 c 128,-1,9
 42 -368 42 -368 -26 -368 c 0,10,11
 -130 -368 -130 -368 -130 -274 c 0,12,13
 -130 -230 -130 -230 -78 -202 c 0,14,15
 -18 -170 -18 -170 42 -140 c 1,16,17
 126 -86 126 -86 184 4 c 2,18,-1
 560 596 l 1,19,-1
 356 596 l 2,20,21
 278 596 278 596 236 546 c 0,22,23
 200 506 200 506 200 450 c 0,24,25
 200 420 200 420 221 374 c 128,-1,26
 242 328 242 328 242 302 c 0,27,28
 242 268 242 268 218 243 c 128,-1,29
 194 218 194 218 156 218 c 0,30,31
 102 218 102 218 54 300 c 0,32,33
 10 376 10 376 10 442 c 0,34,35
 10 582 10 582 94 670 c 0,36,37
 188 768 188 768 352 768 c 2,38,-1
 485 768 l 1,39,40
 404 841 404 841 404 922 c 0,41,42
 404 1078 404 1078 574 1192 c 0,43,44
 728 1294 728 1294 900 1294 c 0,45,46
 1134 1294 1134 1294 1134 1120 c 0,47,48
 1134 1022 1134 1022 998 938 c 0,49,50
 880 866 880 866 800 866 c 0,51,52
 676 866 676 866 676 944 c 0,53,54
 676 1004 676 1004 726 1022 c 1,55,56
 778 1030 778 1030 828 1038 c 0,57,58
 948 1060 948 1060 948 1106 c 0,59,60
 948 1138 948 1138 878 1138 c 0,61,62
 778 1138 778 1138 687 1071 c 128,-1,63
 596 1004 596 1004 596 934 c 0,64,65
 596 868 596 868 657 768 c 1,66,-1
 832 768 l 2,67,68
 930 768 930 768 930 688 c 0,0,1
EndSplineSet
Ligature2: "'abvs' Above Base Substitutions lookup 5 subtable" tm_ra tm_iikaar
EndChar

StartChar: tm_rr_iikaar
Encoding: 65575 -1 155
Width: 1182
GlyphClass: 2
Flags: W
LayerCount: 2
Fore
SplineSet
1402 1112 m 0,0,1
 1402 992 1402 992 1278 918 c 0,2,3
 1174 858 1174 858 1062 858 c 0,4,5
 968 858 968 858 968 944 c 0,6,7
 968 1004 968 1004 1056 1018 c 0,8,9
 1118 1028 1118 1028 1178 1036 c 1,10,11
 1246 1052 1246 1052 1246 1086 c 0,12,13
 1246 1112 1246 1112 1182 1112 c 0,14,15
 1080 1112 1080 1112 990 1052 c 0,16,17
 894 988 894 988 894 908 c 0,18,19
 894 848 894 848 958 804 c 0,20,21
 1070 730 1070 730 1078 722 c 0,22,23
 1142 658 1142 658 1142 546 c 0,24,25
 1142 352 1142 352 993 147 c 128,-1,26
 844 -58 844 -58 628 -168 c 0,27,28
 444 -262 444 -262 158 -346 c 0,29,30
 -88 -418 -88 -418 -160 -418 c 0,31,32
 -266 -418 -266 -418 -266 -330 c 0,33,34
 -266 -278 -266 -278 -200 -260 c 1,35,36
 -96 -242 -96 -242 8 -226 c 0,37,38
 228 -190 228 -190 462 -80 c 0,39,40
 716 38 716 38 858 244 c 0,41,42
 962 396 962 396 962 506 c 0,43,44
 962 598 962 598 920 598 c 0,45,46
 896 598 896 598 864 575 c 128,-1,47
 832 552 832 552 818 526 c 2,48,-1
 646 186 l 2,49,50
 614 122 614 122 592 98 c 0,51,52
 558 60 558 60 508 60 c 0,53,54
 430 60 430 60 430 134 c 2,55,-1
 430 592 l 1,56,57
 390 524 390 524 164 42 c 0,58,59
 140 -6 140 -6 66 -6 c 0,60,61
 32 -6 32 -6 12 21 c 128,-1,62
 -8 48 -8 48 -8 80 c 0,63,64
 -8 96 -8 96 -2 108 c 2,65,-1
 294 680 l 2,66,67
 344 778 344 778 450 778 c 0,68,69
 588 778 588 778 588 658 c 2,70,-1
 588 418 l 1,71,72
 710 674 710 674 808 742 c 1,73,74
 768 782 768 782 737 840 c 128,-1,75
 706 898 706 898 706 936 c 0,76,77
 706 1058 706 1058 860 1159 c 128,-1,78
 1014 1260 1014 1260 1198 1260 c 0,79,80
 1402 1260 1402 1260 1402 1112 c 0,0,1
EndSplineSet
Ligature2: "'abvs' Above Base Substitutions lookup 6 subtable" tm_rra tm_iikaar
EndChar

StartChar: tm_l_iikaar
Encoding: 65576 -1 156
Width: 1122
GlyphClass: 2
Flags: W
LayerCount: 2
Fore
SplineSet
1354 1098 m 0,0,1
 1354 988 1354 988 1266 908 c 0,2,3
 1186 836 1186 836 1100 836 c 256,4,5
 1014 836 1014 836 1014 906 c 0,6,7
 1014 956 1014 956 1095 988 c 128,-1,8
 1176 1020 1176 1020 1176 1056 c 0,9,10
 1176 1078 1176 1078 1146 1078 c 0,11,12
 1046 1078 1046 1078 955 959 c 128,-1,13
 864 840 864 840 864 742 c 0,14,15
 864 660 864 660 910 660 c 0,16,17
 922 660 922 660 936 666 c 1,18,19
 964 744 964 744 990 772 c 128,-1,20
 1016 800 1016 800 1062 800 c 0,21,22
 1096 800 1096 800 1121 776 c 128,-1,23
 1146 752 1146 752 1146 718 c 0,24,25
 1146 698 1146 698 1136 676 c 2,26,-1
 868 122 l 2,27,28
 806 -6 806 -6 716 -6 c 0,29,30
 638 -6 638 -6 596 116 c 2,31,-1
 450 542 l 2,32,33
 442 564 442 564 420 570 c 1,34,35
 368 538 368 538 274 398 c 128,-1,36
 180 258 180 258 180 210 c 256,37,38
 180 162 180 162 216 162 c 0,39,40
 244 162 244 162 264 226 c 0,41,42
 296 340 296 340 298 344 c 0,43,44
 326 408 326 408 378 408 c 0,45,46
 406 408 406 408 426 381 c 128,-1,47
 446 354 446 354 446 320 c 0,48,49
 446 190 446 190 370 94 c 0,50,51
 290 -8 290 -8 172 -8 c 0,52,53
 102 -8 102 -8 56 39 c 128,-1,54
 10 86 10 86 10 170 c 0,55,56
 10 338 10 338 184 556 c 0,57,58
 352 768 352 768 462 768 c 0,59,60
 504 768 504 768 543 745 c 128,-1,61
 582 722 582 722 592 696 c 2,62,-1
 750 244 l 1,63,-1
 870 524 l 1,64,65
 850 522 850 522 834 522 c 0,66,67
 680 522 680 522 680 706 c 0,68,69
 680 892 680 892 826 1062 c 0,70,71
 982 1244 982 1244 1192 1244 c 0,72,73
 1354 1244 1354 1244 1354 1098 c 0,0,1
EndSplineSet
Ligature2: "'abvs' Above Base Substitutions lookup 5 subtable" tm_la tm_iikaar
EndChar

StartChar: tm_ll_iikaar
Encoding: 65577 -1 157
Width: 1138
GlyphClass: 2
Flags: W
LayerCount: 2
Fore
SplineSet
1342 1158 m 0,0,1
 1342 1056 1342 1056 1218 974 c 0,2,3
 1102 898 1102 898 986 898 c 0,4,5
 954 898 954 898 927 924 c 128,-1,6
 900 950 900 950 900 986 c 0,7,8
 900 1054 900 1054 996 1070 c 128,-1,9
 1092 1086 1092 1086 1114 1092 c 0,10,11
 1176 1110 1176 1110 1176 1144 c 0,12,13
 1176 1174 1176 1174 1114 1174 c 0,14,15
 1018 1174 1018 1174 925 1105 c 128,-1,16
 832 1036 832 1036 832 962 c 0,17,18
 832 900 832 900 874 855 c 128,-1,19
 916 810 916 810 960 764 c 1,20,21
 1012 688 1012 688 1034 562 c 2,22,-1
 1156 -160 l 2,23,24
 1162 -200 1162 -200 1136 -227 c 128,-1,25
 1110 -254 1110 -254 1062 -254 c 0,26,27
 996 -254 996 -254 982 -174 c 2,28,-1
 852 596 l 1,29,-1
 742 178 l 2,30,31
 726 120 726 120 670 120 c 0,32,33
 600 120 600 120 574 208 c 2,34,-1
 464 578 l 1,35,36
 418 578 418 578 319 424 c 128,-1,37
 220 270 220 270 220 202 c 0,38,39
 220 156 220 156 252 156 c 0,40,41
 270 156 270 156 281 206 c 128,-1,42
 292 256 292 256 302 306 c 0,43,44
 324 402 324 402 386 402 c 0,45,46
 464 402 464 402 464 296 c 0,47,48
 464 172 464 172 386 78 c 128,-1,49
 308 -16 308 -16 202 -16 c 0,50,51
 132 -16 132 -16 84 26 c 0,52,53
 30 70 30 70 30 144 c 0,54,55
 30 224 30 224 86 350 c 0,56,57
 148 488 148 488 240 600 c 0,58,59
 390 780 390 780 512 780 c 0,60,61
 578 780 578 780 600 704 c 2,62,-1
 656 516 l 1,63,64
 680 584 680 584 704 650 c 0,65,66
 738 732 738 732 768 766 c 1,67,68
 664 856 664 856 664 966 c 0,69,70
 664 1110 664 1110 804 1213 c 128,-1,71
 944 1316 944 1316 1130 1316 c 0,72,73
 1226 1316 1226 1316 1284 1273 c 128,-1,74
 1342 1230 1342 1230 1342 1158 c 0,0,1
EndSplineSet
Ligature2: "'abvs' Above Base Substitutions lookup 6 subtable" tm_lla tm_iikaar
EndChar

StartChar: tm_lll_iikaar
Encoding: 65578 -1 158
Width: 878
GlyphClass: 2
Flags: W
LayerCount: 2
Fore
SplineSet
1150 1126 m 0,0,1
 1150 1030 1150 1030 1032 949 c 128,-1,2
 914 868 914 868 784 868 c 0,3,4
 750 868 750 868 720 889 c 128,-1,5
 690 910 690 910 690 946 c 0,6,7
 690 1012 690 1012 816 1032 c 0,8,9
 966 1056 966 1056 966 1104 c 0,10,11
 966 1136 966 1136 890 1136 c 0,12,13
 790 1136 790 1136 703 1072 c 128,-1,14
 616 1008 616 1008 616 932 c 0,15,16
 616 854 616 854 674 817 c 128,-1,17
 732 780 732 780 788 744 c 1,18,19
 848 684 848 684 848 554 c 0,20,21
 848 258 848 258 580 64 c 1,22,23
 598 16 598 16 680 -34 c 0,24,25
 754 -78 754 -78 754 -108 c 0,26,27
 754 -214 754 -214 670 -214 c 0,28,29
 640 -214 640 -214 564 -176 c 1,30,31
 444 -334 444 -334 274 -334 c 0,32,33
 164 -334 164 -334 90 -284 c 128,-1,34
 16 -234 16 -234 16 -172 c 0,35,36
 16 -76 16 -76 110 -76 c 0,37,38
 144 -76 144 -76 185 -124 c 128,-1,39
 226 -172 226 -172 292 -172 c 0,40,41
 336 -172 336 -172 380 -139 c 128,-1,42
 424 -106 424 -106 444 -58 c 1,43,-1
 418 -10 l 1,44,45
 374 -18 374 -18 336 -18 c 0,46,47
 146 -18 146 -18 122 128 c 2,48,-1
 2 854 l 2,49,50
 -6 900 -6 900 23 934 c 128,-1,51
 52 968 52 968 94 968 c 0,52,53
 166 968 166 968 178 884 c 2,54,-1
 274 226 l 2,55,56
 284 164 284 164 356 152 c 1,57,58
 334 228 334 228 334 316 c 0,59,60
 334 692 334 692 528 776 c 1,61,62
 424 828 424 828 424 946 c 0,63,64
 424 1074 424 1074 589 1181 c 128,-1,65
 754 1288 754 1288 942 1288 c 0,66,67
 1034 1288 1034 1288 1092 1242 c 128,-1,68
 1150 1196 1150 1196 1150 1126 c 0,0,1
686 538 m 0,69,70
 686 570 686 570 669 599 c 128,-1,71
 652 628 652 628 632 628 c 0,72,73
 576 628 576 628 534 532 c 0,74,75
 496 446 496 446 496 368 c 256,76,77
 496 290 496 290 522 214 c 1,78,79
 686 356 686 356 686 538 c 0,69,70
EndSplineSet
Ligature2: "'abvs' Above Base Substitutions lookup 6 subtable" tm_llla tm_iikaar
EndChar

StartChar: tm_v_iikaar
Encoding: 65579 -1 159
Width: 1002
GlyphClass: 2
Flags: W
LayerCount: 2
Fore
SplineSet
1230 1178 m 0,0,1
 1230 1074 1230 1074 1157 992 c 128,-1,2
 1084 910 1084 910 982 910 c 0,3,4
 896 910 896 910 896 986 c 0,5,6
 896 1034 896 1034 971 1067 c 128,-1,7
 1046 1100 1046 1100 1046 1126 c 0,8,9
 1046 1154 1046 1154 1024 1154 c 0,10,11
 932 1154 932 1154 838 1030 c 0,12,13
 750 914 750 914 750 818 c 0,14,15
 750 746 750 746 792 738 c 1,16,-1
 792 792 l 2,17,18
 792 822 792 822 823 848 c 128,-1,19
 854 874 854 874 886 874 c 0,20,21
 960 874 960 874 960 808 c 2,22,-1
 960 158 l 2,23,24
 960 0 960 0 764 0 c 2,25,-1
 310 0 l 2,26,27
 186 0 186 0 186 86 c 0,28,29
 186 124 186 124 220 148 c 0,30,31
 248 168 248 168 336 200 c 0,32,33
 388 220 388 220 478 336 c 0,34,35
 574 462 574 462 574 536 c 0,36,37
 574 588 574 588 546 606 c 0,38,39
 530 614 530 614 486 614 c 0,40,41
 376 614 376 614 278 528 c 0,42,43
 190 450 190 450 190 392 c 0,44,45
 190 352 190 352 212 352 c 0,46,47
 268 352 268 352 309 445 c 128,-1,48
 350 538 350 538 398 538 c 0,49,50
 428 538 428 538 449 518 c 128,-1,51
 470 498 470 498 470 470 c 0,52,53
 470 376 470 376 380 290 c 0,54,55
 286 198 286 198 170 198 c 0,56,57
 110 198 110 198 70 246 c 128,-1,58
 30 294 30 294 30 360 c 0,59,60
 30 524 30 524 192 650 c 128,-1,61
 354 776 354 776 548 766 c 1,62,63
 532 606 532 606 736 558 c 1,64,65
 758 382 758 382 538 162 c 1,66,-1
 768 162 l 1,67,-1
 792 190 l 1,68,-1
 792 584 l 1,69,70
 672 588 672 588 620 634 c 128,-1,71
 568 680 568 680 568 792 c 0,72,73
 568 980 568 980 712 1144 c 0,74,75
 868 1318 868 1318 1072 1318 c 0,76,77
 1230 1318 1230 1318 1230 1178 c 0,0,1
EndSplineSet
Ligature2: "'abvs' Above Base Substitutions lookup 6 subtable" tm_va tm_iikaar
EndChar

StartChar: tm_ss_iikaar
Encoding: 65580 -1 160
Width: 1432
GlyphClass: 2
Flags: W
LayerCount: 2
Fore
SplineSet
1530 1108 m 0,0,1
 1530 1000 1530 1000 1408 930 c 0,2,3
 1300 868 1300 868 1158 868 c 0,4,5
 1126 868 1126 868 1101 894 c 128,-1,6
 1076 920 1076 920 1076 952 c 0,7,8
 1076 1012 1076 1012 1152 1032 c 1,9,10
 1220 1040 1220 1040 1293 1049 c 128,-1,11
 1366 1058 1366 1058 1366 1098 c 0,12,13
 1366 1130 1366 1130 1298 1130 c 0,14,15
 1192 1130 1192 1130 1106 1078 c 0,16,17
 1012 1020 1012 1020 1012 932 c 0,18,19
 1012 862 1012 862 1094 810 c 0,20,21
 1170 764 1170 764 1248 716 c 1,22,23
 1330 644 1330 644 1330 528 c 0,24,25
 1330 396 1330 396 1242 242 c 1,26,27
 1294 262 1294 262 1334 262 c 0,28,29
 1418 262 1418 262 1418 172 c 0,30,31
 1418 126 1418 126 1350 99 c 128,-1,32
 1282 72 1282 72 1088 44 c 1,33,34
 960 -106 960 -106 811 -231 c 128,-1,35
 662 -356 662 -356 616 -356 c 0,36,37
 520 -356 520 -356 520 -248 c 0,38,39
 520 -226 520 -226 618 -168 c 0,40,41
 758 -86 758 -86 864 14 c 1,42,43
 584 -16 584 -16 386 -16 c 0,44,45
 174 -16 174 -16 174 54 c 0,46,47
 174 104 174 104 210 126 c 0,48,49
 264 154 264 154 318 180 c 0,50,51
 400 224 400 224 462 288 c 0,52,53
 568 400 568 400 568 534 c 0,54,55
 568 572 568 572 544 597 c 128,-1,56
 520 622 520 622 488 622 c 0,57,58
 378 622 378 622 282 534 c 0,59,60
 196 456 196 456 196 398 c 0,61,62
 196 352 196 352 228 352 c 0,63,64
 272 352 272 352 307 446 c 128,-1,65
 342 540 342 540 394 540 c 0,66,67
 470 540 470 540 470 472 c 0,68,69
 470 392 470 392 390 302 c 0,70,71
 298 196 298 196 172 196 c 0,72,73
 30 196 30 196 30 358 c 0,74,75
 30 528 30 528 178 650 c 128,-1,76
 326 772 326 772 514 772 c 0,77,78
 608 772 608 772 664 724 c 0,79,80
 732 666 732 666 732 550 c 0,81,82
 732 406 732 406 660 294 c 0,83,84
 642 264 642 264 530 138 c 1,85,-1
 950 176 l 1,86,87
 872 244 872 244 844 282 c 0,88,89
 792 356 792 356 792 452 c 0,90,91
 792 560 792 560 833 643 c 128,-1,92
 874 726 874 726 948 750 c 1,93,94
 836 818 836 818 836 952 c 0,95,96
 836 1078 836 1078 977 1170 c 128,-1,97
 1118 1262 1118 1262 1326 1262 c 0,98,99
 1420 1262 1420 1262 1475 1220 c 128,-1,100
 1530 1178 1530 1178 1530 1108 c 0,0,1
1156 512 m 0,101,102
 1156 630 1156 630 1060 630 c 0,103,104
 1026 630 1026 630 988 577 c 128,-1,105
 950 524 950 524 950 484 c 0,106,107
 950 362 950 362 1072 264 c 1,108,109
 1156 428 1156 428 1156 512 c 0,101,102
EndSplineSet
Ligature2: "'abvs' Above Base Substitutions lookup 6 subtable" tm_ssa tm_iikaar
EndChar

